<svg xmlns="http://www.w3.org/2000/svg" id="svgdata" viewBox="0 0 519.15 397.82">
    
  <defs>
    <style>
      .cls-1, .cls-2 {
        stroke-width: 0.5px;
      }
      
      * {
         -webkit-user-select: none; /* Safari */        
         -moz-user-select: none; /* Firefox */
         -ms-user-select: none; /* IE10+/Edge */
         user-select: none; /* Standard */
      }
      text, text * {
         pointer-events: none;
      }
    </style>
  </defs>
  <g id="outlines">
    <path id="TA-2" class="cls-1" d="M194.88,245.72l-1.71,1.66-1.29-1.55-1.71.21-1.91,1.13-1.27,2-.2-.12-.87-1-1.74-.58-1.65.42a1.14,1.14,0,0,0-.15-.16L181,246s.53-3.21.54-3.21,1.62-1.59,1.43-1.59-.19-1.43-.19-1.43q-.48-.37-1-.72l.79-3-1.78-3.75s.78-1.59.89-1.67.89-1.67.89-1.67L181,225.17l-.21-4.46,2.38-.33,1.92-1.21,2.28,1.37H189c0,.5-.07.93-.07.93l1.42,1.95c.07,0,1.06,1.6,1.07,1.61s.17,2.12.18,2.13-.53,2.61-.53,2.67-.72,2.23-.72,2.31-2,.05-2.5.57a2.8,2.8,0,0,0,.39,2.65c.44.27.68,1.94.69,1.95s.51,2.3.53,2.31,1.42,2.13,1.43,2.14l2.13,1.6a18.38,18.38,0,0,1,1.79,2.15S194.82,245.59,194.88,245.72Z" transform="translate(-0.16 -0.27)"><title>TA-2</title></path>
    <path id="TA-1" class="cls-1" d="M188.21,255.31h0S188.21,255.31,188.21,255.31Zm11.2-64.72a1,1,0,1,0,1,1A1,1,0,0,0,199.41,190.59Zm1,54.27c0,.07,0,.09,0,.09a.36.36,0,0,0,.05-.09Zm-11.29-27.67-1.6-1.06-1.78-.89s-.53-2-.54-2,.36-2.42.36-2.49a11.78,11.78,0,0,0,1.63-3.27,14,14,0,0,1,.86-2.61,9.73,9.73,0,0,0,1.06-2.69c0-.92-1.58-2.63-1.59-2.65l-2.85-1.24L181.29,196s-1.95-1.06-2-1.07l-1.6-2s.89-1.39.89-1.42l-1.78-.18a6.69,6.69,0,0,1-2.32-.89c-.71-.62-1.94-1.59-1.94-1.59l-.37,2.83.33,2.62-.69,1.3-.89,2-.71,3-.53,2.17h-2.85l-4.45-.89H159l-2.85-.89-2.44-2.31-1.78-1.34-1.07,2.41-.89,1.43.36,2.49.18,2.49.71,1.6.53,2.67V212l1,1.64,4.37-.15,3.21-.77,1.78.53a19.3,19.3,0,0,1,1.61,2c0,.18-.71,3.19-.72,3.19s-2.23.53-2.32.53-1.74.54-1.78.54.36,2.61.36,2.67,1.56,1.21,2,1.5a4,4,0,0,0,2.44-.26,8.26,8.26,0,0,0,1.41-1.6l1.6,1.25s.18,2.2.18,2.31-.34,1.6-.35,1.6.35,1,.35,1.07,1.73.89,1.21.84,2.18.95,2.36.95a9.37,9.37,0,0,1-.19,2.3s1.26.91,1.26,1.09.52,2.09.52,2.12,1.51.21,2.41.24a9.38,9.38,0,0,1,2.58.83,25.39,25.39,0,0,0,3.13,1.77,13.48,13.48,0,0,1,1.57.89l.79-3-1.78-3.75s.78-1.59.89-1.67.89-1.67.89-1.67L181,225.17l-.21-4.46,2.38-.33,1.92-1.21,2.28,1.37H189c.05-.71.12-1.56.11-1.57S189.12,217.21,189.12,217.19Z" transform="translate(-0.16 -0.27)"><title>TA-1</title></path>
    <path id="TA-5" class="cls-1" d="M201.24,247.1s-1.78,2.12-1.78,2.14-.34,1.61-.34,1.79.5,1.67.2,1.79a16.1,16.1,0,0,0-1.82,1.58,10.32,10.32,0,0,1-1.05,2c-.18,0-1.21-.33-1.73-.41s-4.38.07-3.82,0c.2,0,0-.12-.39-.23.07-.54.28-1.55.28-1.55v-1l-.58-1.12-2.48-1.1.48-1.11-1.22-.76,1.27-2,1.91-1.13,1.71-.21,1.29,1.55,1.71-1.66c.31.6,1.43,2.32,1.43,3s-.87.56-2,.78,1.22.65,1.23.66,2.08-.53,2.13-.53,1.5-1.87,1.76-2.19a13.62,13.62,0,0,0,1.08-2.44c.16,0,.83-.21,1,0S201.23,247.08,201.24,247.1Z" transform="translate(-0.16 -0.27)"><title>TA-5</title></path>
    <path id="TA-3" class="cls-1" d="M188.21,249.88l-.48,1.11-.4.93-1.49.79c-.6-1-2-3.3-1.58-3a19.6,19.6,0,0,0-1.73-1.92l1.65-.42,1.74.58.87,1,.2.12Z" transform="translate(-0.16 -0.27)"><title>TA-3</title></path>
    <path id="TA-4" class="cls-1" d="M190.79,253.21v1s-.21,1-.28,1.55a14.93,14.93,0,0,0-2.19-.46c-.15-.27-2.21-2.14-2.21-2.14l-.27-.45,1.49-.79.4-.93,2.48,1.1Z" transform="translate(-0.16 -0.27)"><title>TA-4</title></path>
    <path id="SA-AL" class="cls-1" d="M121.39,279.89c.22,0,.22-.09.09-.17C121.16,279.85,121,279.93,121.39,279.89Zm18.32-7.81c0-.08-1.28-.52-1.3-.6s-1.58-1.22-1.6-1.3-1.38-.92-1.41-1-.37-1.43-.4-1.51-1-1.32-1-1.4-1.18,0-1.2-.1-.68,1.28-.7,1.2-1,1.79-1,1.71-1.58-.32-1.6-.4-.48-1.43-.5-1.51.62-1.92.6-2,.32-3.22.3-3.3-.08-1.52-.1-1.6-.08-1.53-.1-1.61-.48-.92-.5-1-1.38.28-1.4.2-2.79.08-2.81,0-1.08-.72-1.1-.8-1-1.22-1-1.3-1.08-.62-1.1-.7-1.48.88-1.5.8-2,1-2,.9-1.48,1.08-1.51,1-2.78.28-2.8.2-1.38-.42-1.4-.5-.68-1.32-.7-1.4-1-1.82-1-1.9-1.48-1.22-1.5-1.3-2.09-.72-2.11-.8-1.38-1.43-1.4-1.5-.38-2-.4-2.11.12-1.72.1-1.8-.28-1.42-.3-1.5-1.28-.92-1.3-1-2.38,0-2.4-.1-1.68.38-1.71.3-2.08.48-2.1.4-1.68.28-1.7.2-2.08.18-2.1.1-1.08,1.28-1.1,1.2-.68,2.08-.7,2-.58,1.68-.6,1.6-.68,1.69-.71,1.61-.87,1.08-.9,1-.78,1.48-.8,1.4.32,2,.3,1.9,1.43.88,1.4.8.73,2,.71,1.9,1.32,1.89,1.3,1.81,2,.48,2,.4,2.12.28,2.1.2.42.88.4.8-.68,1.58-.7,1.5,0,1.78,0,1.7-1.28.88-1.3.8-1.08,1.38-1.1,1.3-.48,2-.5,1.91.12,1.78.1,1.7-.18,2.08-.2,2-.38,1.38-.4,1.3-.68,1.58-.68,1.58l2.48.62,1.3-.5,1.4.7.8,1.41,2.21.7H102s1.32,1.08,1.42,1.18a14.7,14.7,0,0,0,1.88,1c0-.08,2.33,0,2.3-.1s1.93.08,1.91,0,.12-1.62.1-1.7.92-.72.9-.8,1.22,1.28,1.2,1.2,1.22-.42,1.2-.5,1.52-1,1.5-1.1,1.72,1.68,1.7,1.6,1.53-.32,1.5-.4,1.33.28,1.31.2a11.6,11.6,0,0,1,2.59.73c.58-.22,1.72-.58,1.71-.63s2-.32,2-.4,2.93,0,2.91-.1a11.25,11.25,0,0,1,1.42.18h1.6A4,4,0,0,0,133.3,280a1.5,1.5,0,0,0,1.7-.9c0-.08,1.23-1.32,1.21-1.4s.62-1.53.6-1.61.72,1.28.7,1.21.92-1.33.9-1.41,1.12-1.72,1.1-1.8,1.12-.82,1.1-.9S139.71,272.16,139.71,272.08Zm-22.4,20.78a.85.85,0,0,0-.41,1.65.94.94,0,0,0,.41,0,.85.85,0,1,0,.41-1.65A.94.94,0,0,0,117.31,292.86Z" transform="translate(-0.16 -0.27)"><title>SA-AL</title></path>
    <path id="RW-5" class="cls-1" d="M171.6,264.83a8.13,8.13,0,0,0-.48.87c0,.05-1.28-.05-1.28,0s-1-.9-1-.9-.06-.33-.12-.63h.82l.43.13.86.25Z" transform="translate(-0.16 -0.27)"><title>RW-5</title></path>
    <path id="RW-4" class="cls-1" d="M170.83,262.12l-.86,1.34v.84l-.43-.13h-.82c-.05-.28-.1-.55-.1-.57s.27-1.13.3-1.13.08-.47.14-.84Z" transform="translate(-0.16 -0.27)"><title>RW-4</title></path>
    <path id="RW-6" class="cls-1" d="M172.6,263.32a9.11,9.11,0,0,0-.58.73s-.21.4-.42.78l-.77-.28-.86-.25v-.84l.86-1.34.88-.7.41.88-.41.78Z" transform="translate(-0.16 -0.27)"><title>RW-6</title></path>
    <path id="RW-7" class="cls-1" d="M176.26,260.8a4.37,4.37,0,0,0-.53.54c0,.07-1.51.48-1.51.53s-1,.6-1,.67a7.85,7.85,0,0,1-.62.78l-.89-.24.41-.78-.41-.88,1.21-1.26.58-.72.71-.88Z" transform="translate(-0.16 -0.27)"><title>RW-7</title></path>
    <path id="RW-8" class="cls-1" d="M178.58,259.39c0,.06-1.73.77-1.73.83a5.17,5.17,0,0,1-.59.58l-2-2.24,1.08-1-.49-1.28,1.58-.34.7.58,1.38.28C178.56,257.67,178.56,259.34,178.58,259.39Z" transform="translate(-0.16 -0.27)"><title>RW-8</title></path>
    <path id="RW-3" class="cls-1" d="M173.5,259.44l-.58.72-1.21,1.26-.88.7-1.77-.49c0-.24.3-.21.32-.21s-.48-.34-.73-.46l.91-1,.23-1.4h1.46l.73-.73Z" transform="translate(-0.16 -0.27)"><title>RW-3</title></path>
    <path id="RW-2" class="cls-1" d="M175.29,257.6l-1.08,1-.71.88L172,257.83l-.73.73h-1.46l-.23,1.4-.91,1c-.37-.2-.82-.44-.86-.44s-1.26-.85-1.33-.85a5.18,5.18,0,0,1-.56-.29l1.43-1.55.21-.87,1.67-.4,1.21.27,1.56-.43,2.82-.08Z" transform="translate(-0.16 -0.27)"><title>RW-2</title></path>
    <path id="RW-1" class="cls-1" d="M137.51,293c0-.06-.58-.17-.6-.23s-.2,1.65-.23,1.65-.65.43-.65.43l-.4-1.78L135,291.7l-1.12-1-1.43.22-.82.75-1.06,1.58-.22,1.43a13.5,13.5,0,0,0,.32,1.4,2.22,2.22,0,0,1,0,.85c0-.06-1.1.5-1.12.45a2.72,2.72,0,0,0-.66.65c.08,0,.78.77.81.77a1.4,1.4,0,0,0,1,.61,3.7,3.7,0,0,0,1.88-.38,12.94,12.94,0,0,0,1.42-.45c0-.07,1.2-1.05,1.2-1.13s1.13-.53,1.13-.6,1.28-.09,1.28-.15.67-.75.67-.82-.13-1.45-.15-1.51Zm40.92-36.32c-.07-.37-.63-1.66-.88-2.79s-.66-3.94-.72-4.42c0,.59-2,1-2,1s-1.4.51-1.42.46-.77.9-.83.9-1.27,1.12-1.35,1.12-1.4.43-1.43.38-2.08.13-2.1.07-1.18-.62-1.2-.67-1-1.45-1.05-1.5l-.53-1.43c0-.06.1-1.22.08-1.28s.1-.92.07-1-.8-.47-.82-.53-1.48.51-1.5.45-.77,1.05-.83,1.05-1.78.73-1.8.68-2.08.35-2.1.3-1.41.28-1.43.22-1.11.73-1.13.68-1.48,1-1.5.9-1.63.66-1.65.6c-1.15.47-2.31,1.26-2.33,1.2s-.65,1-.67.9-1.18.81-1.21.75-.95.58-1,.53a4.2,4.2,0,0,0-.06,1,11.08,11.08,0,0,1,1,.85c0,.07.52,1.27.53,1.27l.53,1.06s.58.67.6.67l.52,1.2s.59,1.35.6,1.35,1.23,1.11,1.2,1a8.4,8.4,0,0,1,1.45.51l1.71-.35,1.27-.76.68-1.35,1.05-.82,1.5.67,1.28.75,1.43.08.82-1.43.75-1.35,1.43-.45s.24.15.5.29h0l1.43-1.55.21-.87,1.67-.4,1.21.27,1.56-.43,2.82-.08,1.58-.34.7.58,1.38.28Z" transform="translate(-0.16 -0.27)"><title>RW-1</title></path>
    <path id="RA-3" class="cls-1" d="M172.48,193.8c0,.08-.5,1.32-.5,1.4s-1,1.28-1,1.4-.33,1.43-.3,1.51-.13,1.42-.1,1.5-.43,1.42-.4,1.5-.3,1.52-.3,1.6-1,.22-1,.3-1.52-.48-1.5-.4-1.52-.48-1.5-.4-1.82-.48-1.8-.4-1.94-.38-1.91-.3-1.53-.08-1.5,0-1.7.32-1.7.4-1.62-.38-1.6-.3-1.13-.8-1.2-.8-1.23-1.2-1.3-1.2a9.06,9.06,0,0,1-1.18-1.22,6,6,0,0,0-1.13-1c0,.1-.82,0-.8.1s-.52,1.22-.5,1.3-.7,1.07-.7,1.2-.9,1-.9,1.1-1.8.42-1.8.5-1.7.52-1.7.6-2.21.72-2.21.8a9,9,0,0,1-1.38,1.38,7,7,0,0,0-1.42.42c0,.08-1.3.22-1.3.3s-.59-1.3-.6-1.3-.66-.8-.7-.8-1.82-.08-1.8,0-2.11.42-2.11.5-1.92-.28-1.9-.2-1.52-.7-1.5-.6-.78-1-.88-1a10.3,10.3,0,0,1-.82-1c0,.08-.92-.58-.9-.5s-1.24-1.1-1.3-1.1-.61-1.3-.61-1.3-.4-1.58-.4-1.61-.5-2-.5-2-2-1.3-2.1-1.3-2.32-1.2-2.3-1.1-1.12-1-1.1-.9-2.32-1-2.3-.9a2.81,2.81,0,0,1-.65-.24,30.13,30.13,0,0,1,4.12-2.57c.5,0,4-2.34,4-2.34l1.58-4.16,2.41-4,.59-2.54,1.36-1.59a31.1,31.1,0,0,0,4.31,1.42c.67,0,5.58,2.71,5.58,2.71l1.25,2.37,2.83,1.67h2.51l.43-5.22a3.14,3.14,0,0,1,.78.12c0,.08.88-.8.9-.7s.28-1,.3-.9,1.08-.78,1.1-.7,1.8-.2,1.8-.1,2,1,2,1.1,1.82,1.16,1.82,1.28,1.08,1,1.08,1.12l.4,1.7c0,.07.3.92.3,1a6.83,6.83,0,0,0-.08,1.28c.1.1.66.24.68.32s.78-.48.8-.4,1.57-.18,1.6-.1-.33.82-.3.9-.53.82-.5.9.47.92.5,1,.79-.48.81-.4,1.08.62,1.1.7-.42.92-.4,1-.2.92-.2,1,1,.52,1,.6,1.78-.48,1.8-.4,1.28.92,1.3,1,.88,1.24.9,1.31,1.18.52,1.2.6,1.47-.3,1.5-.2,1.59,0,1.61.1-.12,1.22-.1,1.3-.1,1.62-.1,1.7S172.46,193.72,172.48,193.8Z" transform="translate(-0.16 -0.27)"><title>RA-3</title></path>
    <path id="RA-2" class="cls-1" d="M135.6,159.51c1-.28,1.66-.9,1.52-1.41s-1-.69-2-.41-1.66.89-1.52,1.4S134.62,159.78,135.6,159.51Zm8.06-3.94.45.68,1-1.05.3-1.58-.52-1.13-1.11-.17-1.67.32.9,1.28Zm1.5,2.86a1,1,0,0,0,1,.83.85.85,0,1,0-1-.83ZM125,161a.86.86,0,0,0-.64.82,1,1,0,0,0,1.06.83A.85.85,0,0,0,125,161Zm21.18,9.33c0-.09,1.4-.81,1.4-.9s1.3-.32,1.3-.4.7-1.29.7-1.4-.68-1.62-.7-1.7-1-1.32-1-1.4-.68-.82-.7-.9a6.21,6.21,0,0,0-.08-1.22,10.47,10.47,0,0,1-1-1c0-.09-1.68.08-1.71,0s-1.68-.12-1.7-.2.43-1,.4-1.1-.08-1-.1-1.1-1.08-.72-1.1-.8-1-.62-1-.7-.68.88-.7.8-.08,1.6-.1,1.6-.27,1.3-.3,1.3-.74,1.11-.8,1.11-1.08.38-1.1.3-1.28.08-1.3,0-1.48-.52-1.51-.6-1.68.18-1.7.1-.88.78-.9.7-.78.88-.8.8-.31.27-.54.49l2.57,5.88-2.22,2.58a31.1,31.1,0,0,0,4.31,1.42c.67,0,5.58,2.71,5.58,2.71l1.25,2.37,2.83,1.67h2.51l.43-5.22a1.09,1.09,0,0,1-.42-.08c0-.08-.58.78-.6.7s-1.28.08-1.3,0-.78-1.12-.8-1.2-.48-1.32-.5-1.4.8-1.49.8-1.6S146.13,170.46,146.13,170.34Z" transform="translate(-0.16 -0.27)"><title>RA-2</title></path>
    <path id="RA-1" class="cls-1" d="M133.66,170l-2.22,2.58-1.36,1.59-.59,2.54-2.41,4-1.58,4.16s-3.5,2.34-4,2.34a30.13,30.13,0,0,0-4.12,2.57c-.24-.11-.46-.2-.46-.16s-1.92-1.4-2-1.4-1.14-1-1.2-1-1-1.3-1.1-1.3-.9-1.42-1-1.52a7.33,7.33,0,0,1-.12-1.48s.65-1.8.7-1.8,1.18-1.08,1.2-1,1.28-1.21,1.3-1.11.88-1,.9-.9.17-2.1.2-2.1.18-2.3.2-2.3.1-1.4.1-1.4a17.48,17.48,0,0,0,.43-1.73c0-.1.27-1.28.27-1.28l1.71-.1.7-1,1-1.6.3-1.3,1.6-.4,1.6-.2,2.14,0,3.68.42c0,.08,1.28-.78,1.3-.7s.12-.07.26-.21Z" transform="translate(-0.16 -0.27)"><title>RA-1</title></path>
    <path id="NI-AL" class="cls-1" d="M111.6,247.43l-1.72.12-1.91-1.3-1.8-.8-.6,1.2-.1,2,.7,2,1.7,1.5,1.41.3,1.2,1s.62,1.38.62,1.48.6,2.1.58,2,1.12,1,1.1.9a10,10,0,0,1,1.32.38,8.73,8.73,0,0,0,1.58-.48c0-.08,1.83-.52,1.8-.6s1.33-.62,1.31-.7,1.62-.82,1.6-.9,1.12-.82,1.1-.9,1,.58,1,.5,1.12,2.08,1.1,2,1.32,1,1.3.9,1.43.08,1.4,0,1.93-.12,1.91-.2,1.42.08,1.4,0,.12,1.48.12,1.58.1,2,.08,1.93.12,2,.1,1.9-.38,1.88-.4,1.8-.48,2.38-.5,2.3.82,2,.8,1.91,1.62-.72,1.6-.8.62-1.23.6-1.31a4.38,4.38,0,0,1,1-.82c.1,0,1,.2,1,.12s.73,1.38.7,1.3.43,1.29.4,1.21,1.13.68,1.11.6,1,.78,1,.7,1.32,1.18,1.3,1.1.42.88.4.8,1.22.48,1.2.4.82.88.8.8.92-.42.9-.5.32-1.22.3-1.3.52-1.32.5-1.4,1.13,0,1.1-.1,1.53.68,1.51.6a5.13,5.13,0,0,1,1.22-.22,4.58,4.58,0,0,0,.88-1.08,5.67,5.67,0,0,1,1-1.13c.1,0,.5-1.3.78-1.78s1.42-.42,1.4-.5,1.43.58,1.4.5,1.23.78,1.2.7.43-.92.41-1-.38-1.62-.41-1.7-1-.72-1-.8-1.18-.92-1.2-1-.68-1.42-.7-1.5-1.08-1.42-1.1-1.5-.58-1.63-.6-1.71-.88-1.42-.9-1.5-.78-1-.8-1.1-1.28-.32-1.3-.4-2.18-.82-2.21-.9-1.08-.82-1.1-.9-.68-1-.7-1.1l-.7-2.51c0-.08-.38-1.82-.4-1.9s-1.08-1.72-1.1-1.8-1.68-1.52-1.7-1.6-1.88-.72-1.9-.8-2.59-1.32-2.61-1.4-1.58-.53-1.6-.6-1.28-.93-1.3-1-.58-1.72-.6-1.8-1-1.72-1-1.8-1-1.22-1-1.3-1.08-1.22-1.11-1.3-2.08.18-2.1.1-1.18.38-1.2.3-1.88.28-1.9.2-1.68-.12-1.7-.2-1.28-.72-1.3-.8-1.48-.32-1.51-.4-1.08,1-1.1.9-.08,1.48-.1,1.4.83,1.48.8,1.4,1.43.38,1.4.3,1.53.88,1.51.8-.28.88-.3.8-1.18.58-1.21.5-1.07.58-1.1.5a4.62,4.62,0,0,0-.58,1.28c.1,0,1.61.91,1.58.83s1,1.28,1,1.2-.18,1.08-.2,1-1.38.48-1.41.4-1.28.38-1.3.3-.88.78-.9.7-.78,1-.8.9-1.18.28-1.2.2a8.66,8.66,0,0,0-1.28.58Z" transform="translate(-0.16 -0.27)"><title>NI-AL</title></path>
    <path id="NT-1" class="cls-1" d="M153.51,234.22h-1.07l-.88,1.11V237l-1.59.71-2.94.4-.17,1.78h-2.42L142,238.51l.12-.8-.12-1.38-3.71.23V239l.72,2.25-1.86.75-1.89,1.31c-.28-.1-.51-.18-.59-.22h.05c.65.2-1.42-.86-2-1.21-.41-.16-1.4-.78-1.54-.78-.21-.38-1.2-1.87-1.2-1.91s-1.07-2.31-1.07-2.4-1.34-1.87-1.34-1.87a7.53,7.53,0,0,0-1.28-1.05c-.12,0-2.76.34-2.5.27a14.9,14.9,0,0,0-2.57.56,7.41,7.41,0,0,0-2.15-.33c-.34-.31-1.38-1.15-1.38-1.18s-1.33-1-1.33-1.07-1.6-1.93-1.6-2a3.93,3.93,0,0,0-.48-1.33,8.07,8.07,0,0,1-.46-2c.07,0,1-2.27,1.07-2.27s.6-2.27.67-2.27,1-1.73,1.07-1.73,1-2,1.06-2,1-1.46,1.07-1.46,1.93-1.87,2-1.87,1.87-1.34,1.87-1.34a6.25,6.25,0,0,0,1.87.35c.68,0,2.84-.48,2.94-.48s1.1-.54,1.2-.54.22-1.73.27-1.73.2-2.14.26-2.14-.19-1.49-.13-1.47-1.47-1.06-1.47-1.06l-1.47-.14c0,.06-1.86,1.3-1.86,1.34s-.72,1.71-.67,1.73-.57.92-.82,1.33h0c-.18,0-1.43,1-2,1.19a11.6,11.6,0,0,0-2.34.95.76.76,0,0,1-.55.16.73.73,0,0,1-.65-.82c.06-.73-.18-2-.13-2s.35-2.4.4-2.4-.2-2.29-.14-2.27.49-1.87.54-1.87.35-1.87.4-1.87.61-1.6.67-1.6.86-1.2.93-1.2.8-1.6.8-1.6a1.5,1.5,0,0,0,.68-1.06,7.43,7.43,0,0,0-1.21-2.14l-.27-1.74.46-1.78,2.08.71,1.47,1.2,1.6,1.21,1.2,3.07.8,1.73,1.6,1.2,2,2.14,2.54,1.18,2.21-.27,2.33-.51.93,1.2.67.93,2.27-.13,1.39-1,1.55-1.07,1.86-1.07,3-.39.06-.19s.68,1.7.74,1.72-.18,2.66-.13,2.67.62,1.86.67,1.87.75,2.13.8,2.14.2,1.44.26,1.46a9.32,9.32,0,0,1,0,1.19l-2.2,1.28a8.51,8.51,0,0,1-2.3,1.1c-.45-.08-1.66,2.63-1.66,2.63l.85,4.44.81,3.92,3,1.86v2.44Z" transform="translate(-0.16 -0.27)"><title>NT-1</title></path>
    <path id="NT-2" class="cls-1" d="M171.1,232.9l-1,.52L169,234.78l-.89-1.36-2.44.8-5.34,1.11-3.55-1.11h-3.27l-2.84-4.56v-2.44l-3-1.86-.81-3.92L146,217s1.21-2.71,1.66-2.63a8.51,8.51,0,0,0,2.3-1.1l2.2-1.28a2.38,2.38,0,0,0,0,.55c.06,0,.72.74,1.19.81a3.58,3.58,0,0,0,2.31.07,12.74,12.74,0,0,0,2.61-.3c.43-.12,1.94-.85,2-.85l1.72.89c.47.2.89,1.16,1.26,1.33.31.36.24,1.2.39,1.65a6,6,0,0,1-.71,2c-.35.44-1.54.52-2.18.44a6.28,6.28,0,0,0-1.61.66,4.83,4.83,0,0,0-.08,1.47,6.12,6.12,0,0,0,.51,1.93,3.85,3.85,0,0,0,1.58,1.12,10.43,10.43,0,0,0,2.59-.51c.06,0,.74-.94.8-.94s.85-.8.93-.8,1.29,1.73,1.34,1.74-.05,1.71,0,1.73-.32,2.13-.27,2.14.61,1.56,1.34,1.62,1.95.11,2,.12.35,1.32.4,1.33-.2,1.59-.14,1.6S170.69,232.4,171.1,232.9Z" transform="translate(-0.16 -0.27)"><title>NT-2</title></path>
    <path id="NT-3" class="cls-1" d="M178.58,248.44l-.36,1.83-.76.56c-.09-.67-.15-1.16-.16-1.16s-.8-.94-1.18-.48a3.29,3.29,0,0,1-1.29.69s-1.74.51-1.74.54S172,251.7,172,251.75a6.08,6.08,0,0,1-1.89,1.1c-.67.15-2,.41-2.6,0a3.81,3.81,0,0,1-1.11-1.22c0-.09-1.07-2.45-1.07-2.54s-.48-2.25-.48-2.39-1-.14-1-.14a22.48,22.48,0,0,0-2,1.34,23.18,23.18,0,0,1-2.62,1.29,17,17,0,0,0-2.94.11,12.22,12.22,0,0,1-1.92,1.26s-2.53,1.17-2.53,1.2-1.12.55-1.81.89c-.5.22-1,1.42-1.86,1.73a6,6,0,0,1-1.89.59,16.07,16.07,0,0,1-2.33-.72c-.54-.05-1.72-1.25-1.72-1.29s-1.14-3.29-1.18-2.83c0-.4-.29-2.24-.29-2.24s-2.63-2.85-2-2.59c.43.17-1.69-1.29-1.63-1.28s-1.15-.42-1.9-.71l1.89-1.31,1.86-.75-.72-2.25v-2.44l3.71-.23.12,1.38-.12.8,2.45,1.38h2.42l.17-1.78,2.94-.4,1.59-.71v-1.67l.88-1.11h4.34l3.55,1.11,5.34-1.11,2,4.89,4.33,3h2.78c.44,0,2.05,2.84,2.05,2.84Z" transform="translate(-0.16 -0.27)"><title>NT-3</title></path>
    <path id="NT-4" class="cls-1" d="M183.93,250.16l-1.37,1.06-.28.87-1.89-2-1.81-1.67L176.83,245s-1.61-2.84-2.05-2.84H172l-4.33-3-2-4.89,2.44-.8.89,1.36,1.11-1.36,1-.52c.27.34.51.62.53.63s.61,1.6.67,1.6a4.59,4.59,0,0,0,1.53.46,16.71,16.71,0,0,1,2.07.18,15.86,15.86,0,0,1,1.74.69c.05,0,2.09,1.49,1.72,1.36a5.21,5.21,0,0,0,1.49.7,6.61,6.61,0,0,1,1.68.79,11.64,11.64,0,0,0,.31,1.56c0,.07-.8,1-.8,1.07s-.6,1.19-.81,1.63c-.06.45-.57,2-.52,2s1.71,2.68,2.14,3.13S183.6,249.66,183.93,250.16Z" transform="translate(-0.16 -0.27)"><title>NT-4</title></path>
    <path id="NT-12" class="cls-1" d="M192.87,256.35c-.11.24-.86,1.46-1.11,2a10,10,0,0,1-1.51,3c-.73.71-1.59.13-2,.44s-.23,2-1,2.68c-.52.43-.85-.91-1.54-1.4l2.5-4.51-2-2.16h-1.33l-.65-1.51,2.27-1.19.8.86C187.23,254.47,193,256.11,192.87,256.35Z" transform="translate(-0.16 -0.27)"><title>NT-12</title></path>
    <path id="NT-11" class="cls-1" d="M188.21,258.56l-2.5,4.51c-.34-.23-.76-.26-1.34.22s-1.24.93-1.37.88c-.52-.19-1.05-.82-.31-1.87s1.53-2.68,1.74-2.92c.43-.49.11-.71-.22-.63a6.85,6.85,0,0,0-1.65,1.42v-1.61l.77-2.16h2.89Z" transform="translate(-0.16 -0.27)"><title>NT-11</title></path>
    <path id="NT-7" class="cls-1" d="M182.56,258.56v1.61c-.8.81-1.65,1.65-2.05,1.58-.74-.12-.6-1.36-.86-1.76,0,0,0,0,0,0l1.55-.74Z" transform="translate(-0.16 -0.27)"><title>NT-7</title></path>
    <path id="NT-6" class="cls-1" d="M181.18,259.22l-1.55.74c-.27-.37-.74-.32-.83-.37-.35-.21-.35-2.26-.35-2.41s-.11-.48-.19-.82l1.74-1.05Z" transform="translate(-0.16 -0.27)"><title>NT-6</title></path>
    <path id="NT-5" class="cls-1" d="M182.28,252.09l-.42,1.3h-.68L180,255.31l-1.74,1.05a19.2,19.2,0,0,1-.43-2.18c0-.23-.22-2.15-.37-3.35l.76-.56.36-1.83,1.81,1.67Z" transform="translate(-0.16 -0.27)"><title>NT-5</title></path>
    <path id="NT-10" class="cls-1" d="M186.51,253.7l-2.27,1.19-.24-.54-1.44-1h-.7l.42-1.3.28-.87,1.37-1.06a19.32,19.32,0,0,1,1.35,2.22h0Z" transform="translate(-0.16 -0.27)"><title>NT-10</title></path>
    <path d="M 184.73 256.13 183.24 256.13 182.12 255.71 180.22 256.29 179.84 255.04 181.02 253.12 182.4 253.12 183.84 254.08 184.08 254.62 184.73 256.13z" id="NT-9"><title>NT-9</title></path>
    <path d="M 183.24 256.13 183.17 256.13 182.4 258.29 181.02 258.95 180.22 256.29 182.12 255.71 183.24 256.13z" id="NT-8"><title>NT-8</title></path>
    <path id="NN-5" class="cls-1" d="M128.9,209.2c0,.08-.32,2-.3,2.85s-1.22,1.67-1.2,1.75-1.81.22-1.81.3-1.82-.38-1.8-.3-2.2.63-2.2.7-1.8,1.9-1.8,2-1.7,1.7-1.7,1.8-1.61,1.89-1.61,2-1.7,2.89-1.7,3-.42,2.83-.4,2.91-.7,1.66-.7,1.8a20,20,0,0,0,.72,2c.1.1,1.16,1.44,1.18,1.52s1.67,1.53,1.7,1.61-1.4.61-1.4.7-.6,1.67-.6,1.8,1.47,1.62,1.5,1.7,1.79.52,1.81.6.88.92.9,1-1.2.61-1.2.7-2.11.42-2.11.5.57,1.63.6,1.71,1.89,1.12,1.91,1.2-.6,1.48-.6,1.6-2.71.32-2.71.4-1.1,1.5-1.1,1.6-2.4.32-2.4.4a8.13,8.13,0,0,1-2.78.18,9.8,9.8,0,0,1-1.73-1.28c0,.08-1.2-.78-1.2-.7a10.42,10.42,0,0,1-1.88-.72,15.62,15.62,0,0,0-1.62-.58l-2.4.4-2.61.4-3,.3-1.8,1-.8,2.1-.58,2.79a13,13,0,0,0-1,1.22c0,.09-1.3.71-1.3.8s-.12,1.92-.1,2,.77,1.3.8,1.4,1.5,1,1.5,1.1l.71,1.81c0,.07,1,1.22,1,1.3s2.58-.08,2.6,0,1.7.2,1.7.3,0,1,0,1.1-.9,2.08-.9,2.2-.9,1.2-.9,1.3-1.4,1.8-1.4,1.9-.62,2.41-.6,2.51-.2,2-.2,2.1l-1.61.58H89.15l-4.48-1.12-1.23-1.77H81.56l-3.6-.56L74.67,268,74,266.22l-2.38-1.67-2.18-2.77L67,259.22,65.31,258l3.58-2.69,2.73-3.39,2.27-5,3.17.4,4.27-.4H85.1l3.23-3.43L92.89,240h4.33l4.11-3.46.89-4.34V229l-1.55,1.56L98.22,232l-1.51-1.44L98.56,229l-3-1.22-.12-2.11-.72-1.78c.16,0,.27,0,.27,0s.08-1.51.1-1.51,1.48-.68,1.5-.6.76-1.3.8-1.3l-.4-1.7s-1.18-2.1-1.2-2.1-1.18-2.31-1.2-2.31-.69-1.8-.7-1.8.17-1.4.2-1.4,2.2.22,2.2.3,2,.92,2,1,2.09.4,2.11.5,1.68-1,1.7-.9,1.6-1.5,1.7-1.5.41-1.35.5-1.49.36-.91.4-.91,1.38.72,1.4.8,1.47.12,1.5.2,1.59-1.38,1.61-1.3.73-1.1.8-1.1,1.38-1,1.4-.91.74-1.4.8-1.4,1.48.82,1.5.9,1.5,1.23,1.5,1.31,2-.28,2-.2.07,1.32.1,1.4.07,2.32.1,2.4-.3,2.32-.3,2.4,1,.7,1,.8,1.78-1,1.8-.9,2.28-1,2.3-.9,1.31-1.4,1.4-1.4.65-1.7.7-1.7,1-1.4,1.1-1.4,2-.18,2-.1,1.3.52,1.3.6S128.88,209.12,128.9,209.2Z" transform="translate(-0.16 -0.27)"><title>NN-5</title></path>
    <path id="NN-4" class="cls-1" d="M93.39,275.58c0,.08-1.8-.28-1.8-.2a10.71,10.71,0,0,0-2.31-1.3c-.8-.14-2.46-.52-2.43-.47s-2.87-.35-2.85-.3-1.82-1.23-1.8-1.13-1.6-1.05-1.58-1-2.81-.35-2.78-.3-1.72-.59-1.72-.6-2.33-1.06-2.33-1-3-.65-3-.6-2.15-.83-2.26-.83-2.17.68-2.17.68a11.16,11.16,0,0,1-2.08-.1c-.41-.26-.82-.52-1.24-.74V262.3l4-3.08,2.44,2.56,2.18,2.77L74,266.22l.67,1.78L78,269.11l3.6.56h1.88l1.23,1.77,4.48,1.12h2.63l1.61-.58C93.39,272.06,93.37,275.5,93.39,275.58Z" transform="translate(-0.16 -0.27)"><title>NN-4</title></path>
    <path id="NN-3" class="cls-1" d="M67,259.22l-4,3.08v5.39c-.27-.16-.54-.3-.81-.44,0,.06-1.82-.66-1.8-.6s-1.51.51-1.51.6-2.32,0-2.32.08a14.56,14.56,0,0,1-3.53-.53h0l2.16-3.36v-4.11l5.22-1.11,3.78-1,1.09.78Z" transform="translate(-0.16 -0.27)"><title>NN-3</title></path>
    <path id="NN-2" class="cls-1" d="M102.22,229v3.22l-.89,4.34L97.22,240H92.89l-4.56,3.48-3.23,3.43H81.33l-4.27.4-3.17-.4-2.27,5-2.73,3.39L65.31,258l-1.09-.78-3.78,1-5.22,1.11v4.11l-2.17-2.77L49.68,258l-.88-2.44H45.31l-1.09-2.8-4.37-4.2L37.78,243l-2.08.5L34.89,240l2-2.69,3.81-1,1.63-5.77c0,.08.9,1.53.9,1.6a35.32,35.32,0,0,0,1.8,3.31,19.44,19.44,0,0,0,3.31,3.1,26.88,26.88,0,0,0,2.72,1c.94.16,1.86.37,2.78.62,0,.08,1.37,1.63,1.4,1.71s1.19,1.22,1.21,1.3,2.38-.4,2.4-.3,3.08,0,3.1.1,3.09.22,3.11.3S66.3,241,66.36,241s1.24-1.5,1.3-1.5.94-1.7,1-1.7.86-1.5.9-1.5,0-2.28,0-2.2-.3-2.08-.3-2.11-.79-1.9-.8-1.9-.12-2.68-.1-2.6.85-2.4.9-2.4.17-1.2.2-1.2-1.42-.79-1.4-.71c0-.08-.1-1-.1-1.1,0,.08,1.62-.62,1.72-.62a13.21,13.21,0,0,1,1.88.22c0,.08,1.77-.08,1.8,0s1.69-.28,1.71-.2,1.58.12,1.6.2.75-1,.8-1,0-1.68,0-1.6,1.78.82,1.8.9,1.57,1.32,1.6,1.4,1.59.52,1.61.6,1.68,1.22,1.7,1.3.28,2.33.3,2.41.38,1.82.4,1.9,2.68.42,2.7.5.36-1.3.4-1.3.67-1.5.7-1.5,2-.68,2-.6,2.59-.67,2.61-.6a13.15,13.15,0,0,0,1.43-.19l.72,1.78.12,2.11,3,1.22-1.85,1.56L98.22,232l2.45-1.44Z" transform="translate(-0.16 -0.27)"><title>NN-2</title></path>
    <path id="NN-1" class="cls-1" d="M31.53,251.92a.85.85,0,1,0,1,.83A1,1,0,0,0,31.53,251.92Zm43.85,66.41a12.37,12.37,0,0,0-.48-2.17h0c0-.63.11-1.25.21-1.87a8.32,8.32,0,0,0,.27-1.2c-.06,0,.32-1.86.27-1.87s-1-2-1.07-2-1.15-1-1.2-1.06-1.28.14-1.28.14l-1,1.59-1.2.94.8,2.8.93,2.94.8,1.87,1.21,1.6,1.07,1.63,1.47.54.27-2.14ZM49.68,258l-.88-2.44H45.31l-1.09-2.8-4.37-4.2L37.78,243l-2.08.5L34.89,240l2-2.69,3.81-1,1.63-5.77c0-.08-1.08-2.12-1.1-2.2s-1.38-1.62-1.4-1.7-.88-1.22-.9-1.3-1.48,1.38-1.51,1.3-1.68.88-1.7.8-1.78-.12-1.8-.2-2.28-.22-2.3-.3-1.48,1-1.5.9-.85,1.7-.91,1.7-1,1.08-1,1,.23,1.58.23,1.68a11,11,0,0,0,1.48,1.33s-.26.8-.3.8-.56,1.7-.61,1.7-.55,1.6-.6,1.6-1.22,1.9-1.3,1.9-.08,1.7-.1,1.7.77.81.8.81,0,1.48,0,1.4.89,1.5.9,1.5,1.77,2.2,1.81,2.2,1.36,1.7,1.4,1.7,1.18,1.71,1.2,1.71,1.21.71,1.29.71-.26,1.89-.29,1.89-.27,2.2-.3,2.2.89,2.2.9,2.2,1.06,1.4,1.1,1.4,1.55,1.41,1.6,1.41,1.43.68,1.41.6,2.12.38,2.1.3,2.22.88,2.2.8,2,.08,2,0,2.13.38,2.11.3a20.37,20.37,0,0,1,1.82,1.78,7.46,7.46,0,0,0,1.4,1.1,11.49,11.49,0,0,0,2.6,1.52l2.16-3.36-2.17-2.77Z" transform="translate(-0.16 -0.27)"><title>NN-1</title></path>
    <path id="MA-3" class="cls-1" d="M287.33,42.11l-3-2.53-2.53-2.25c-.48.6-1.06,1.3-1.07,1.3s-1.22,1.06-1.25,1.06-1.21.72-1.24.72-1.41,1.24-1.43,1.24-2.73,1-2.74,1h-2.85S268,42.32,268,42.3s-2.65,0-2.66,0l-2.67.36c-.06,0-1.85,1-1.94,1s-.42.2-.91.47v5.23l5-2.38,3.11.91L270.44,50l5,1.33v-2l5.36-3h5.09l2.85-3.8ZM249.78,18.28l-1,1.37.68.68,1-.43.53-1ZM265.4,36.47l-1.45.69.9.61,1.2-1Zm-2,2.4-1.3.25-.3,1,1.58.15.9-.4.53-.9Zm-6.76-1.15-1.6-.06-.3.75.83.6.9-.14.9-.75Zm2.23,1.86-.5.28-.63.8.67.45a4.48,4.48,0,0,1,.64-.51v0A3.39,3.39,0,0,0,258.84,39.58Z" transform="translate(-0.16 -0.27)"><title>MA-3</title></path>
    <path id="MA-6" class="cls-1" d="M309.58,14.56l-.07-.75-.73-.17-1,.4v1.2l1,.15Zm4.13,1.28.53-.75,1.2-.68.37-1.05-.67-.3L314,13l-1.75.62-.5,1.95,1,1.05Zm-.9,2.72-1.65-1-.3,1.62.93.28ZM364.45,6.5s-1.92.71-2,.71-2.07.36-2.13.36a9.33,9.33,0,0,1-1.72,1.14,19,19,0,0,0-2,1.17s-1.74.54-1.78.54S353.08,11,353,11s-1.58,1.25-1.6,1.25-1.75.89-1.78.89-1.57.71-1.6.71a8.14,8.14,0,0,1-2.14.37,12.17,12.17,0,0,0-2,.16s-.34,1.42-.35,1.42-.33.86-.79,1.05a11.58,11.58,0,0,1-2.42.2s-.34,2.14-.35,2.14-.77,2.27-.95,1.71A15.09,15.09,0,0,0,337,18.42s.36-2.06.36-2.13-2.11.89-2.14.89l-2.13.18s-1.38.51-1.61,1.42-.5,1.07-.53,1.07l-1.07-1.43s-2.06.36-2.13.36a5.56,5.56,0,0,1-.54-1.78c-.22-1.24-2.3-1.23-2.31-1.25s-2.66.37-2.67.36-2.24.71-2.32.71-1.5,1.61-1.6,1-.34-2.59-.35-2.6-1.57.89-1.6.89-.35,2-.36,2-.17,1.6-.18,1.6l-2.13.18s-1.23,1.42-1.25,1.42l-2.31-.71a9.14,9.14,0,0,1-.89,1.25c-.39.36-1-1.92-1.78-2.14s-.7,1.26-.72,1.25.19,2,.18,2a11.54,11.54,0,0,0-1.42.54c-.86.37-1.77-2-1.78-2a1.67,1.67,0,0,0-.83,1.24,13.88,13.88,0,0,0,.29,2.32L300.5,24s-1.77-.16-1.78-.18A5.8,5.8,0,0,0,299.89,26c.39.29-.33.56-.89.71V30l1.11,3.14L302,34.66l1.11,2.46v3l1.07-.26v1.78l.71,1.42.71,1.78a6.1,6.1,0,0,1,.55,1.08c0,.18,1.24-.35,1.23-.36s.89-2.11.89-2.14.18-2.19.18-2.31,2.13-1.06,2.13-1.07,2.5-1.24,2.5-1.25,1.95-.16,1.95-.18,2.5-.34,2.5-.35,2.37.35,2.49.35l2,.36s1.74.53,1.78.53l1.43.54s1.07-2.28,1.07-2.32,1.6-2.46,1.6-2.49,1.6-1.75,1.6-1.78,2-1.59,2-1.6,2-.88,2-.89,1.78-.88,1.78-.89,1.06-2.28,1.06-2.31,1.6-2.27,1.6-2.32,1.43-2.11,1.43-2.13,2-1.77,2-1.78a17,17,0,0,0,1.39-1.15c-.18,0,1.42-1.43,1.41-1.44s1.78-1.58,1.78-1.6,1.6-1.23,1.6-1.25,1.46-.44,2.3-.63a5.28,5.28,0,0,0,2-1.5s1.61-1.05,1.61-1.07a2.52,2.52,0,0,0,1.62.21,6.16,6.16,0,0,0,1.76-.92s2.13-.7,2.13-.72,2.32-1.22,2.32-1.24A13,13,0,0,1,363,9a18.07,18.07,0,0,0,1.77-.54S364.46,6.51,364.45,6.5Z" transform="translate(-0.16 -0.27)"><title>MA-6</title></path>
    <path id="MA-5" class="cls-1" d="M296.91,24.1l-1.18-.7-.39,1.26.82.07ZM283.32,34l.75-1,.23-1.36-.88.43-1.6.85-2.25.15-2.26.15.46,1.28,1.35.18,1.65-.38,1.28.3Zm18.68.68-1.89-1.52L299,30V26.69c-.33.09-.62.15-.64.15l-1.42-1.07s-1.75,1.07-1.78,1.07-2-1.23-2-1.25-.35,1.61-.36,1.61-1.4,2.31-1.42,2.31-1.06,2-1.07,2l-2.14-.18c-.06,0-1.72.36-1.78.36s.19,2.14.18,2.13.71,1.74.71,1.78-1.89.36-1.95.36-2.79.53-2.85.53-.33.39-.71.84l2.53,2.25,3,2.53,1.41.42,3.82,1.14,2-2.56,3.13,4.9c0-.16,0-.25,0-.26s.19-2.48.18-2.49S300,41.5,300,41.48s2.14-1,2.14-1.07a6.06,6.06,0,0,1,.93-.27v-3Z" transform="translate(-0.16 -0.27)"><title>MA-5</title></path>
    <path id="MA-4" class="cls-1" d="M295.59,51.06a9.66,9.66,0,0,0,0,2.15,9,9,0,0,1,.35,2s.17,2.3.18,2.31-1.83,0-1.43.08l-2.13-.44s-2,0-2,0-2,.54-2,.54l-1.24-.89-1.07-1.07-2.14-.53s-2,.15-2,.17-1.25,1.75-1.25,1.78-.43.5-.82.93l-4.6-4.64V49.36l5.36-3h5.09l2.85-3.8,3.82,1.14,2-2.56,3.13,4.9c-.13.71-.49,2.69-.49,2.74S295.59,51.06,295.59,51.06Z" transform="translate(-0.16 -0.27)"><title>MA-4</title></path>
    <path id="MA-2" class="cls-1" d="M259.8,44.13v5.23l-3.24,2-1.85,4.2-3.27,5.23L244,61.85l-6.67-1.69-1.47-9.81,1.58-.82,4.1.53s3-1.77,3-1.77S247,47,247,47s4.09-.38,4.1-.36,3.12-.89,3.2-.89,3.32-.53,3.38-.53Z" transform="translate(-0.16 -0.27)"><title>MA-2</title></path>
    <path id="MA-1" class="cls-1" d="M220,51.51l.08-1.36-.66-.24-.66,1.22-.15.9.67.6Zm-2.78,2.77-.37-1.57a7.23,7.23,0,0,1-.66-.4,8.74,8.74,0,0,0-1.35.08l.58,1.29-.15,1.43-.83.75-1.57.68-1.35.75-.76.75,1.73.67,1.8.08,1.47-.83,1-1.8Zm58.27-.83v-2.1l-5-1.33-2.55-2.13L264.78,47l-5,2.38-3.24,2-1.85,4.2-3.27,5.23L244,61.85l-6.67-1.69-1.47-9.81-.62.31s-1.92.71-2,.71l-1.07-1.78s-1.71.53-1.78.53-.7,1.43-.71,1.43-2.06.53-2.14.53-1.59,2-1.6,2l1.25,1.6s-.88,2.14-.89,2.14-2.61.53-2.67.53-1,1.78-1.07,1.78l1.42,1.6,1.42,1.6-4.05-1.67s-2.3-.87-2.31-.89-1.75,1.78-1.78,1.78-.88,2.14-.89,2.14l1.07,1.78s1.24,2,1.24,2l1.43,1.78,2,2.67s.89,2.47.89,2.49a19.15,19.15,0,0,0,1.64,2.71c.55.61-1.28,1.75-1.29,1.74s-1,1.6-1.07,1.6-2.16,1.2-2.17,1.2-.57.9-.13,1.5a16.13,16.13,0,0,0,3,2.06s3.2-1.41,3.2-1.42H229l1.6.36,1.25,2.31s2-1.41,2-1.42,1.25-3,1.25-3,.53-3,.53-3,1.6-2.81,1.6-2.85-.34-2-.35-2,.9-2.48.9-2.48l1.59.34,1.31,1.43h2l.36,1.42-.18,1.75,1.25,1.25,2,1.17,1-1.17.71-2.49,2.14-2.5,2.49-.35s2.68-.35,2.86-.35h2.84l1.95.18s1.95.34,2.49-.18a5.1,5.1,0,0,0,.9-2s1.42-2.45,1.42-2.49,2.67-1,2.67-1.07,2.31-.87,2.31-.89,2,.2,2,.18a6.22,6.22,0,0,0,2.63-.42,4,4,0,0,0,.93-2.07s.19-2.48.18-2.49,2-1.59,2-1.6,1.78-1.58,1.78-1.6.29-.33.6-.68Z" transform="translate(-0.16 -0.27)"><title>MA-1</title></path>
    <path id="LO-2" class="cls-1" d="M291.36,155.18h0c0-.06.17-1.64.16-1.69s.18-1.24.17-1.3.12-1.24.12-1.29-.56-1.24-.57-1.3-.78-.73-.79-.78-1.06-.23-1.07-.29-1.23.23-1.23.17-1.07.23-1.07.17-1.13.62-1.13.57a5,5,0,0,0-.95.05l-1.81.34-1.75,1.07-.67.39.67,1s.46,1.29.46,1.35.21,1.24.22,1.24.51,1.52.51,1.57.33,1.41.33,1.41-.31.73-.33.73.58.68.62.68.69,1,.73,1a22.18,22.18,0,0,0,.23,2.7,14,14,0,0,1,.11,2.15s-.6,2.19-.62,2.19.34,1.13.84,1a6.8,6.8,0,0,0,1.3-.56c0-.06,1.18-1.07,1.18-1.13s1.07-.79,1.07-.84,1.19-1.08,1.19-1.13.39-1.58.39-1.63.67-1.22.67-1.3.45-.88.45-1,.51-1,.51-1.07.51-1.18.51-1.23-.11-1.53-.12-1.58S291.36,155.23,291.36,155.18Zm-54.65,21.68-.45-1.13.34-1.12.22-1.24-.84-1h-1l-1.64.34-.73,1.41.28,1.35.9,1.12.74,1.58,1.07.68,1.07.11.84-.86Zm6.21,18.95c0-.05-1.21.59-1.21.53s-.4.76-.45.76-.87.58-.9.52-.35-1.37-.37-1.43-.21-1.44-.23-1.5-.28-1-.28-1l-.92-.73a7.49,7.49,0,0,0-1.33.28,3.14,3.14,0,0,1-.85.69s.6,1.27.6,1.28a5.36,5.36,0,0,1,.78.8c0,.08.64,1.3.65,1.3s.82,1.28.83,1.28a5.71,5.71,0,0,0,.47.88,8.62,8.62,0,0,1-.32,1.59v1.06c0-.05,1.12-.18,1.12-.23s.55-1.22.53-1.28.32-1.29.3-1.35.68-.61.68-.67.9-.83.9-.9.45-.68.45-.76S242.94,195.86,242.92,195.81Zm16.79,21.85c0-.08-1.24-.76-1.24-.82h0c0-.05-.79-.9-.79-1a4.4,4.4,0,0,0-.79-.29l-1.18.12s-.17,1-.17,1a8,8,0,0,0,1.35.73,5.89,5.89,0,0,1,1,.79,7.75,7.75,0,0,0,1,.9c0-.05.9-.28.9-.34S259.71,217.74,259.71,217.66Zm30.93-.67a7.45,7.45,0,0,0-.93.36h-2l-1.58-.45a6.47,6.47,0,0,1-.61.67c-.06,0,.51,1.58.51,1.64a13.69,13.69,0,0,1,.16,1.57c0,.06.28,1.86.28,1.86s1.33,1,1.41,1,1.3.84,1.3.78,1.13.23,1.18.17a18.2,18.2,0,0,0,.28-1.8s-.67-1.58-.68-1.63-.11-1.41-.11-1.47.9-.39.9-.45.79-.56.79-.62.17-1.12.17-1.18S290.64,217.05,290.64,217Zm-8.82,35.76c0-.06-1.22-1.5-1.22-1.56h0s.79-2.31.79-2.36-.84-2.14-.85-2.2-1.74-2.36-1.74-2.42-1-2.2-1-2.25-1.12-1.86-1.13-1.92-1.34-1.58-1.35-1.63-1.23-.62-1.24-.68a9.37,9.37,0,0,0-1.06,0l-1.19.74-1.86.9-1.63.28.23,1.75.61,1.29-.95,1.52-.62,1.24-.28,2.48.39,1.57,1.35.51.4-.9v-1.45l1.23-.17s.85,1.12.85,1.18.44,2.2.45,2.2,2.14.39,2.09.39,1.29,3.66,1.35,3.66,1.1,3.21,1.12,3.21,2.09,2,2.09,2,2.08.56,2.08.51,1.12-1,1.12-1.07,1-2.43,1-2.48.45-1.86.45-1.91S281.83,252.81,281.82,252.75Zm-25.36-33.88h0a.85.85,0,1,0,1.05.83A1,1,0,0,0,256.46,218.87Zm-23.75-48.59c-.25-.15-.69.14-1,.65s-.32,1-.07,1.17.69-.15,1-.65S233,170.42,232.71,170.28Z" transform="translate(-0.16 -0.27)"><title>LO-2</title></path>
    <path id="LO-1" class="cls-1" d="M210.38,215.72c0-.06-1.48-1.08-1.5-1.13s-1.33-1.45-1.35-1.5-1-.85-1-.9-.58-1-.6-1.05-.35-1.38-.38-1.43-.73-.92-.73-.92l-1,.09.3,1.43a17.37,17.37,0,0,0,.92,1.48,16,16,0,0,1,.58,1.9s.3,1.25.3,1.28l.9,1.8a13.67,13.67,0,0,1,1.82.95,4.92,4.92,0,0,0,.88.7c0-.06,1.45.13,1.43.07a8.28,8.28,0,0,0,0-1.22h0A13.91,13.91,0,0,1,210.38,215.72Zm2-1.35h0a.64.64,0,0,0-.56.7.63.63,0,0,0,1.26-.08A.67.67,0,0,0,212.36,214.37Zm6.46-10.82h0s-.57-1.75-.6-1.8-.8-1.67-.82-1.73-.81-1.37-.83-1.42l-.6-1.35c0-.05-1.18-.63-1.2-.68s-1.56,0-1.58-.08c-.52.07-1,.16-1.55.28l-1.83.93-.75,1.72-1.2,1.13-.37,1.43a19.56,19.56,0,0,0,.32,2.15c.07,0,.43,2.5.43,2.58s.45,2.06.45,2.1.9,1,.9,1l.6,1.73s.37,1.24.37,1.28a8.48,8.48,0,0,1,1.11-.16s.9-1.19.9-1.28,1.35-.83,1.35-.9,1.15.68,1.2.68,1.51-.25,1.51-.3,1.27-1.58,1.27-1.66.63-1.59.6-1.65.25-1.9.23-2S218.85,203.66,218.82,203.55Z" transform="translate(-0.16 -0.27)"><title>LO-1</title></path>
    <path id="LU" class="cls-1" d="M377.57,373.19a.85.85,0,1,0,1.06.82A1,1,0,0,0,377.57,373.19ZM373,375.56c-1.59.42-2.79,1.11-2.67,1.56s1.5.45,3.09,0,2.78-1.12,2.67-1.56S374.6,375.14,373,375.56Zm-40.1,16.22-.72-1.6-1.42-1.25-1.59.37-.9,1.59,1.07,1.78.53,1.6-1.6.54-.89,1.6.89,1.42,2.31-.18,1.78-1.24,1.07-1.25-.18-1.78Zm50.08-27s-1.53-.24-1.56-.26-1.66-.58-1.7-.58l-1.93-.39s-.94-.37-1-.37-1.14.09-1.17.08-.73.64-.76.63-.35.9-.35.9h0l-.79,1.76-.67,1.6-.05,2.07v2.2s.67.77.67.82c.33.11.66.2,1,.28,0,0,.84-.66.81-.68s.15-1.25.12-1.26-.35-1.85-.38-1.86-.35-1.13-.38-1.14a14.36,14.36,0,0,1,.29-1.72,7.37,7.37,0,0,0,.81-.77s1.26.18,1.23.16l1.43.22s1.3-.41,1.27-.43.66,1.83.62,1.83-.29,1.56-.29,1.65a9.52,9.52,0,0,0,.38,1.39s1.52-.84,1.48-.85,1.09-1,1.06-1,1.17-1,1.14-1.05-.39-2-.39-2-.86-1.19-.89-1.2Zm-32.53-47.41-1.43-.19-1.64.41s-.49.6-.51.6-.71.41-.71.41h0l-1.25.19-1.11-.22-.7.25-1.2.8-.89.82-1.74.28-.23,1s.85,1.65.83,1.64,1.22.86,1.26.86,1.8,1.39,1.78,1.39.75,1.59.75,1.62.48,2,.51,2,1.2.6,1.18.6h1.43s.9-1.51.88-1.52.4-1.77.38-1.77a10.44,10.44,0,0,1,.83-1.87c.45-.79-1.38-1-1.4-1l-1.33-.19s.28-.7.26-.7.84-.5.82-.51.91-.72.89-.72.84-1.11.82-1.11l1.41-.16,1.95-.41s1.16-1.33,1.14-1.33-1-.76-1-.76Zm97.25-25.61a1.09,1.09,0,0,0-.92,1.24,1.09,1.09,0,0,0,2.17-.17A1.16,1.16,0,0,0,447.71,291.76Zm69.7-5.17c-1.11-.47-2.19-.41-2.41.12s.48,1.35,1.59,1.82,2.19.41,2.42-.12-.45-1.35-1.56-1.82Zm-9-18-2.69-.48-3.55.25-1.85,1.3-.3,2.25.3,2.41,2,1.05.75,1.73,1.43.9,1.88-1.51,1.58-.82,2.17-1.13,1.13-1.42.37-2.41-1-1Zm-33.1-28.31a17.74,17.74,0,0,0-1.91-.62c-.53,0-1.06,0-1.58-.11a4.71,4.71,0,0,0-.84.22c0-.06.17,3.1.16,3s1.57,1.89,1.57,1.83,2,1.24,2.09,1.3a4.41,4.41,0,0,0,1.23-.34s.34-2.36.34-2.42-.16-1.86-.17-1.91-.87-.91-.87-1Zm-28.69-28.36s-.39-1.17-.42-1.18l-1.52-.59-2.16-.38-1.95.31h0l-1.43.75-.63,2.66.17,1.64,1.65.43,2.45.5,2.66.05s1.09-2.4,1.09-2.44a15.12,15.12,0,0,0,.11-1.76Zm55-5.4,1.77.38.64-1.14-.85-1.78-.21-1.56-.89-.8-1.1-.45h0l-1.3.11v2l1,2Zm14-22.55a1.05,1.05,0,1,0-1.1,1h.1a1,1,0,0,0,1-1h0Zm-9.82-29.61c.67,0,1.21-.39,1.21-.87s-.54-.88-1.21-.88-1.2.39-1.2.88.53.86,1.19.86Zm-14-13.56a1,1,0,1,0,1,1,1,1,0,0,0-1-1Zm2,22.84c-.6.77-.7,1.69-.22,2.06s1.34,0,1.94-.73.7-1.7.22-2.06-1.37-.06-2,.75Zm-73-14.76c-.33.38-.1,1.13.53,1.69s1.39.71,1.73.33.1-1.13-.52-1.69-1.46-.71-1.83-.34Zm-4-.08c-1.25,0-2.25.59-2.25,1.32s1,1.31,2.25,1.31,2.25-.59,2.25-1.31-1-1.33-2.28-1.33Zm-1.52,22.86a1.3,1.3,0,0,0-.43,1.75,1.32,1.32,0,0,0,1.8-.15,1.11,1.11,0,1,0-.84-2.06A1.08,1.08,0,0,0,415.28,171.66Zm46.19-18.91,1.7.7.61-1.31-.1-2.1-.11-1.1-.87.08-2-.28-1.3,1.1.6,1.7Zm.6,19.82-1.7-.7H459l-1.42,1.62-.3,2.1,1.1,1.6,2.2.2,2.3-.4,1-2-.31-1.7Zm25.18-30.29-2.4-1.2-1.65-.15-1.5-.82-1.66-.45-1.65-1.51-2.1-.52-1.5.37.45,1,1.05.22,1.13,1.21,1,1.2.9.82,2-.3,1.2.45,1.07,1.18c.08.08.53,1.28.51,1.23s-.06,1.7-.08,1.65-.2,1.18-.22,1.12-1.26.81-1.28.76-.8.8-.82.75a9.6,9.6,0,0,0-.66,1h0l-1.15,2.42-.45,2.93.53,3.23,1.35,1.8,2.25,1.58,2.41-.15,1.65-.83-3.08-.45-2.85-1-1-1.35.3-1.8.83-2.78.82-2.18,1.43-1.57,2-.53,1.35-.3.67-1.65,1-2.25-.68-1.81ZM447,118.66s-1.41-.39-1.41-.39h0a11.5,11.5,0,0,1-1.47-.68s.35,1.35.34,1.3.62,1.4.62,1.35,1.07.73,1.07.67,1.19.34,1.18.29,1.3-.46,1.3-.51.4-.9.39-1-.67-.73-.67-.79A10.62,10.62,0,0,0,447,118.66Z" transform="translate(-0.16 -0.27)"><title>LU</title></path>
    <path id="KU" class="cls-1" d="M179.19,340.48a.59.59,0,0,0,.68-.46.58.58,0,0,0-.47-.68h-.21a.57.57,0,0,0,0,1.14Zm3.13,2.9a1.06,1.06,0,1,0-1,1.1A1.09,1.09,0,0,0,182.32,343.38ZM178,347.19a.85.85,0,1,0-1-.83A1,1,0,0,0,178,347.19Zm4.43,1.54c0-.68-.4-1.22-.88-1.22s-.88.54-.88,1.22.39,1.22.88,1.22.88-.55.88-1.22Zm0,3.73a.58.58,0,1,0,.57.59v0a.59.59,0,0,0-.57-.57Zm-4,1.13a.54.54,0,0,0-.4.64.53.53,0,0,0,1-.13.61.61,0,0,0-.62-.51Zm0,4.09-1-.63-1.12.13-.9.5h-1.2l-1.5.5.5,1-1,1.2v1.28l1,.9,1.3,1,.8,1.6.6.71.7-.91.3-1.6,1-.7,1.3.3.91-1.4v-1.7l-.71-1.4Zm-42.77,35.84c.08.15.15.07.22-.12C135.71,393.32,135.6,393.32,135.71,393.52Zm38.06-24s-1.4-.62-1.42-.68-1.48-.69-1.51-.75-1.25.66-1.27.6.17,1.41.15,1.36-.43,1.1-.45,1.05-1.48.43-1.5.37-.13-1.67-.15-1.73.17-1.59.15-1.65a14.5,14.5,0,0,0-1.13-1.43h-1.43s-1.48.35-1.5.3-1-.55-1.05-.6-1.18-1-1.2-1.06-1.56.21-1.58.15-2.23.06-2.25,0-1.33-.17-1.35-.22a7.4,7.4,0,0,0-1,1.48,6.33,6.33,0,0,1-1.67.32s-1.63-.09-1.65-.15-.66,1.11-.68,1.05-.2,1.26-.22,1.2a5.81,5.81,0,0,0,.09,1.18,2.51,2.51,0,0,1-.24.93c0-.06-1-.63-1-.68s-1.41-1.15-1.43-1.2-.88-.55-.9-.6-1.78.2-1.8.15-1.26.58-1.28.52-.8,1-.83.91-1.55.27-1.57.22-1.71.28-1.73.23-1.7.88-1.73.82-1.33,1.56-1.35,1.5-.35,1.71-.37,1.66,0,1.63,0,1.57-.06,1.63-.08,1.58-.28,1.55-.3,1.5-.5.81-.52.75-1.86-.24-1.88-.3-1,.51-1,.45a9.37,9.37,0,0,1-.37.9c0-.1.17,1.56.15,1.5s-.73,1-.75,1a9.75,9.75,0,0,1-1.21.15c0-.05-1.55-.47-1.57-.53s-1.26-.32-1.28-.37-2.15-.1-2.18-.15-1.78.35-1.8.3-1.48.2-1.5.15-1.1,1.63-1.13,1.58S120.05,386,120,386s-1.56,1-1.58,1-2.83.28-2.85.22-1.33.66-1.35.6a8.75,8.75,0,0,0-1.18.51h0l-1.45,1,.37,1.27,1.81,1.66.75,1,.9-.83,1.12-.45,1.13.68.9,1.35,1.13.45.67-1a6.51,6.51,0,0,1,.7-.69,4.2,4.2,0,0,0,1-.06l.63,1a7.74,7.74,0,0,0,.88.62c0-.06,1.14,0,1.12-.08s1.53-.47,1.5-.52.7-.32.68-.38a5.52,5.52,0,0,1,.92.51,4.34,4.34,0,0,0,1.26-.66c0-.05.7-1,.67-1.05s.93-.77.9-.83,1.38.36,1.36.3,1.07-.09,1-.15,1-1.29,1-1.35,1.45,0,1.43-.07.77,1.4.75,1.35a17.94,17.94,0,0,1-.3,2.06c.4.14,1.14.6,1.13.57s1.67-1.15,1.65-1.2,1.3-1,1.27-1.06a8.64,8.64,0,0,1,.33-1.59c.07-.08-1.13-1.2-1.13-1.28s-1.49-2.26-1.49-2.26-.58-2.42-.6-2.48-.51-1.82-.53-1.88.85-.77.83-.82,1.07.5,1,.45.32-1.6.3-1.65,1.75-.17,1.73-.23a10.07,10.07,0,0,1,1.82.13,4.57,4.57,0,0,0,1,.47s.85-.92.82-1,1.3-.7,1.28-.75.25-1.23.23-1.28.92-1.6.9-1.65,1.3.28,1.27.22,1.9.13,1.88.08.25-1.75.23-1.8,1-1.45,1-1.51,1.53-.54,1.5-.6.93,1,.9.9,1.6.73,1.58.68,1.07.43,1.05.37a2.63,2.63,0,0,0-.35.89,7.73,7.73,0,0,1-1.07,1.07,9.32,9.32,0,0,1,.52,1s2.5.43,2.48.38.85.58.83.52a9.43,9.43,0,0,0-1.33,1.11,4.76,4.76,0,0,1-.4,1.15c0-.06.85.95.82.9s1.15-.62,1.13-.68.7-1,.68-1,1.6,1.41,1.57,1.35,1.38.13,1.35.08,1.53-1.37,1.51-1.43,1.14-.47,1.12-.52,1.53,1.48,1.5,1.42.63-2.05.61-2.1.47-1.9.45-1.95,1.14.65,1.12.6,1.45,1.18,1.43,1.12,1.07.81,1,.75,1.22.43,1.2.38.17-1.45.15-1.5-1-.77-1.05-.83-.35-1.07-.38-1.12,1.68.43,1.66.37,1.14.81,1.12.75.7-1,.68-1.05,1-1.15,1-1.2.25-.92.23-1,.92-1.07.92-1.14-1.27-2-1.3-2.08-1.36-1-1.38-1ZM130.62,395.4a.85.85,0,1,0,1,.83,1,1,0,0,0-1-.86Zm9.91-12a.85.85,0,1,0,1.05.83,1,1,0,0,0-1.05-.87Z" transform="translate(-0.16 -0.27)"><title>KU</title></path>
    <path id="CK-4" class="cls-1" d="M399.19,84.41l-.76.32-2-.06-.45,1-.23,1.52.06,1.41.67,1.29,1.07-.34.85-1.29.62-1.07.62-1,.28-1Zm-8.14-.86.5-.68-.78-.56-1.41.22-.17.79.9.34Zm.6,2.19h0a12.93,12.93,0,0,1-1.46.91,10.48,10.48,0,0,0-1-1,8.66,8.66,0,0,1-.67-1c0-.1-.84-.5-.85-.56a10.1,10.1,0,0,0-.84.62l-.57.51-1.57.11-1.07.56,1.24.74.73.39-.17.73-1,.62-.57.85.4,1.85s1,1.3,1,1.35a2.17,2.17,0,0,0,.79-.22s-.05-1-.06-1,.51-.68.51-.74,1.3,1,1.29.91,1,.44,1,.39.57-.56.57-.62.45-1.86.45-1.91.73-1.13.73-1.19,1.58.45,1.57.4,1,.73,1.07.73.68-1.58.68-1.63.12-1.92.11-2-.56-.74-.56-.79S391.74,85.74,391.65,85.74Zm-13.17,2.33h0c0-.08-1.38-1.52-1.4-1.6s-.28-3.12-.3-3.2-.08-1.73-.1-1.81-.18-1.52-.2-1.6-1-1.42-1-1.5-1.28-.32-1.31-.4-1.38.28-1.4.2-1.48,1-1.5.9-.78,1.08-.8,1a17.66,17.66,0,0,0-1.58,1.28L367.53,83l-1.1,1.8-1.51,1.6-1.6,1.9-1.9,1.5-1.8,1.51-1.8,1.1-.71,2.4-.8,2.1-.6,2.4-.8,1.11-.8,2-1.4,1.4-1.2,1.5-1.9,1.4-1.61,1.5-1.5,1.91-.4,1.7-.1,1.8s1,1.28,1.13,1.38,1.15,1.52,1.17,1.52A15.81,15.81,0,0,1,349,118a7.14,7.14,0,0,0,1.38,1c0-.08,1.5-.71,1.5-.8s1.1-1.11,1.1-1.21,1.52.08,1.5,0,2-.62,2-.7,1.61-.91,1.61-1,1.2-1.1,1.2-1.2,1.2-2,1.2-2.1,1.2-2.09,1.2-2.2,1.4-.92,1.4-1,1.7-1,1.7-1.11,1.61-1.6,1.61-1.7,1.7-.81,1.7-.9,1.6-1.31,1.6-1.4.9-1.49.9-1.6.8-1.1.8-1.2,1.4,0,1.4-.1.83-.42.83-.52v-2c0-.09.53-1.52.5-1.6a9,9,0,0,1,1.23-1.52,7.41,7.41,0,0,0,.88-1.58c0-.08,1.6-.32,1.6-.4s.22-1.72.2-1.8.9-.91.9-1,1-1,1-1.1S378.5,88.15,378.48,88.07Zm-32-.22c0-.08-1.08-1.42-1.1-1.5s.7-.8.7-.9,1.53.78,1.5.7,1.73.28,1.71.2,1.5-.51,1.5-.6-.88-1.22-.9-1.3-1.48-1.13-1.51-1.21-1.58-.12-1.6-.2-1.58-1.62-1.6-1.7-.08-.26-.17-.52L340.56,83,339,85.19a3.73,3.73,0,0,0,.75.28l.5,1.7c.07,0,1.33,1,1.4,1s2,.28,2,.2,1.62.48,1.6.4,1,.58,1,.5S346.46,87.93,346.44,87.85Z" transform="translate(-0.16 -0.27)"><title>CK-4</title></path>
    <path id="CK-2" class="cls-1" d="M287.89,87.47v4.1a15.71,15.71,0,0,0-1.6.29c0,.08-2-.18-2-.1s-1.9.52-1.9.6-2.1.34-2.1.41-1.82-.19-1.8-.11-1.81.34-1.81.41-2.4.81-2.4.9-1-.66-1.09-.71c.1-.08.83-1.5.89-1.5s1.48-1.4,1.5-1.3,1.87-1,1.9-.9,1.89-.18,1.91-.1,1.48-.38,1.5-.3.08-1.11.1-1.11-.4-1.88-.4-1.89.55-1.2.6-1.2h0l3.11-.54Z" transform="translate(-0.16 -0.27)"><title>CK-2</title></path>
    <path id="CK-3" class="cls-1" d="M366.67,47.08l-1.36-.42-1.12.45-.48,1.32-1,.82-1.56-.17-1.22.92-1.07,1.66-.83,1.5L357,55l-1.27,2.4L357,58.79l1.3-.75,1.2-.9.75.3.75,1.12,1.36-.3,1.27-.67,1.58-.23,1.28-.75.52-1.88-.67-1.65-.53-1.72.68-1.13,1.05-.53,1.12-.15.45-1.2.15-1.12.68-.9-1.58.15ZM351.23,69.19s.26,1.12.27,1.12,1.07.34,1.07.29.34-1,.34-1l-1-1.41A11.79,11.79,0,0,1,351.23,69.19Zm-1.48,1.18-1-.23-1.19.85-.73,1.46v1.21l-1.63.74-.56.84,1.69.73L348,75.8l1.3-.62.78-1.46.85-1.35-1-.85Zm0-19.79s-.51-.75-.55-.76c-.25.12-.49.25-.73.39L347,51.72l-1,1.6-1.31,1-.84,1.06.68.84s2,1.28,2.05,1.33,1,.8,1,.83,1.1-.61,1.1-.64.63-.71.63-.76.59-1.36.59-1.43.51-1.2.51-1.27.59-1.12.59-1.18-.33-1.2-.33-1.21S349.81,50.59,349.78,50.58Zm43.43,4,.23.68,1-1-.56-1.13ZM377.06,36.1l.38,1.36.87.91,1-.3V36.41l-1.25-1ZM461.47,1.37l-.78-.82-1.32.32-.5.8,1.3,1,1.6-.4ZM398.88,48.69a6.13,6.13,0,0,0-.68.56,5.93,5.93,0,0,0,1,.77c.07-.13.56-.71.56-.77A10.4,10.4,0,0,0,398.88,48.69Zm.37,1.35,0,0v0Zm-46.1-36.2c0-.08-1.48,1-1.5.9s-1.68,1-1.7.9-2.08.48-2.11.4-1.28,1.28-1.3,1.2-1.31,1.2-1.4,1.2-1.41,1.4-1.5,1.4-1.78,1.28-1.8,1.2-1.61,1.51-1.7,1.51-1,1.5-1.11,1.5-1.32,1.9-1.4,1.9-1.33,2-1.4,2-.75,1.8-.8,1.8-.95,1.11-1,1.11-1.58.78-1.6.7-1.78,1.28-1.8,1.2-1.92,1.7-2,1.7-1.23,1.6-1.3,1.6-.85,2-.9,2-1.14,1.71-1.2,1.71-1.28.48-1.3.4-2.18-.53-2.2-.61-1.58-.42-1.61-.5-2.38-.62-2.4-.7-1.58.68-1.6.6-2.58,0-2.6-.1-2.08.48-2.11.4-1.78,1-1.8.91-1.48,1.18-1.5,1.1-.55,1.3-.6,1.3-.16,1-.2,1.09-.37,2-.4,2-.83,1.1-.9,1.1-1.18-1.22-1.2-1.3-.68-1.92-.7-2L303.9,42c0-.08.13-1.32.1-1.4s-.77-.42-.8-.5-1.08.78-1.1.7-1.38.78-1.4.7-1.58,1-1.6.9-1.18,1.38-1.2,1.3a5.45,5.45,0,0,0-.48,1.58,7.79,7.79,0,0,1,.18,1.52s-.36,1.5-.4,1.5-.65,1.71-.7,1.71-.74,1.2-.8,1.2-.46,1.6-.5,1.6.59,1.6.6,1.6.13,1.45.2,1.9a8.26,8.26,0,0,1,.1,1s-.35.8-.4.8-2.79-.73-2.81-.8-2.08.07-2.1,0-1.58.68-1.6.6a9.76,9.76,0,0,0-1.48-.21s-.78-.83-.8-.91-1.58-.92-1.61-1-1.88-.12-1.9-.2-1.58.18-1.6.1-.64,1.2-.7,1.2-.36,1.41-.4,1.41-1.18,1-1.2.9-1.38,1.08-1.4,1-1.58,1.28-1.61,1.2L279,65.81v4.33l1.76,2.91,0,4.46-1.25,5.43c.39.23,1,.61,1,.61s.53,1.26.6,1.4l3.11-.54,3.59,3.06v4.1a1.48,1.48,0,0,0,.51-.11,11.29,11.29,0,0,1,1.72,1.28,4.57,4.57,0,0,0,1.08.83c0-.08,1.8-.12,1.8-.2s2.1-.92,2.1-1,2-.42,2-.5,2.32.38,2.3.3,1.6-.52,1.6-.6,1.9-.91,1.9-1,2.53.68,2.51.6,2.32.58,2.3.5,1.7-1,1.7-1.1,2.4-1.11,2.4-1.2,1.61-1,1.61-1.1S315,87.06,315,87s2-.52,2-.6,1.5-.91,1.5-1,1.9-.61,1.9-.7,2.11-.53,2.11-.6,1.42-.43,1.42-.53,1-1.6,1-1.68,1.3-.12,1.3-.2,2.12,1.08,2.1,1a7.39,7.39,0,0,0,2.3,0,3,3,0,0,1,1.51,0c0-.08,1.82.48,1.8.4s2.11,1.31,2.2,1.31,2,.58,2,.5a4,4,0,0,1,.86.32l1.54-2.2L345,80.82c-.14-.41-.32-.93-.33-1s-.78-2.22-.8-2.3-2.28-.92-2.3-1-3-.72-3-.8,1.31-1.61,1.31-1.71,1.3-1.6,1.3-1.7,1.9-1.51,1.9-1.6,1-1.22,1-1.3-.68-2.22-.7-2.3,1.2-1.7,1.2-1.81,1.16-2.66,1.09-2.66.52-1.62.5-1.7,1-1.52,1-1.6.75-.76.25-1.08-.17-.33-1.08-.79a22.11,22.11,0,0,1-3-1.87c-.57-.46-2.49,1.11-2.51,1s-2.89.78-2.91.71-1.68,1-1.7.9-1.23,1.7-1.3,1.7-1.41,1.5-1.5,1.5-1.8,1.9-1.9,1.9-2.35,1.33-2.37,1.33-2.18,1.08-2.2,1-1.32,1.91-1.4,1.91-.75,1.6-.8,1.6-2,3.4-2,3.4-1.13,1.6-1.21,1.6-1,2-1.1,2-1.68,1-1.7.9-2.48,1.78-2.5,1.7-1.91,1.6-2,1.6a15.92,15.92,0,0,0-1.1,1.7,5,5,0,0,1-1.51,1.1,7.24,7.24,0,0,0-1.18.88,7.76,7.76,0,0,1-1.92.23c0-.08-1.48.68-1.5.6s-.75,1.9-.8,1.9-.84,1.4-.9,1.4-1.18.78-1.2.7-1.48-1.12-1.51-1.2-1.78-.22-1.8-.3-2.68.48-2.7.4-2.08.08-2.1,0-.08-1.72-.1-1.8.7-1.88.7-2,.8-2.28.8-2.41S296,81,296,80.87s-.78-1.22-.8-1.3,2.7-.72,2.7-.8.7-2,.7-2.1,1.5-2,1.5-2.11,1.1-1.5,1.1-1.6.32-1.72.3-1.8,2.2-1,2.2-1.1,1.71-.81,1.71-.9.52-1.72.5-1.8.52-2.93.5-3,.42-1.92.4-2,1-1.52,1-1.6,1.3-1.4,1.3-1.5a20.52,20.52,0,0,1,2.2-1.1,9.49,9.49,0,0,1,1.5-.3c0-.08,1.61-1,1.61-1.11s1.3-1.7,1.3-1.8,2.7-.91,2.7-1,2.2-.91,2.2-1,2.11-.91,2.11-1,1.8-.52,1.8-.6,1.6-1.31,1.6-1.4a20,20,0,0,1,1.59-1.29s.7-1.59.7-1.71.42-1.72.42-1.82,1.28-1.76,1.28-1.88,1.61-1.11,1.61-1.2.42-1.62.4-1.7a8.7,8.7,0,0,1,.92-1.73,15.83,15.83,0,0,0,1.79-2c0-.08,1.2-1.6,1.2-1.7a5,5,0,0,1,1.12-.92c.1,0,1.22-3.08.84-2.54.34-.65.84-1.56.84-1.65s.63-2.32.6-2.4.53-1.92.51-2,1.9-1.21,1.9-1.3,1.8-2.11,1.8-2.2,2.1-1.72,2.1-1.81,1.1-1.19,1.1-1.3,1.71-1.21,1.71-1.3,2.7-.32,2.7-.4A11.7,11.7,0,0,1,353.07,16a8.67,8.67,0,0,0,1.18-1.58c0-.08.12-1,.1-1.1S353.17,13.92,353.15,13.84Z" transform="translate(-0.16 -0.27)"><title>CK-3</title></path>
    <path id="CK-1" class="cls-1" d="M280.8,77.51l-1.25,5.43c-.2-.12-.36-.22-.36-.19s-2-.18-2-.1-.77-1-.8-1-1.15-1.1-1.2-1.1-1.62-.88-1.6-.8-1.22-.8-1.3-.8-2.22-.2-2.2-.1-2.61,0-2.61.1-3.3.12-3.3.2-2.8.82-2.8.9-1.51,1.4-1.51,1.5-.8,1.83-.8,1.9c-.41.28-.84.54-1.28.78-.1.11-1.92,1.73-1.92,1.83s-1.38.74-1.38.78-1.92.54-1.92.62-.6.9-.6,1l.5,1.8c0,.08.08,1.32.1,1.4s-1.3.42-1.3.5-2.41.13-2.41.2a10.64,10.64,0,0,1-1.78.28,15.38,15.38,0,0,0-1.62-.28c0,.1-.9,1.13-.9,1.21a6.61,6.61,0,0,1-.88,1.28c0-.1-.7-1.68-.72-1.68s-1.84-1.08-1.81-1-2.4.22-2.4.3-2.22-.38-2.2-.3-2.38-1.32-2.48-1.32a23.23,23.23,0,0,1-.52-2.48l.2-1.9.7-2.1.8-2,.6-2.1.7-1.5.8-1.9-.5-1.8.8-1.81,1.8.5,1.8.9,1.41.2.6,1.61-.4,1.8,1.4.9,1.8,1.5,1.1-1.4.6-2.3.7-1.8,2.51-1,3.2-.3,2.7-.1,3.31-.1,2.4.3,1-1.6,1.1-2.2,2.6-1.8,2.11-.9,3.42-.32a14.77,14.77,0,0,1,1.88-.18c.06,0,.74-1.21.8-1.21s.29-1.8.3-1.8,0-1.68,0-1.6.67-1.08.7-1L279,65.81v4.33l1.76,2.91Z" transform="translate(-0.16 -0.27)"><title>CK-1</title></path>
    <path id="BU-2" class="cls-1" d="M201.85,69.25l.15-.75-.87-.55-.7.55.67.82Zm-13.21-2.33,1-.53,1.2-.82,1.28-.83,1-.45.83-1.2.07-.83-.82.23-1,.52-1,.6h-2.86l-1,.83-1.28.82-.15.68,1.58.3Zm16-3.4v0c0-.06.83-.17.83-.23s.82-1,.82-1.12.55-1.07.53-1.13l-.3-.9a8.44,8.44,0,0,0-1.1.28c0-.07-1,.68-1,.62s-1.63.66-1.65.6.52,1.13.52,1.13S204.57,63.52,204.63,63.52Zm41.81,42.14c0,.06,0,.1.18.06S246.71,105.66,246.44,105.66Zm.72-1.14s-.07-1.59-.13-1.6v0l-1.33-.13c-.06,0-1.15-.66-1.28-.66h-1.79c-.06,0-1,1-1.07.94s.19-2.26.13-2.27.46-2,.4-2S243.16,97,243.16,97s1.07-1.66,1.07-1.74-.88-.92-.94-.93-.48-1.59-.53-1.61l-1.6-.8c-.1,0-1.65.54-1.74.54s-2.88-.12-2.93-.14-2-1.59-2-1.6-1-.79-1.06-.8-.08-1.72-.14-1.73-.08-1.33-.13-1.34-1,.8-1.07.8-.88-.52-.93-.53-.62-2.13-.67-2.14l-1.87-.53c-.06,0-1.39.53-1.47.53s-1.39.67-1.47.67-1.62.53-1.73.53L221.71,86c-.06,0-1.28-1.46-1.34-1.47s-1-1.72-1.06-1.73,1.33-.51,1.33-.54,1.34-.63,1.34-.67.85-1.85.8-1.86,1.33-.51,1.33-.54.59-.92.54-.93-1.28-1.46-1.34-1.47-.21-2-.27-2-.74-2.13-.8-2.14-1.41-.79-1.47-.8-.74-1.59-.8-1.6-1.32-1.56-1.37-1.56-.89-1.5-.89-1.51-.61-1.32-.66-1.34-1.79.57-1.56,1.29-.12,1-.18,1-.09-1.91-.71-1.81A6.41,6.41,0,0,0,213,67l-1.87-.14c-.06,0-1.68,0-1.73,0s-.35,1.6-.4,1.6-.48,1.61-.54,1.61-1.27.8-1.33.8-1.81-.66-1.87-.67.19,1,.13.93-.74,1.47-.8,1.47-1.68.15-1.73.13-.35,1.61-.4,1.61-.74,1.2-.8,1.2-1.63.27-1.74.27l-2.67-.14-2.58-.55c-.05,0-1.14-1.72-1.2-1.74l-1.6-.53s-1.26.8-1.33.8h-1.34c-.06,0-.61-1.59-.67-1.6s-1.68-.79-1.73-.8-1.41-.79-1.47-.8a12.34,12.34,0,0,1-2,.28c0-.14-1.2,1.2-1.25,1.18s-.21,1.61-.27,1.61.59,1.48.53,1.46,1.21.53,1.21.54,1.6-.89,1.6-.94l1.07.4s0,1.89,0,1.87a14.59,14.59,0,0,0,0,1.62c0-.14-.93.93-1,.92l-.57,0,2,2.21-.81,2.77L187.67,86l1.77-1,2.34,1.11.78,2.45,3.33,2.11h2.44l2.89,2.09v6.13l-.79,6.77-3,2.34,1.14,3.42.8,1.86L200,115l.54,1.33,1.6,1.74,2.54.4,2.13.67,1.6.4,2.14.16.13-2.43v-1.6l1.75.87,1.19-.34V115l-1.47-.94-.67-1.06,1.07-.54,1.47-1,.4-2,1.34-.4-1.34-1.87,1.34-.67H217l.8-1.74.8-.93,1.2-.13.67-1.34,1.2-1.73a10.07,10.07,0,0,1,1.26-.66c.13,0,1.41.26,1.41.26s1.47,1,1.47,1.06,1.6,1,1.6,1.07,1,.16,1.77.21a9.82,9.82,0,0,1,1.43.19s1.07,1.28,1.07,1.34,1.07,1.54,1.07,1.6l1.6.27,1.92-.12a13.37,13.37,0,0,1,1.68,1.32c0,.08.67,1.25.67,1.33a10,10,0,0,0,.4.93c0-.09.94-.87.94-.93s.59-1.72.53-1.73,1.6-1.15,1.6-1.2,2.06,0,2,0,1.67-.1,2.35-.09C246.44,105.29,247.16,104.57,247.16,104.52Z" transform="translate(-0.16 -0.27)"><title>BU-2</title></path>
    <path id="BU-1" class="cls-1" d="M151.58,96l-1.07.69,1,.83,1.2-.53-.15-1Zm5-2.76.52-1-2-.32-1.67-.13-1.51-.53h-1l.68,1L152,93.4l-.23.9,1,.37,1.43.68,1.8,1.13,1.2.07.37-1-1-1.13Zm41.75-2.53h-2.44l-3.33-2.11-.78-2.45L189.44,85l-1.77,1-1.81-1.56.81-2.77-2-2.21-1.43.1s-2.21.82-2.22.82l-1.69,1.28-.53,1.2-1.33,1.47-1.07,1.73-.67,2,.4,2.4.94,2,1.73,1.34,2.54.53,2.27-.27,2-.93,2.53.93,2.14.14,1.07,1.33L192,97.4l.26,2.27-.4,1.33h-3.6l-1.74.27,1.87,1.2,2.27.54h1.87l4,.66.8,1.34-.26,2,.33,1,3-2.34.79-6.77V92.76Z" transform="translate(-0.16 -0.27)"><title>BU-1</title></path>
    <path id="BA-1" class="cls-1" d="M39.86,214.3a.85.85,0,0,0,1.69-.17,1,1,0,0,0-1-.86l0,0A.85.85,0,0,0,39.86,214.3Zm-1.52-99.78a9,9,0,0,0,.51-.79,4.87,4.87,0,0,1-.17-1,6.75,6.75,0,0,0,1.18-.28s.79-.84.79-.9-.73-1.13-.73-1.18-.85-.23-.85-.28a3,3,0,0,0-.67-.06l-1,1s-.75,1.24-.79,1.24.61,1.86.62,1.86S38.34,114.58,38.34,114.52Zm2.28-5.92a.85.85,0,1,0-1-.83A1,1,0,0,0,40.62,108.6ZM2.71,177h0a.85.85,0,1,0-.3-1.67.84.84,0,0,0-.7.85A1,1,0,0,0,2.71,177Zm5.52,14.79a.85.85,0,1,0-1.05-.82A1,1,0,0,0,8.23,191.74ZM18.63,143l.9.16.18-1.12.17-1.07.84-.73.17-.79-1.74-.29-.57,1.19-.87,1.74-.17,1.36.56.16Zm46-64.65v0a.85.85,0,1,0-1-.83A1,1,0,0,0,64.62,78.37Zm-12.69,14h0a.85.85,0,1,0-.3-1.67.84.84,0,0,0-.7.85A1,1,0,0,0,51.93,92.33ZM1.29,192.94h0a.83.83,0,1,0,.79.87v0A.82.82,0,0,0,1.29,192.94Zm41-78.83a.85.85,0,1,0-1-.83A1,1,0,0,0,42.32,114.11ZM68.9,76.34a.85.85,0,1,0-1-.83A1,1,0,0,0,68.9,76.34ZM42.42,111.6a.85.85,0,1,0-.3-1.67.84.84,0,0,0-.7.85A1,1,0,0,0,42.42,111.6Zm2.17-4.06c0-.06,1.19.62,1.18.56s1-.11,1-.17a8.55,8.55,0,0,0,0-1.24,7.71,7.71,0,0,1,.06-1.18,6.92,6.92,0,0,1,1.18.34c.06-.17,1.13-.63,1.13-.68s.84-.39.84-.45.4-.9.4-1-.17-1.18-.17-1.23.56-.29.56-.34.73-.44.73-.51a2.17,2.17,0,0,1,.68-.34,8.49,8.49,0,0,0,.22-1c0-.06-.61-.23-.62-.29s-.68.79-.73.79-.9.45-.9.4-.33-1.13-.34-1.19-.39-.9-.39-1a5.79,5.79,0,0,0-.79.39L47.56,101l-.39,1.63a8,8,0,0,0-.45.68,11.46,11.46,0,0,1-1.41.22,5.56,5.56,0,0,1-1.07-.34s-.54,1.36-.56,1.36v2S44.55,107.54,44.59,107.54Zm5.29-10.68c.07,0,.78.52.83.52s1.43-.17,1.43-.22,1.37.35,1.35.3a14.15,14.15,0,0,1,1.22-.8,8,8,0,0,0,.82-1c0-.08,1.13-.1,1.13-.15s-.2-1-.22-1.06.09-1.29.07-1.35.83-.31.83-.37,1.37.35,1.35.3,1-.37,1-.45.68-1.34.68-1.43.52-1.4.52-1.5.68-1.19.68-1.28,1.37.06,1.35,0,1.35-.53,1.35-.6.75-.9.75-1,.68-1.41.68-1.51.67-1.19.67-1.27.9-1.42.9-1.5.9-1,.9-1.06.48-1.14.45-1.2-.35-1.07-.37-1.12a6,6,0,0,0-.8-.4l-1.22.4.23,1s-.43,1.4-.43,1.48a4.88,4.88,0,0,1-.77.92c0-.05-1,.58-1.06.53s-.8.88-.82.82-.56,1.5-.6,1.5-.83.76-.9.76-1.33,1-1.35,1-.7,1.35-.76,1.35-1.1,1-1.12.9a16.08,16.08,0,0,0-1.35,1.29s-1.42,1.42-1.51,1.42-1.4,2-1.47,2-1.92,1.15-2,1.15S51,94.75,51,94.7s-.8-.77-.83-.83S49.9,95,49.86,95,49.91,96.91,49.88,96.86ZM14.09,159.38a1.3,1.3,0,0,0-.6,2.53,1.31,1.31,0,0,0,1.57-1,1.27,1.27,0,0,0,0-.28A1.18,1.18,0,0,0,14.09,159.38ZM30,180.11a.85.85,0,1,0,.3,1.67.84.84,0,0,0,.7-.85A1,1,0,0,0,30,180.11Zm-15.14-29s-.52-.58-.55-.59-.55.63-.59.63-.68.84-.72.84-.81.38-.88.38-.82,0-.82,0l-1.13-1.2s-.14,1.58-.14,1.62-.42,2-.45,2-.47,1.69-.51,1.69.25,1.11.22,1.1.8.62.8.63,1-.86,1-.93,1.06-.4,1.06-.42.88.77.92.81a4.71,4.71,0,0,0,1-.51s.63-1.69.63-1.78.51-1.19.51-1.27-.35-1.93-.38-1.94S14.9,151.11,14.87,151.1Zm4.9,62.56-.4-1.8-1.1-.6-1.08-.12-1.32.32-.2,1.1.8,1.4,1.6.4,1.5.4.2,1.91.71.9,1.2-1.8-1-.9Zm12.6-87.32a4,4,0,0,0-.73.85,7.32,7.32,0,0,1-.57,1.07,8.11,8.11,0,0,1-.73.68s-.64.79-.67.79-1.13-.06-1.13-.12-.9-.56-.9-.62a6.72,6.72,0,0,0-.73-.56l-.28-1,.56-1.12-.85-.29-1.12,1.19-.28,1.63-.51,1.3v1.12l-1.46,1-1.26,1.63s-1,2.2-1.07,2.2a13.55,13.55,0,0,0,.17,1.41c0-.06,1.07.5,1.07.45s1,.5,1,.45v-1.47c0-.06.9-1.89.9-2s1.13-.51,1.13-.56.75.9.79.9a6.83,6.83,0,0,0,.11.79,10.44,10.44,0,0,0,.85-1.58s.67-1.18.67-1.24a18,18,0,0,1,2-.73,10.28,10.28,0,0,0,1.34-.39c0-.06.91-1.75.91-1.81s1-1.46,1-1.52.45-1,.45-1.07l0-1.2C33,126.46,32.43,126.4,32.37,126.34Zm7.15-9.82-1.07-.9-.9.11-.33.73-.4.79-1.07.73-1.18.4-.45,1,.56,1.69,1,.4,1-1.24.45-1.13,1.12-.84.85-.62Zm48.83-43a.84.84,0,0,0-.7.85,1,1,0,0,0,1,.82.85.85,0,1,0-.3-1.67ZM68.66,230.43s0-1.94,0-2,.53-2.61.53-2.67,0-.61,0-1.07l-1.86.82-2.83,1.22-3.89-.61-2.28-2.28,1.39-2.28L58.33,217l-1-.44-3.5-.43-.11.48L52,218.36l-.56.58-.66,1.67H48.52l-2.58-1.89-.27-1.15-.36-1.48-.55.09-2.14-.36-.71,1.78-.71,2.06L40.71,222l-.53,2-1.25,1.6,1.43.89,1.24,2.67,1.25,2.31.89,2S45,234.54,45,234.72a22.93,22.93,0,0,0,1.41,2.12s1.08,1.52,1.7,1.72a22.55,22.55,0,0,0,2.57.42l2.49.53L55,240.58s.71,1.95.71,2a5,5,0,0,0,1.56.92,7.06,7.06,0,0,0,2.36-.74s2.68.19,2.67.17a12,12,0,0,0,2.68.13c.53-.18,1.06-1.69,1.06-1.73s1.78-2.11,1.78-2.13,1.24-1.93,1.24-2,.89-2.28.89-2.32-.34-2.3-.35-2.31S68.67,230.45,68.66,230.43ZM8.23,196.77a1,1,0,0,0,1-.82h0a1.08,1.08,0,1,0-1.31.79A1.63,1.63,0,0,0,8.23,196.77Zm-4.61-15.4a1,1,0,0,0,1.09-.81h0a1.08,1.08,0,1,0-1.31.79A1.15,1.15,0,0,0,3.62,181.37ZM5.19,173v0a.68.68,0,0,0-.72.64.68.68,0,1,0,1.36.08v0A.66.66,0,0,0,5.19,173ZM5,192.35a1,1,0,0,0-1.39.08,1.11,1.11,0,1,0,1.57.08Zm5.06,10.49c-.93-.46-1.93-.35-2.22.25S8.08,204.54,9,205s1.93.34,2.23-.25S11,203.3,10.07,202.84ZM13.59,210a.85.85,0,1,0,1,.83A1,1,0,0,0,13.59,210Zm.35-46.22a.85.85,0,1,0,1.05.82A1,1,0,0,0,13.94,163.74Z" transform="translate(-0.16 -0.27)"><title>BA-1</title></path>
    <path id="BA-3" class="cls-1" d="M54.05,215l-.27,1.13-.11.48L52,218.36,49.53,217l-3.86.57-.36-1.48,1.58-.27,2.33-.7a6.66,6.66,0,0,0-.11-1h2.33Z" transform="translate(-0.16 -0.27)"><title>BA-3</title></path>
    <path id="BA-7" class="cls-1" d="M50.78,203.92v3.91H48.23c-.21-.36-1.43-2.14-1.43-2.2L45.2,205,42.93,204a5,5,0,0,0,.19-1.72c-.11-.27-.2-.54-.29-.81h4.34l1.35.91Z" transform="translate(-0.16 -0.27)"><title>BA-7</title></path>
    <path id="BA-8" class="cls-1" d="M52,199.18l-3.48,3.23-1.35-.91H42.83a11.64,11.64,0,0,1-.43-1.74c.06,0,.14-2.29,1.4-.57s1.89-.07,1.94,0,.87-.94.93-.93,2.09-.14,2.14-.13.59-1.21.66-1.21a2.65,2.65,0,0,0,.13-.62l1.84,2.21Z" transform="translate(-0.16 -0.27)"><title>BA-8</title></path>
    <path id="BA-6" class="cls-1" d="M62.22,210.8l-.5,4.2-3.39,2-1-.44v-2.21h1.39v-1.91l-3.84-.79h-6c0-.39-.31-1.62-.26-1.61s-.33-2.15-.27-2.14,0,0,0-.07h2.55v-3.91l-2.26-1.51L52,199.18h3.21l3.46-1.07,1.27,3.72-1.61,4.39v3.22Z" transform="translate(-0.16 -0.27)"><title>BA-6</title></path>
    <path id="BA-10" class="cls-1" d="M50.5,193c.52,0,.94-.23.94-.52s-.42-.53-.94-.53-1,.2-1,.49l0,0C49.56,192.75,50,193,50.5,193Zm2.8-.85a8.62,8.62,0,0,0-.43,1.48,10.36,10.36,0,0,1-1.79,1c-.06,0-1.26,1.06-1.34,1.06a2.66,2.66,0,0,0-.14.58l1.84,2.21,2.39-3.23.3-2.3Z" transform="translate(-0.16 -0.27)"><title>BA-10</title></path>
    <path d="M 59.78 194.73 57.95 196.45 56.06 196.45 56.45 194.45 55.52 193.8 57.67 192.76 59.78 194.73z" id="BA-12"><title>BA-12</title></path>
    <path id="BA-13" class="cls-1" d="M53.85,188.78a1.08,1.08,0,1,0,.56-2.08,1,1,0,0,0-.3,0,1,1,0,0,0-1,.8h0A1.08,1.08,0,0,0,53.85,188.78Zm3.67-1a4.26,4.26,0,0,1-.17.86c-.06,0,.46,1.48.4,1.47s.14,1.37-.36,1.33a21.08,21.08,0,0,1-2.44-.8c-.06,0-1-.52-1.07-.53S53.4,192,53.35,192l-.05.12h0l.83.85,1.55,1.09,2.15-1,1.89-2.47Z" transform="translate(-0.16 -0.27)"><title>BA-13</title></path>
    <path id="BA-14" class="cls-1" d="M66.06,186.66l-.84,1.67-1.39,1.17-.55,1.5-3.34,4-2.11-2,1.89-2.47-2.2-2.76a1.87,1.87,0,0,1,.1-.47c.05,0,.35-1.2.4-1.2s.07-1.47.13-1.47.57-1.62,1.27-1.82.78.87.83.88,1.2.69,1.47.51A17.2,17.2,0,0,0,63,182.81l2,2.08Z" transform="translate(-0.16 -0.27)"><title>BA-14</title></path>
    <path id="BA-16" class="cls-1" d="M80.21,184.83l-6,.56-3.89,3.68-5.06-.74.84-1.67L65,184.89l-2-2.08a1.87,1.87,0,0,1,.28-.29s2.07-.14,2.13-.13,1.13-1.87,1.2-1.87,1.55-1.07,1.61-1.07,1.23-.54,1.33-.54,1.14-.42,1.2-.4.09-1.6.14-1.6.35-1.2.4-1.2,1.54-.53,1.6-.53l2.4.26c.06,0,.94-.76,1.23-.51a10.33,10.33,0,0,1,.77,2l.38.26-.15,1.87.77,1.61-1.27,1.13Z" transform="translate(-0.16 -0.27)"><title>BA-16</title></path>
    <path id="BA-15" class="cls-1" d="M121.45,197.2c-.35.42-.75,1.48-1.47,2.42a3,3,0,0,1-1.2,1.07c0,.06-.53,2.27-.53,2.32s-.35,1.35-.48,1.78-.49,1.08-.77,1.6a7.12,7.12,0,0,1-1.9-.16,11.14,11.14,0,0,1-1.3-1.27s-1.61-.53-1.61-.53a15.15,15.15,0,0,1-1.44,1.86,18.94,18.94,0,0,1-1.76,1.17,8.65,8.65,0,0,1-.88,1.71c-.25.24-2.14-.13-2.14,0l-1.61-1.31c0,.06-.33,1.79-.46,2.15a16.33,16.33,0,0,1-1,1.59s-1.42,1.24-1.42,1.24a7.72,7.72,0,0,1-2.49.23c-.34-.21-1.61-1.29-1.61-1.29l-2.13-.89s-1.78.33-1.78.35.53,2.14.53,2.14l1.25,2.49c.06,0,1.06,2.31,1.06,2.31l1.43,1.78c0,.07-.22,1.2-.66,1.5a8.91,8.91,0,0,1-1.63.68c-.34.16-.45,1.37-.66,1.83s-2.19,0-2.75.11a9.83,9.83,0,0,0-1.92.89,20.27,20.27,0,0,1-2.17.69,17.18,17.18,0,0,1-.2,2.15c-.11.45-1.6.55-2,.09a10.32,10.32,0,0,1-1-1.53s-.35-2.12-.17-2.12-.55-1.8-.55-1.79l-2-.89-2.5-1.07-1.06-.89s-1.07.33-1.07.35-.11,1.52-.76,1.6-3,0-3,0H70.79l-2.31-.18S68,223,68,223l1.24,1.25v.53l-1.86.82-2.83,1.22-3.89-.61-2.28-2.28,1.39-2.28L58.33,217l3.39-2,.5-4.2-3.89-1.36v-3.22l1.61-4.39-1.27-3.72-.56-1.39L59.94,195l3.34-4,.55-1.5,1.39-1.17,5.06.74,3.89-3.68,6-.56,2.12.84L86.8,188h3.14l3.12-.59,7.72-1.72,4.89.44,2.27-2.38,1.56.75,1.28,1.19,1.17-.22a7.07,7.07,0,0,0,.4.78c.05,0,1.8,1.86,1.86,1.86s2.61,2,2.67,2,2.76,1.06,2.81,1.07,0,2.12,0,2.13.34,1.87.4,1.87S121.8,196.78,121.45,197.2Z" transform="translate(-0.16 -0.27)"><title>BA-15</title></path>
    <path id="BA-17" class="cls-1" d="M86.07,169l0,0a.85.85,0,1,0-1-.83A1,1,0,0,0,86.07,169Zm30,3c-.06,0,.49-2.24.2-2.37s-1.61.92-1.67.91a10.73,10.73,0,0,1-1.64,1.11c-.42.09-3.91,0-4,0l-3.07-.26-3.21-.8s-1.94-1.19-2-1.21-1.4,1.61-1.47,1.61-2,1.26-2.44,1.41-1.24-.33-1.29-.35.59-2.39.53-2.4,2-1.41,2-1.47-.14-1.12-.4-1.33-1.41-1.32-1.47-1.34a4.76,4.76,0,0,0-1.61.48,11.38,11.38,0,0,0-.52,1.12c-.06,0-.6,1.07-.67,1.07l-2.14-.67s-2.08,1-2.13.94-.61,2-.67,2-.88,1.74-.93,1.74-.48.93-.54.93-1.4.94-1.46.94-.08,1.6-.14,1.6-.87.53-.93.53-.88-1.72-.94-1.73-1.54-.79-1.6-.8-1.77.4-1.87.4-1.39,1.06-1.47,1.06.33,1.89.27,1.87.32,1.22.27,1.2-.86-.6-1.36-.94l-.15,1.87.77,1.61-1.27,1.13,3.15,3,2.12.84L86.8,188h3.14l3.12-.59,7.72-1.72,4.89.44,2.27-2.38,1.56.75,1.28,1.19,1.17-.22c-.24-.51-.51-1.08-.54-1.09s.32-2.39.27-2.41,1.73-2.57,1.73-2.67,1.47-.8,1.79-1.34a10.21,10.21,0,0,0,.35-3.06C115.49,174.88,116.14,172,116.08,171.94Z" transform="translate(-0.16 -0.27)"><title>BA-17</title></path>
    <path d="M 58.51 197.84 55.05 198.91 51.84 198.91 51.28 198.24 53.67 195.01 55.17 196.45 57.95 196.45 58.51 197.84z" id="BA-9"><title>BA-9</title></path>
    <path d="M 56.45 194.45 56.06 196.45 55.17 196.45 53.67 195.01 53.97 192.71 55.52 193.8 56.45 194.45z" id="BA-11"><title>BA-11</title></path>
    <path id="BA-4" class="cls-2" d="M54.83,211.65,54.05,215l-2.61-.87H49.11c0-.16-.07-.32-.11-.48a6.27,6.27,0,0,1-.19-1.88s0,0,0-.12Z" transform="translate(-0.16 -0.27)"><title>BA-4</title></path>
    <path d="M 58.51 212.17 58.51 214.08 57.12 214.08 57.12 216.29 53.62 215.86 53.89 214.73 54.67 211.38 58.51 212.17z" id="BA-5"><title>BA-5</title></path>
    <path d="M 51.84 218.09 51.28 218.67 50.62 220.34 48.36 220.34 45.78 218.45 45.51 217.3 49.37 216.73 51.84 218.09z" id="BA-2"><title>BA-2</title></path>
  </g>
</svg>