<svg id="svgdata" xmlns="http://www.w3.org/2000/svg" viewBox="0 0 519.14 397.82">
  <defs>
    <style>

      .cls-2 {
        fill: #d32626;
      }

      .cls-3, .cls-4, .cls-5, .cls-6, .cls-8 {
        isolation: isolate;
      }

      .cls-3, .cls-4, .cls-6, .cls-8 {
        font-size: 10.35px;
        fill: #fff;
        font-family: Arial-BoldMT, Arial;
        font-weight: 700;
      }

      .cls-4 {
        letter-spacing: -0.12em;
      }

      .cls-6 {
        letter-spacing: -0.07em;
      }

      .cls-7 {
        letter-spacing: -0.04em;
      }

      .cls-8 {
        letter-spacing: -0.04em;
      }

      .cls-9 {
        letter-spacing: -0.02em;
      }
      * {
         -webkit-user-select: none; /* Safari */        
         -moz-user-select: none; /* Firefox */
         -ms-user-select: none; /* IE10+/Edge */
         user-select: none; /* Standard */
      }
      text, text * {
         pointer-events: none;
      }
    </style>
  </defs>
  <g id="outlines">
    <path id="TA" class="cls-1" d="M201.35,244.73c-.17-.21-.84,0-1,0a13.62,13.62,0,0,1-1.08,2.44c-.26.32-1.75,2.2-1.76,2.19s-2.12.54-2.13.53-2.36-.44-1.23-.66,2,0,2-.78-1.66-3.17-1.49-3.17a18.38,18.38,0,0,0-1.79-2.15l-2.13-1.6s-1.41-2.13-1.43-2.14-.52-2.3-.53-2.31-.25-1.68-.69-2a2.8,2.8,0,0,1-.39-2.65c.46-.52,2.52-.55,2.5-.57s.73-2.3.72-2.31.54-2.66.53-2.67-.17-2.12-.18-2.13-1-1.59-1.07-1.61l-1.42-1.95s.19-2.48.18-2.5,0-1.76,0-1.78l-1.6-1.06-1.78-.89s-.53-2-.54-2,.37-2.48.36-2.49a11.78,11.78,0,0,0,1.63-3.27,14,14,0,0,1,.86-2.61A9.73,9.73,0,0,0,189,202c0-.92-1.58-2.63-1.59-2.65l-2.85-1.24-3.38-2.33s-1.95-1.06-2-1.07l-1.6-2s.9-1.41.89-1.42l-1.78-.18a6.69,6.69,0,0,1-2.32-.89c-.71-.62-1.94-1.59-1.94-1.59l-.37,2.83.33,2.62-.69,1.3-.89,2-.71,3-.53,2.17h-2.85l-4.45-.89h-3.38l-2.85-.89-2.44-2.31-1.78-1.34-1.07,2.41-.89,1.43.36,2.49.18,2.49.71,1.6.53,2.67v1.57l1,1.64,4.37-.15,3.21-.77L162,213a19.3,19.3,0,0,1,1.61,2c0,.18-.71,3.2-.72,3.19s-2.31.55-2.32.53-1.77.55-1.78.54.37,2.68.36,2.67,1.56,1.21,2,1.5a4,4,0,0,0,2.44-.26,8.26,8.26,0,0,0,1.41-1.6l1.6,1.25s.19,2.32.18,2.31-.34,1.62-.35,1.6.36,1.08.35,1.07,1.73.89,1.21.84,2.18.95,2.36.95a9.37,9.37,0,0,1-.19,2.3s1.26.91,1.26,1.09.53,2.13.52,2.12,1.49.21,2.41.24a9.38,9.38,0,0,1,2.58.83,26.76,26.76,0,0,0,3.13,1.77,13.61,13.61,0,0,1,2.56,1.61s0,1.43.19,1.43-1.42,1.61-1.43,1.59-.49,3.23-.49,3.18l1.43,1.6a21.78,21.78,0,0,1,1.88,2.08c-.52-.39,1.86,3.45,1.85,3.44s2.06,1.87,2.21,2.14c.42,0,3.14.62,2.58.69s3.3-.08,3.82,0,1.55.41,1.73.41a10.9,10.9,0,0,0,1-2,16.1,16.1,0,0,1,1.82-1.58c.3-.12-.2-1.61-.2-1.79s.35-1.78.34-1.79,1.79-2.12,1.78-2.14S201.55,245,201.35,244.73Zm-13.3,10.35Zm12.2-10.45v.09s.09-.13.05-.09Zm-1-52.27a1,1,0,1,0-1-1,1,1,0,0,0,1,1Z" transform="translate(0.01 0)"/>
    <path id="SA" class="cls-1" d="M121.23,279.62c.22,0,.22-.09.09-.17C121,279.58,120.84,279.66,121.23,279.62Zm18.32-7.81c0-.08-1.28-.52-1.3-.6s-1.58-1.22-1.6-1.3-1.38-.92-1.41-1-.37-1.43-.4-1.51-1-1.32-1-1.4-1.18,0-1.2-.1-.68,1.28-.7,1.2-1,1.79-1,1.71-1.58-.32-1.6-.4-.48-1.43-.5-1.51.62-1.92.6-2,.32-3.22.3-3.3-.08-1.52-.1-1.6-.08-1.53-.1-1.61-.48-.92-.5-1-1.38.28-1.4.2-2.79.08-2.81,0-1.08-.72-1.1-.8-1-1.22-1-1.3-1.08-.62-1.1-.7-1.48.88-1.5.8-2,1-2,.9-1.48,1.08-1.51,1-2.78.28-2.8.2-1.38-.42-1.4-.5-.68-1.32-.7-1.4-1-1.82-1-1.9-1.48-1.22-1.5-1.3-2.09-.72-2.11-.8-1.38-1.43-1.4-1.5-.38-2-.4-2.11.12-1.72.1-1.8-.28-1.42-.3-1.5-1.28-.92-1.3-1-2.38,0-2.4-.1-1.68.38-1.71.3-2.08.48-2.1.4-1.68.28-1.7.2-2.08.18-2.1.1-1.08,1.28-1.1,1.2-.68,2.08-.7,2-.58,1.68-.6,1.6-.68,1.69-.71,1.61-.87,1.08-.9,1-.78,1.48-.8,1.4.32,2,.3,1.9,1.43.88,1.4.8.73,2,.71,1.9,1.32,1.89,1.3,1.81,2,.48,2,.4,2.12.28,2.1.2.42.88.4.8-.68,1.58-.7,1.5,0,1.78,0,1.7-1.28.88-1.3.8-1.08,1.38-1.1,1.3-.48,2-.5,1.91.12,1.78.1,1.7-.18,2.08-.2,2-.38,1.38-.4,1.3-.68,1.58-.68,1.58l2.48.62,1.3-.5,1.4.7.8,1.41,2.21.7h1.23s1.32,1.08,1.42,1.18a14.7,14.7,0,0,0,1.88,1c0-.08,2.33,0,2.3-.1s1.93.08,1.91,0,.12-1.62.1-1.7.92-.72.9-.8,1.22,1.28,1.2,1.2,1.22-.42,1.2-.5,1.52-1,1.5-1.1S116,279,116,278.9s1.53-.32,1.5-.4,1.33.28,1.31.2a11.6,11.6,0,0,1,2.59.73c.58-.22,1.72-.58,1.71-.63s2-.32,2-.4,2.93,0,2.91-.1a11.25,11.25,0,0,1,1.42.18H131a4.06,4.06,0,0,0,2.15,1.25,1.5,1.5,0,0,0,1.7-.9c0-.08,1.23-1.32,1.21-1.4s.62-1.53.6-1.61.72,1.28.7,1.21.92-1.33.9-1.41,1.12-1.72,1.1-1.8,1.12-.82,1.1-.9-.9-1-.9-1.11Zm-22.4,20.78a.85.85,0,0,0-.41,1.65.94.94,0,0,0,.41,0,.85.85,0,0,0,.41-1.65h0a.94.94,0,0,0-.41,0Z" transform="translate(0.01 0)"/>
    <path id="RW" class="cls-1" d="M178.27,256.39c-.07-.37-.63-1.66-.88-2.79s-.69-4.13-.72-4.46c.1.61-2,1.05-2,1s-1.4.51-1.42.46-.81,1-.83.9-1.33,1.18-1.35,1.12-1.4.43-1.43.38-2.08.13-2.1.07-1.18-.62-1.2-.67-1-1.45-1.05-1.5l-.53-1.43c0-.06.1-1.22.08-1.28s.1-.92.07-1-.8-.47-.82-.53-1.48.51-1.5.45-.81,1.11-.83,1-1.78.73-1.8.68-2.08.35-2.1.3-1.41.28-1.43.22-1.11.73-1.13.68-1.48,1-1.5.9-1.63.66-1.65.6c-1.15.47-2.31,1.26-2.33,1.2s-.65,1-.67.9-1.18.81-1.21.75-.95.58-1,.53a4.2,4.2,0,0,0-.06,1,11.51,11.51,0,0,1,1,.85c-.06,0,.55,1.33.53,1.27l.53,1.06c0-.06.62.73.6.67s.54,1.26.52,1.2.62,1.41.6,1.35,1.23,1.11,1.2,1a9.24,9.24,0,0,1,1.45.51h0l1.71-.35,1.27-.76.68-1.35,1.05-.82,1.5.67,1.28.75,1.43.08.82-1.43.75-1.35,1.43-.45s1,.58,1.07.58,1.35.9,1.33.85,1.37.73,1.35.67-.2,1.33-.22,1.28-.28,1.18-.3,1.13.24,1.25.22,1.2,1,1,1,.9,1.3.05,1.28,0,.92-1.6.9-1.65,1.22-1.45,1.2-1.51,1-.62,1-.67,1.53-.47,1.51-.53,1.14-1.07,1.12-1.12,1.75-.78,1.73-.83S178.4,257.12,178.27,256.39Zm-40.92,36.34c0-.06-.58-.17-.6-.23s-.21,1.71-.23,1.65-.65.43-.65.43l-.4-1.78-.63-1.37-1.12-1-1.43.22-.82.75L130.41,293l-.22,1.43a13.5,13.5,0,0,0,.32,1.4,2.43,2.43,0,0,1,0,.85c0-.06-1.1.5-1.12.45a2.72,2.72,0,0,0-.66.65c.08,0,.83.83.81.77a1.4,1.4,0,0,0,1,.61,3.7,3.7,0,0,0,1.88-.38,11.71,11.71,0,0,0,1.42-.45c0-.05,1.23-1.07,1.2-1.13s1.15-.54,1.13-.6,1.3-.09,1.28-.15.69-.77.67-.82-.13-1.45-.15-1.51Z" transform="translate(0.01 0)"/>
    <path id="RA" class="cls-1" d="M171.84,191.39c0-.08.12-1.62.1-1.7s.12-1.22.1-1.3-1.58,0-1.61-.1-1.48.28-1.5.2-1.18-.53-1.2-.6-.88-1.23-.9-1.31-1.28-.92-1.3-1-1.78.48-1.8.4-1-.52-1-.6.22-.92.2-1,.42-.92.4-1-1.08-.62-1.1-.7-.78.48-.81.4-.47-.92-.5-1,.53-.82.5-.9.33-.82.3-.9-1.58.18-1.6.1-.78.48-.8.4-.58-.22-.68-.32a6.83,6.83,0,0,1,.08-1.28c0-.08-.28-.93-.3-1l-.4-1.7c0-.08-1.08-1-1.08-1.12s-1.8-1.2-1.82-1.28-2-1-2-1.1-1.78.18-1.8.1-1.08.78-1.1.7-.28,1-.3.9-.88.78-.9.7-1.18-.12-1.2-.2-.58.78-.6.7-1.28.08-1.3,0-.78-1.12-.8-1.2-.48-1.32-.5-1.4.82-1.52.8-1.6.62-1.53.6-1.61,1.42-.82,1.4-.9,1.32-.32,1.3-.4.72-1.32.7-1.4-.68-1.62-.7-1.7-1-1.32-1-1.4-.68-.82-.7-.9a6.21,6.21,0,0,0-.08-1.22,9.44,9.44,0,0,1-1-1c0-.09-1.68.08-1.71,0s-1.68-.12-1.7-.2.43-1,.4-1.1-.08-1-.1-1.1-1.08-.72-1.1-.8-1-.62-1-.7-.68.88-.7.8-.08,1.68-.1,1.6-.28,1.38-.3,1.3-.78,1.19-.8,1.11-1.08.38-1.1.3-1.28.08-1.3,0-1.48-.52-1.51-.6-1.68.18-1.7.1-.88.78-.9.7-.78.88-.8.8-.78.78-.8.7-1.28.78-1.3.7l-3.68-.42H123.6l-1.6.2-1.6.4-.3,1.3-1,1.6-.7,1-1.71.1s-.27,1.18-.27,1.28A17.48,17.48,0,0,1,116,172c0-.08-.08,1.48-.1,1.4s-.18,2.38-.2,2.3-.18,2.18-.2,2.1-.88,1-.9.9-1.28,1.19-1.3,1.11-1.18,1.08-1.2,1-.68,1.88-.7,1.8a7.33,7.33,0,0,0,.12,1.48c.1.1,1,1.6,1,1.52s1.12,1.38,1.1,1.3,1.22,1.08,1.2,1,2,1.48,2,1.4,1.13.48,1.11.4,2.32,1,2.3.9,1.12,1,1.1.9,2.32,1.18,2.3,1.1,2.13,1.38,2.1,1.3.53,2.08.5,2,.43,1.69.4,1.61.63,1.38.61,1.3,1.32,1.18,1.3,1.1.92.58.9.5.72,1,.82,1,.9,1.1.88,1,1.52.68,1.5.6,1.93.28,1.9.2,2.13-.42,2.11-.5,1.82.08,1.8,0,.72.88.7.8.62,1.38.6,1.3,1.32-.22,1.3-.3a7,7,0,0,1,1.42-.42,8.62,8.62,0,0,0,1.38-1.32c0-.08,2.23-.72,2.21-.8s1.72-.52,1.7-.6,1.82-.42,1.8-.5.92-1,.9-1.1.72-1.12.7-1.2.52-1.22.5-1.3.83,0,.8-.1a5.67,5.67,0,0,1,1.13,1,9.06,9.06,0,0,0,1.18,1.22c0-.08,1.32,1.28,1.3,1.2s1.22.88,1.2.8,1.62.38,1.6.3,1.73-.32,1.7-.4,1.53.08,1.5,0,1.93.38,1.91.3,1.82.48,1.8.4,1.52.48,1.5.4,1.52.48,1.5.4,1-.22,1-.3.33-1.52.3-1.6.43-1.42.4-1.5.13-1.42.1-1.5.33-1.43.3-1.51,1-1.32,1-1.4.52-1.32.5-1.4S171.84,191.5,171.84,191.39ZM146.05,159a.85.85,0,1,0-1-.83,1,1,0,0,0,.95.83Zm-2.5-3.69.45.68,1-1,.3-1.58-.52-1.13-1.11-.17-1.67.32.9,1.28Zm-8.06,3.94c1-.28,1.66-.9,1.52-1.41s-1-.69-2-.41-1.66.89-1.52,1.4,1,.69,1.95.42Zm-10.23,3.15a.85.85,0,1,0-1.06-.83,1,1,0,0,0,1,.83Z" transform="translate(0.01 0)"/>
    <path id="NI" class="cls-1" d="M111.44,247.16l-1.72.12-1.91-1.3-1.8-.8-.6,1.2-.1,2,.7,2,1.7,1.5,1.41.3,1.2,1s.62,1.38.62,1.48.6,2.1.58,2,1.12,1,1.1.9a10,10,0,0,1,1.32.38,8.73,8.73,0,0,0,1.58-.48c0-.08,1.83-.52,1.8-.6s1.33-.62,1.31-.7,1.62-.82,1.6-.9,1.12-.82,1.1-.9,1,.58,1,.5,1.12,2.08,1.1,2,1.32,1,1.3.9,1.43.08,1.4,0,1.93-.12,1.91-.2,1.42.08,1.4,0,.12,1.48.12,1.58.1,2,.08,1.93.12,2,.1,1.9-.38,1.88-.4,1.8-.48,2.38-.5,2.3.82,2,.8,1.91,1.62-.72,1.6-.8.62-1.23.6-1.31a4.38,4.38,0,0,1,1-.82c.1,0,1,.2,1,.12s.73,1.38.7,1.3.43,1.29.4,1.21,1.13.68,1.11.6,1,.78,1,.7,1.32,1.18,1.3,1.1.42.88.4.8,1.22.48,1.2.4.82.88.8.8.92-.42.9-.5.32-1.22.3-1.3.52-1.32.5-1.4,1.13,0,1.1-.1,1.53.68,1.51.6a5.13,5.13,0,0,1,1.22-.22,4.58,4.58,0,0,0,.88-1.08,5.67,5.67,0,0,1,1-1.13c.1,0,.5-1.3.78-1.78s1.42-.42,1.4-.5,1.43.58,1.4.5,1.23.78,1.2.7.43-.92.41-1-.38-1.62-.41-1.7-1-.72-1-.8-1.18-.92-1.2-1-.68-1.42-.7-1.5-1.08-1.42-1.1-1.5-.58-1.63-.6-1.71-.88-1.42-.9-1.5-.78-1-.8-1.1-1.28-.32-1.3-.4-2.18-.82-2.21-.9-1.08-.82-1.1-.9-.68-1-.7-1.1l-.7-2.51c0-.08-.38-1.82-.4-1.9s-1.08-1.72-1.1-1.8-1.68-1.52-1.7-1.6-1.88-.72-1.9-.8-2.59-1.32-2.61-1.4-1.58-.53-1.6-.6-1.28-.93-1.3-1-.58-1.72-.6-1.8-1-1.72-1-1.8-1-1.22-1-1.3-1.08-1.22-1.11-1.3-2.08.18-2.1.1-1.18.38-1.2.3-1.88.28-1.9.2-1.68-.12-1.7-.2-1.28-.72-1.3-.8-1.48-.32-1.51-.4-1.08,1-1.1.9-.08,1.48-.1,1.4.83,1.48.8,1.4,1.43.38,1.4.3,1.53.88,1.51.8-.28.88-.3.8-1.18.58-1.21.5-1.07.58-1.1.5a4.62,4.62,0,0,0-.58,1.28c.1,0,1.61.91,1.58.83s1,1.28,1,1.2-.18,1.08-.2,1-1.38.48-1.41.4-1.28.38-1.3.3-.88.78-.9.7-.78,1-.8.9-1.18.28-1.2.2a8.66,8.66,0,0,0-1.28.58Z" transform="translate(0.01 0)"/>
    <path id="NT" class="cls-1" d="M149.62,200.86l-3,.39-1.86,1.07-1.55,1.07-1.39,1-2.27.13-.67-.93-.93-1.2-2.33.51-2.21.27L130.84,202l-2-2.14-1.6-1.2-.8-1.73-1.2-3.07-1.6-1.21-1.47-1.2-2.08-.71-.46,1.78.27,1.74a7.3,7.3,0,0,1,1.21,2.14,1.5,1.5,0,0,1-.68,1.06s-.74,1.61-.8,1.6-.88,1.22-.93,1.2-.62,1.62-.67,1.6-.35,1.89-.4,1.87-.48,1.89-.54,1.87.19,2.28.14,2.27-.35,2.42-.4,2.4.19,1.27.13,2a.73.73,0,0,0,.63.82h0a.78.78,0,0,0,.55-.16,11.6,11.6,0,0,1,2.34-.95c.74-.27,2.43-1.6,2-1.07s.92-1.43.87-1.45.72-1.72.67-1.73,1.92-1.32,1.86-1.34l1.47.14s1.53,1.08,1.47,1.06.19,1.49.13,1.47-.21,2.15-.26,2.14-.21,1.75-.27,1.73-1.15.55-1.2.54-2.25.45-2.94.48a6.25,6.25,0,0,1-1.87-.35s-1.81,1.35-1.87,1.34-1.94,1.88-2,1.87-1,1.48-1.07,1.46-1,2-1.06,2-1,1.74-1.07,1.73-.61,2.28-.67,2.27-1,2.28-1.07,2.27a8.07,8.07,0,0,0,.46,2,3.93,3.93,0,0,1,.48,1.33c-.06,0,1.66,2,1.6,2s1.39,1.08,1.33,1.07,1.88,1.55,1.42,1.25,2.54.25,2.06.27a15.24,15.24,0,0,1,2.68-.58c-.58.11,2.31-.26,2.44-.26a7.53,7.53,0,0,1,1.28,1s1.39,1.88,1.34,1.87,1.12,2.42,1.07,2.4,1.3,2,1.24,2c-.34-.37,1,.5,1.5.69.58.35,2.65,1.41,2,1.21s2.5.93,2.44.92,2.06,1.45,1.63,1.28c-.63-.26,2,2.6,2,2.59s.37,2.66.28,2.27c0-.62,1.24,2.81,1.19,2.8s1.17,1.24,1.72,1.29a16.07,16.07,0,0,0,2.33.72,6,6,0,0,0,1.89-.59c.87-.31,1.36-1.51,1.86-1.73.7-.35,1.86-.88,1.81-.89s2.59-1.19,2.53-1.2a12.22,12.22,0,0,0,1.92-1.26,16.57,16.57,0,0,1,3.15-.1c-1.07.2,1.91-.82,2.41-1.3a22.48,22.48,0,0,1,2-1.34c-.06,0,1,0,1,.14s.53,2.4.48,2.39,1.12,2.55,1.07,2.54a3.93,3.93,0,0,0,1.11,1.22c.62.41,1.93.15,2.6,0a6.08,6.08,0,0,0,1.89-1.1c-.05,0,1.13-1.32,1.07-1.33s1.79-.53,1.74-.54a3.29,3.29,0,0,0,1.29-.69c.38-.46,1.18.61,1.18.48s.55,4.16.53,4.51.48,2.35.62,3c0,.15,0,2.2.35,2.41.09.05.59,0,.85.4s.12,1.64.86,1.76,3-2.83,3.7-3c.33-.08.65.14.22.63-.21.24-1,1.87-1.74,2.92s-.21,1.68.31,1.87c.13.05.65-.31,1.37-.88,1.76-1.46,2.11,1.82,2.88,1.18s.59-2.37,1-2.68,1.27.27,2-.44a10,10,0,0,0,1.51-3c.25-.54,1-1.76,1.11-2s-5.64-1.88-5.56-1.79c.32.38-2.39-2.61-2-2.14a23,23,0,0,0-2.46-3.72c-.43-.45-2.09-3.12-2.14-3.13s.46-1.55.52-2c.21-.44.87-1.62.81-1.63s.86-1.06.8-1.07a11.64,11.64,0,0,1-.31-1.56,6.61,6.61,0,0,0-1.68-.79,5.21,5.21,0,0,1-1.49-.7c.37.13-1.67-1.34-1.72-1.36a18.51,18.51,0,0,0-1.74-.69,18.07,18.07,0,0,0-2.07-.18,4.59,4.59,0,0,1-1.53-.46c-.06,0-.61-1.59-.67-1.6s-1.41-1.73-1.47-1.74.19-1.59.14-1.6-.35-1.32-.4-1.33-1.27-.06-2-.12-1.29-1.61-1.34-1.62.32-2.12.27-2.14,0-1.72,0-1.73-1.28-1.72-1.34-1.74-.88.82-.93.8-.75,1-.8.94a10.43,10.43,0,0,1-2.59.51,3.85,3.85,0,0,1-1.58-1.12,6.12,6.12,0,0,1-.51-1.93A4.83,4.83,0,0,1,159,219a6.28,6.28,0,0,1,1.61-.66c.64.08,1.83,0,2.18-.44a6.21,6.21,0,0,0,.71-2c-.15-.45-.08-1.29-.39-1.65-.37-.17-.79-1.13-1.26-1.33L160.1,212c-.06,0-1.57.73-2,.85a12.74,12.74,0,0,1-2.61.3,3.58,3.58,0,0,1-2.31-.07c-.47-.07-1.13-.8-1.19-.81s.06-1.72,0-1.74-.21-1.45-.26-1.46-.75-2.13-.8-2.14-.62-1.86-.67-1.87.19-2.65.13-2.67-.74-1.72-.74-1.72Z" transform="translate(0.01 0)"/>
    <path id="NN" class="cls-1" d="M128.55,207.39c0-.08-1.28-.52-1.3-.6s-2,.18-2,.1-1.08,1.48-1.1,1.4-.68,1.78-.7,1.7-1.38,1.48-1.4,1.4-2.28,1-2.3.9-1.78,1-1.8.9-1-.72-1-.8.33-2.32.3-2.4-.07-2.32-.1-2.4-.07-1.32-.1-1.4-2,.28-2,.2-1.48-1.23-1.5-1.31-1.48-.82-1.5-.9-.78,1.48-.8,1.4-1.38,1-1.4.91-.78,1.18-.8,1.1-1.58,1.38-1.61,1.3-1.48-.12-1.5-.2-1.38-.72-1.4-.8-.38,1-.4.9-.48,1.58-.5,1.5-1.68,1.58-1.7,1.5-1.68,1-1.7.9-2.09-.42-2.11-.5-2-.92-2-1-2.18-.22-2.2-.3-.18,1.48-.2,1.4.72,1.88.7,1.8,1.22,2.39,1.2,2.31,1.22,2.18,1.2,2.1l.4,1.7c0-.08-.78,1.38-.8,1.3s-1.48.68-1.5.6-.09,1.63-.09,1.51-1.68.27-1.7.2-2.58.68-2.61.6-2,.68-2,.6-.68,1.58-.7,1.5-.38,1.38-.4,1.3-2.68-.42-2.7-.5-.38-1.82-.4-1.9-.28-2.33-.3-2.41-1.68-1.22-1.7-1.3-1.58-.52-1.61-.6-1.58-1.32-1.6-1.4-1.78-.82-1.8-.9,0,1.68,0,1.6-.78,1.08-.8,1-1.58-.12-1.6-.2-1.68.28-1.71.2-1.78.08-1.8,0a13.21,13.21,0,0,0-1.88-.22c-.1,0-1.7.7-1.72.62s.12,1.18.1,1.1,1.42.78,1.4.71-.18,1.28-.2,1.2-.88,2.48-.9,2.4.12,2.68.1,2.6.82,2,.8,1.9.32,2.19.3,2.11,0,2.28,0,2.2-.88,1.58-.9,1.5-1,1.78-1,1.7-1.28,1.58-1.3,1.5-1.28,2.39-1.3,2.31-3.07-.22-3.07-.3-3.08,0-3.1-.1-2.38.38-2.4.3-1.18-1.22-1.21-1.3-1.38-1.63-1.4-1.71c-.92-.25-1.84-.46-2.78-.62a26.88,26.88,0,0,1-2.72-1,19.44,19.44,0,0,1-3.31-3.1,35.32,35.32,0,0,1-1.8-3.31c0-.07-.88-1.52-.9-1.6s-1.08-2.12-1.1-2.2-1.38-1.62-1.4-1.7-.88-1.22-.9-1.3-1.48,1.38-1.51,1.3-1.68.88-1.7.8-1.78-.12-1.8-.2-2.28-.22-2.3-.3-1.48,1-1.5.9-.88,1.78-.91,1.7-1,1.08-1,1,.23,1.58.23,1.68a11,11,0,0,0,1.48,1.33c0-.08-.28.88-.3.8s-.58,1.78-.61,1.7-.57,1.68-.6,1.6-1.28,2-1.3,1.9-.08,1.78-.1,1.7.83.89.8.81,0,1.48,0,1.4.93,1.58.9,1.5,1.83,2.28,1.81,2.2,1.42,1.78,1.4,1.7,1.22,1.78,1.2,1.71,1.32.78,1.3.7-.28,2-.3,1.9-.28,2.28-.3,2.2.92,2.28.9,2.2,1.12,1.48,1.1,1.4,1.63,1.49,1.6,1.41,1.43.68,1.41.6,2.12.38,2.1.3,2.22.88,2.2.8,2,.08,2,0,2.13.38,2.11.3A20.37,20.37,0,0,1,49,263.91a7.46,7.46,0,0,0,1.4,1.1A11.56,11.56,0,0,0,53,266.53a14.56,14.56,0,0,0,3.53.53c0-.06,2.35,0,2.32-.08s1.53-.54,1.51-.6,1.82.66,1.8.6a19.8,19.8,0,0,1,2.05,1.18,11.16,11.16,0,0,0,2.08.1s2.2-.62,2.17-.68,2.28.88,2.26.83,3,.66,3,.6S76,270,76,270s1.75.65,1.72.6,2.8.35,2.78.3,1.6,1.1,1.58,1,1.82,1.18,1.8,1.13,2.88.35,2.85.3,1.63.33,2.43.47a10.71,10.71,0,0,1,2.31,1.3c0-.08,1.82.28,1.8.2s0-3.52,0-3.6.22-2,.2-2.1.62-2.43.6-2.51,1.42-1.82,1.4-1.9.92-1.22.9-1.3.92-2.12.9-2.2,0-1,0-1.1-1.68-.22-1.7-.3-2.58.08-2.6,0-1-1.23-1-1.3l-.71-1.81c0-.08-1.47-1-1.5-1.1s-.78-1.32-.8-1.4.12-1.92.1-2,1.33-.72,1.3-.8a13,13,0,0,1,1-1.22h0l.58-2.79.8-2.1,1.8-1,3-.3,2.61-.4,2.4-.4a15.62,15.62,0,0,1,1.62.58,10.42,10.42,0,0,0,1.88.72c0-.08,1.22.78,1.2.7A9.8,9.8,0,0,0,109,247a8.13,8.13,0,0,0,2.78-.18c0-.08,2.42-.32,2.4-.4s1.12-1.52,1.1-1.6,2.73-.32,2.71-.4.62-1.52.6-1.6-1.88-1.12-1.91-1.2-.58-1.63-.6-1.71,2.13-.42,2.11-.5,1.22-.62,1.2-.7-.88-.92-.9-1-1.78-.52-1.81-.6-1.48-1.62-1.5-1.7.62-1.72.6-1.8,1.43-.62,1.4-.7-1.68-1.53-1.7-1.61-1.08-1.42-1.18-1.52a17.65,17.65,0,0,1-.72-2c0-.1.72-1.72.7-1.8s.42-2.83.4-2.91,1.73-2.92,1.7-3,1.63-1.92,1.61-2,1.72-1.72,1.7-1.8,1.82-1.93,1.8-2,2.22-.62,2.2-.7,1.83.38,1.8.3,1.83-.22,1.81-.3,1.22-.92,1.2-1.75.32-2.77.3-2.85S128.55,207.39,128.55,207.39ZM74.74,315.89A11.89,11.89,0,0,1,75,314a8,8,0,0,0,.27-1.2c-.06,0,.32-1.86.27-1.87s-1-2-1.07-2a14.69,14.69,0,0,1-1.2-1.06,8.5,8.5,0,0,0-1.28.14h0l-1,1.59-1.2.94.8,2.8.93,2.94.8,1.87,1.21,1.6,1.07,1.63,1.47.54.27-2.14-1.07-1.73a12.94,12.94,0,0,0-.49-2.22ZM31.37,251.65a.85.85,0,1,0,1,.83A1,1,0,0,0,31.37,251.65Z" transform="translate(0.01 0)"/>
    <path id="MA" class="cls-1" d="M364.29,6.23s-2,.72-2,.71-2.12.37-2.13.36a9.87,9.87,0,0,1-1.72,1.14,19,19,0,0,0-2,1.17s-1.77.55-1.78.54-1.77.58-1.82.58S351.25,12,351.24,12s-1.77.9-1.78.89-1.59.72-1.6.71a8.14,8.14,0,0,1-2.14.37,12.17,12.17,0,0,0-2,.16s-.34,1.44-.35,1.42-.32.86-.79,1a11.58,11.58,0,0,1-2.42.2s-.34,2.15-.35,2.14-.77,2.27-.95,1.71a14.6,14.6,0,0,0-2-2.48s.37-2.12.36-2.13-2.13.9-2.14.89-2.12.19-2.13.18-1.38.5-1.61,1.42-.52,1.08-.53,1.07l-1.07-1.43s-2.12.37-2.13.36a5.56,5.56,0,0,1-.54-1.78c-.22-1.24-2.3-1.23-2.31-1.25s-2.66.37-2.67.36-2.3.73-2.32.71-1.5,1.61-1.6,1-.34-2.59-.35-2.6-1.59.9-1.6.89-.35,2-.36,2-.17,1.61-.18,1.6-2.12.19-2.13.18-1.24,1.43-1.25,1.42L310,20.33a9.14,9.14,0,0,1-.89,1.25c-.39.36-1-1.92-1.78-2.14s-.7,1.26-.72,1.25.19,2,.18,2a12.19,12.19,0,0,0-1.42.54c-.86.37-1.77-2-1.78-2a1.67,1.67,0,0,0-.83,1.24,13.88,13.88,0,0,0,.29,2.32l-2.68-1.06s-1.77-.16-1.78-.18a5.84,5.84,0,0,0,1.17,2.18c.62.45-1.52.87-1.53.86l-1.42-1.07S295,26.6,295,26.59s-2-1.23-2-1.25-.35,1.62-.36,1.61-1.41,2.32-1.42,2.31-1.06,2-1.07,2L288,31.08s-1.76.37-1.78.36.19,2.14.18,2.13.73,1.79.71,1.78-1.94.37-1.95.36-2.84.54-2.85.53-1.77,2.15-1.78,2.14-1.24,1.08-1.25,1.06-1.23.73-1.24.72-1.42,1.25-1.43,1.24-2.73,1-2.74,1H271s-3.19-.35-3.19-.37-2.65,0-2.66,0l-2.67.36c-.06,0-1.94,1-1.94,1s-3,1.61-3,1.6-3.37.55-3.38.53-3.19.91-3.2.89-4.09.37-4.1.36S244.41,48,244.4,48s-3,1.79-3,1.77l-4.1-.53-2.2,1.13-2,.71L232,49.32s-1.77.55-1.78.53-.7,1.44-.71,1.43-2.13.55-2.14.53-1.59,2-1.6,2l1.25,1.6s-.88,2.15-.89,2.14-2.66.54-2.67.53-1.06,1.79-1.07,1.78l1.42,1.6,1.43,1.61-4.06-1.68s-2.3-.87-2.31-.89-1.77,1.8-1.78,1.78-.88,2.15-.89,2.14l1.07,1.78s1.26,2,1.24,2L220,70l2,2.67s.9,2.5.89,2.49a19.15,19.15,0,0,0,1.64,2.71c.55.61-1.28,1.75-1.29,1.74s-1.06,1.61-1.07,1.6-2.16,1.2-2.17,1.2-.57.9-.13,1.5a16.13,16.13,0,0,0,3,2.06s3.21-1.41,3.2-1.42h2.8l1.6.36,1.25,2.31s2-1.41,2-1.42,1.26-3,1.25-3,.54-3,.53-3,1.62-2.84,1.6-2.85-.34-2-.35-2,.9-2.48.9-2.48h0l1.59.34,1.31,1.43h2l.36,1.42-.18,1.75L244,78.64l2,1.17,1-1.17.71-2.49,2.14-2.5,2.49-.35S255,73,255.15,73H258l1.95.18s1.95.34,2.49-.18a5.1,5.1,0,0,0,.9-2s1.43-2.47,1.42-2.49,2.68-1,2.67-1.07,2.32-.87,2.31-.89,2,.2,2,.18a6.22,6.22,0,0,0,2.63-.42,4,4,0,0,0,.93-2.07s.19-2.48.18-2.49,2-1.59,2-1.6,1.79-1.59,1.78-1.6,1.43-1.59,1.42-1.61,1.26-1.76,1.25-1.78,2-.16,2-.17l2.14.53,1.07,1.07,1.24.89s2-.52,2-.54,2,0,2,0l2.13.44c-.4-.1,1.44-.07,1.43-.08s-.17-2.3-.18-2.31a9,9,0,0,0-.35-2,9.66,9.66,0,0,1,0-2.15s1.62-2.3,1.61-2.31.54-3,.53-3,.19-2.48.18-2.49,2.14-1.77,2.13-1.78,2.15-1,2.14-1.07,2-.52,2-.53v1.78l.71,1.42.71,1.78a6.1,6.1,0,0,1,.55,1.08c0,.18,1.24-.35,1.23-.36s.9-2.13.89-2.14.19-2.3.18-2.31,2.14-1.06,2.13-1.07,2.51-1.24,2.5-1.25,2-.16,1.95-.18,2.51-.34,2.5-.35,2.5.37,2.49.35l2,.36s1.8.55,1.78.53l1.43.54s1.08-2.3,1.07-2.32,1.61-2.47,1.6-2.49,1.61-1.76,1.6-1.78,2-1.59,2-1.6,2-.88,2-.89,1.79-.88,1.78-.89,1.07-2.3,1.06-2.31,1.62-2.3,1.6-2.32,1.44-2.12,1.43-2.13,2-1.77,2-1.78a17,17,0,0,0,1.39-1.15c-.18,0,1.42-1.43,1.41-1.44s1.79-1.59,1.78-1.6,1.61-1.24,1.6-1.25,1.46-.44,2.3-.63a5.28,5.28,0,0,0,2-1.5s1.62-1.06,1.61-1.07a2.52,2.52,0,0,0,1.62.21,6.16,6.16,0,0,0,1.76-.92s2.14-.7,2.13-.72S361.11,10,361.1,10a13.11,13.11,0,0,1,1.74-1.24,18.07,18.07,0,0,0,1.77-.54S364.3,6.24,364.29,6.23Zm-50.74,9.34.53-.75,1.2-.68.37-1.05-.67-.3-1.14-.06-1.75.62-.5,2,1,1.05Zm-4.13-1.28-.07-.75-.73-.17h0l-1,.4V15l1,.15Zm3.23,4-1.65-1-.3,1.62.93.28Zm-15.9,5.54-1.18-.7-.39,1.26.82.07ZM279,34.39l1.65-.38,1.28.3,1.27-.6.75-1,.23-1.36-.88.43-1.6.85-2.25.15-2.26.15.46,1.28ZM250.27,19.63l.53-1L249.62,18l-1,1.37.68.68Zm15.62,16.89-.65-.32-1.45.69.9.61Zm-1.8,3.08.53-.9-1.41-.1-1.3.25-.3,1,1.58.15Zm-7.81-1,.9-.75-.73-.4-1.6-.06-.3.75.83.6Zm2.56,1.71a3.39,3.39,0,0,0-.18-1l-.5.28-.63.8.67.45a4.48,4.48,0,0,1,.64-.51Zm-39,10.93.08-1.36-.66-.24-.66,1.22-.15.9.67.6ZM217.06,54l-.37-1.57A7.23,7.23,0,0,1,216,52a8.74,8.74,0,0,0-1.35.08l.58,1.29-.15,1.43-.83.75-1.57.68-1.35.75-.76.75,1.73.67,1.8.08,1.47-.83,1-1.8Z" transform="translate(0.01 0)"/>
    <path id="LO" class="cls-1" d="M232.55,170c-.25-.15-.69.14-1,.65s-.32,1-.07,1.17.69-.15,1-.65S232.84,170.15,232.55,170Zm23.74,48.59a.85.85,0,1,0,1,.83,1,1,0,0,0-1-.83Zm-44.1-4.5a.65.65,0,1,0,.7.62.67.67,0,0,0-.69-.62Zm68.24,36.82s.79-2.31.79-2.36-.84-2.14-.85-2.2-1.74-2.36-1.74-2.42-1-2.2-1-2.25-1.12-1.86-1.13-1.92-1.34-1.58-1.35-1.63-1.23-.62-1.24-.68a9.37,9.37,0,0,0-1.06,0h0l-1.19.74-1.86.9-1.63.28.23,1.75.61,1.29-.95,1.52-.62,1.24-.28,2.48.39,1.57,1.35.51.4-.9v-1.45l1.23-.17s.85,1.12.85,1.18.45,2.25.45,2.2,2.14.39,2.09.39,1.29,3.66,1.35,3.66,1.12,3.26,1.12,3.21,2.09,2,2.09,2,2.08.56,2.08.51,1.13-1,1.12-1.07,1-2.43,1-2.48.45-1.86.45-1.91-1.46-2.37-1.47-2.43-1.22-1.5-1.22-1.56Zm9.12-33.84h-2l-1.58-.45a6.47,6.47,0,0,1-.61.67c-.06,0,.51,1.58.51,1.64a13.69,13.69,0,0,1,.16,1.57c0,.06.29,1.92.28,1.86s1.41,1.07,1.41,1,1.3.84,1.3.78,1.13.23,1.18.17a18.2,18.2,0,0,0,.28-1.8s-.67-1.58-.68-1.63-.11-1.41-.11-1.47.91-.39.9-.45.79-.56.79-.62.17-1.12.17-1.18-1.07-.39-1.07-.45A7.45,7.45,0,0,0,289.55,217.08Zm-31.2-.51s-.79-.9-.79-1a4.4,4.4,0,0,0-.79-.29l-1.18.12-.17,1a8,8,0,0,0,1.35.73,5.89,5.89,0,0,1,1,.79,7.75,7.75,0,0,0,1,.9s.91-.28.9-.34-.12-1-.12-1.09-1.24-.76-1.24-.82ZM218.7,203.28s-.57-1.75-.6-1.8-.8-1.67-.82-1.73-.81-1.37-.83-1.42l-.6-1.35s-1.18-.63-1.2-.68-1.56,0-1.58-.08c-.52.07-1,.16-1.55.28h0l-1.83.93-.75,1.72-1.2,1.13-.37,1.43a19.56,19.56,0,0,0,.32,2.15c.07,0,.45,2.63.43,2.58s.47,2.15.45,2.1.92,1,.9,1l.6,1.73s.4,1.33.37,1.28a8.48,8.48,0,0,1,1.11-.16s.92-1.22.9-1.28,1.38-.85,1.35-.9,1.23.73,1.2.68,1.53-.25,1.51-.3,1.29-1.6,1.27-1.66.63-1.59.6-1.65.25-1.9.23-2,.08-1.89,0-2ZM210.84,217a13.91,13.91,0,0,1-.62-1.55c0-.06-1.48-1.08-1.5-1.13s-1.33-1.45-1.35-1.5-1-.85-1-.9-.58-1-.6-1-.35-1.38-.38-1.43-.73-.92-.73-.92h0l-1,.09L204,210a17.37,17.37,0,0,0,.92,1.48,16,16,0,0,1,.58,1.9c0-.06.32,1.33.3,1.28s.92,1.85.9,1.8a13.67,13.67,0,0,1,1.82.95,4.92,4.92,0,0,0,.88.7c0-.06,1.45.13,1.43.07a8.28,8.28,0,0,0,0-1.22Zm30.71-20.93s-.42.81-.45.76-.87.58-.9.52-.35-1.37-.37-1.43-.21-1.44-.23-1.5-.28-1-.28-1l-.92-.73a7.49,7.49,0,0,0-1.33.28,3.14,3.14,0,0,1-.85.69s.63,1.33.6,1.28a5.36,5.36,0,0,1,.78.8c0,.08.67,1.35.65,1.3s.85,1.33.83,1.28a5.71,5.71,0,0,0,.47.88,8.62,8.62,0,0,1-.32,1.59v1.06s1.15-.18,1.12-.23.55-1.22.53-1.28.32-1.29.3-1.35.7-.62.68-.67.92-.85.9-.9.47-.7.45-.76-.43-1.07-.45-1.12-1.21.59-1.21.53Zm-4.2-18.24-.8-1.24-.45-1.13.34-1.12.22-1.24-.84-1h-1l-1.64.34-.73,1.41.28,1.35.9,1.12.74,1.58,1.07.68,1.07.11Zm53.84-22.92c0-.06.17-1.64.16-1.69s.18-1.24.17-1.3.12-1.24.12-1.29-.56-1.24-.57-1.3-.78-.73-.79-.78-1.06-.23-1.07-.29-1.23.23-1.23.17-1.07.23-1.07.17-1.13.62-1.13.57a5,5,0,0,0-.95.05h0l-1.81.34-1.75,1.07-.67.39.67,1s.46,1.29.46,1.35.22,1.29.22,1.24.51,1.52.51,1.57.34,1.47.33,1.41-.33.79-.33.73.62.73.62.68.73,1.07.73,1a22.18,22.18,0,0,0,.23,2.7,14,14,0,0,1,.11,2.15c0-.06-.62,2.25-.62,2.19s.34,1.13.84,1a6.8,6.8,0,0,0,1.3-.56c0-.06,1.18-1.07,1.18-1.13s1.07-.79,1.07-.84,1.19-1.08,1.19-1.13.39-1.58.39-1.63.68-1.24.67-1.3.46-.9.45-1,.51-1,.51-1.07.51-1.18.51-1.23-.11-1.53-.12-1.58-.32-1.61-.32-1.66Z" transform="translate(0.01 0)"/>
    <path id="LU" class="cls-1" d="M377.41,372.92a.85.85,0,1,0,1.06.82A1,1,0,0,0,377.41,372.92Zm-4.57,2.37c-1.59.42-2.79,1.11-2.67,1.56s1.5.45,3.09,0,2.78-1.12,2.67-1.56S374.44,374.87,372.84,375.29Zm-40.1,16.22-.72-1.6-1.42-1.25L329,389l-.9,1.59,1.07,1.78.53,1.6-1.6.54-.89,1.6.89,1.42,2.31-.18,1.78-1.24,1.07-1.25-.18-1.78Zm50.08-27s-1.53-.24-1.56-.26-1.66-.58-1.7-.58l-1.93-.39s-.94-.37-1-.37-1.14.09-1.17.08-.73.64-.76.63-.35.9-.35.9h0l-.79,1.76-.67,1.6-.05,2.07v2.2s.67.77.67.82c.33.11.66.2,1,.28,0,0,.84-.66.81-.68s.15-1.25.12-1.26-.35-1.85-.38-1.86-.35-1.13-.38-1.14a14.36,14.36,0,0,1,.29-1.72,7.37,7.37,0,0,0,.81-.77S377,366,377,366l1.43.22s1.3-.41,1.27-.43.66,1.83.62,1.83-.29,1.56-.29,1.65a9.52,9.52,0,0,0,.38,1.39s1.52-.84,1.48-.85,1.09-1,1.06-1,1.17-1,1.14-1.05-.39-2-.39-2-.86-1.19-.89-1.2ZM350.29,317.1l-1.43-.19-1.64.41s-.49.6-.51.6-.71.41-.71.41h0l-1.25.19-1.11-.22-.7.25-1.2.8-.89.82-1.74.28-.23,1s.85,1.65.83,1.64,1.22.86,1.26.86,1.8,1.39,1.78,1.39.75,1.59.75,1.62.48,2,.51,2,1.2.6,1.18.6h1.43s.9-1.51.88-1.52.4-1.77.38-1.77a9.77,9.77,0,0,1,.83-1.87c.45-.79-1.38-1-1.4-1l-1.33-.19s.28-.7.26-.7.84-.5.82-.51.91-.72.89-.72.84-1.11.82-1.11l1.41-.16,1.95-.41s1.16-1.33,1.14-1.33-1-.76-1-.76Zm97.25-25.61a1.09,1.09,0,0,0-.92,1.24h0a1.09,1.09,0,0,0,2.17-.17,1.16,1.16,0,0,0-1.24-1.07Zm69.7-5.17c-1.11-.47-2.19-.41-2.41.12s.48,1.35,1.59,1.82,2.19.41,2.42-.12-.45-1.35-1.56-1.82Zm-9-18-2.69-.48-3.55.25-1.85,1.3-.3,2.25.3,2.41,2,1.05.75,1.73,1.43.9,1.88-1.51,1.58-.82,2.17-1.13,1.13-1.42.37-2.41-1-1ZM475.14,240a17.74,17.74,0,0,0-1.91-.62,7.59,7.59,0,0,1-1.58-.11,4.71,4.71,0,0,0-.84.22c0-.06.17,3.1.16,3s1.57,1.89,1.57,1.83,2,1.24,2.09,1.3a4.41,4.41,0,0,0,1.23-.34s.34-2.36.34-2.42S476,241,476,241s-.87-.91-.87-1Zm-28.69-28.36s-.39-1.17-.42-1.18l-1.52-.59-2.16-.38-2,.31h0l-1.43.75-.63,2.66.17,1.64,1.65.43,2.45.5,2.66.05s1.09-2.4,1.09-2.44a14.72,14.72,0,0,0,.11-1.76Zm55-5.4,1.77.38.64-1.14-.85-1.78-.21-1.56-.89-.8-1.1-.45h0l-1.3.11v2l1,2Zm14-22.55a1.05,1.05,0,1,0-1.1,1h.1a1,1,0,0,0,1-1Zm-9.82-29.61c.67,0,1.21-.39,1.21-.87s-.54-.88-1.21-.88-1.2.39-1.2.88.53.86,1.19.86Zm-14-13.56a1,1,0,1,0,1,1A1,1,0,0,0,491.63,140.53Zm2,22.84c-.6.77-.7,1.69-.22,2.06s1.34,0,1.94-.73.7-1.7.22-2.06-1.37-.06-2,.75Zm-73-14.76c-.33.38-.1,1.13.53,1.69s1.39.71,1.73.33.1-1.13-.52-1.69-1.46-.71-1.83-.34Zm-4-.08c-1.25,0-2.25.59-2.25,1.32s1,1.31,2.25,1.31,2.25-.59,2.25-1.31-1-1.33-2.28-1.33Zm-1.52,22.86a1.3,1.3,0,0,0-.43,1.75,1.32,1.32,0,0,0,1.8-.15,1.11,1.11,0,0,0-.84-2.06,1.06,1.06,0,0,0-.52.46Zm46.19-18.91,1.7.7.61-1.31-.1-2.1-.11-1.1-.87.08-2-.28-1.3,1.1.6,1.7Zm.6,19.82-1.7-.7h-1.36l-1.42,1.62-.3,2.1,1.1,1.6,2.2.2,2.3-.4,1-2-.31-1.7ZM487.08,142l-2.4-1.2-1.65-.15-1.5-.82-1.66-.45-1.65-1.51-2.1-.52-1.5.37.45,1,1.05.22,1.13,1.21,1,1.2.9.82,2-.3,1.2.45,1.07,1.18c.08.08.53,1.28.51,1.23s-.06,1.7-.08,1.65-.2,1.18-.22,1.12-1.26.81-1.28.76-.8.8-.82.75a9.6,9.6,0,0,0-.66,1h0l-1.15,2.42-.45,2.93.53,3.23,1.35,1.8L483.4,162l2.41-.15,1.65-.83-3.08-.45-2.85-1-1-1.35.3-1.8.83-2.78.82-2.18,1.43-1.57,2-.53,1.35-.3.67-1.65,1-2.25-.68-1.81Zm-40.24-23.62-1.41-.39h0a10.9,10.9,0,0,1-1.47-.68s.35,1.35.34,1.3.62,1.4.62,1.35,1.07.73,1.07.67,1.19.34,1.18.29,1.3-.46,1.3-.51.4-.9.39-1-.67-.73-.67-.79A10.31,10.31,0,0,0,446.84,118.39Z" transform="translate(0.01 0)"/>
    <path id="KU" class="cls-1" d="M179,340.21a.58.58,0,0,0,.22-1.14H179a.57.57,0,1,0,0,1.14Zm3.13,2.9a1.06,1.06,0,1,0-1,1.1h0A1.09,1.09,0,0,0,182.16,343.11Zm-4.32,3.81a.85.85,0,1,0-1-.83A1,1,0,0,0,177.84,346.92Zm4.43,1.54c0-.68-.4-1.22-.88-1.22s-.88.54-.88,1.22.39,1.22.88,1.22S182.27,349.13,182.27,348.46Zm0,3.73a.58.58,0,1,0,.57.59h0a.59.59,0,0,0-.57-.57Zm-4,1.13a.48.48,0,1,0,.31.89.52.52,0,0,0,.29-.38.61.61,0,0,0-.62-.51Zm0,4.09-1-.63-1.12.13-.9.5h-1.2l-1.5.5.5,1-1,1.2v1.28l1,.9,1.3,1,.8,1.6.6.71.7-.91.3-1.6,1-.7,1.3.3.91-1.4v-1.7l-.71-1.4ZM135.5,393.25c.08.15.15.07.22-.12-.17-.08-.28-.08-.17.12Zm38.06-24s-1.4-.62-1.42-.68-1.48-.69-1.51-.75-1.25.66-1.27.6.17,1.41.15,1.36-.43,1.1-.45,1.05-1.48.43-1.5.37-.13-1.67-.15-1.73.17-1.59.15-1.65a14.2,14.2,0,0,0-1.13-1.43H165a14.74,14.74,0,0,1-1.5.3c0-.05-1-.55-1.05-.6s-1.18-1-1.2-1.06-1.56.21-1.58.15-2.23.06-2.25,0-1.33-.17-1.35-.22a7.4,7.4,0,0,0-1,1.48,6.33,6.33,0,0,1-1.67.32,15.8,15.8,0,0,1-1.65-.15c0-.06-.66,1.11-.68,1.05s-.2,1.26-.22,1.2a5.81,5.81,0,0,0,.09,1.18,2.51,2.51,0,0,1-.24.93c0-.06-1-.63-1-.68s-1.41-1.15-1.43-1.2-.88-.55-.9-.6-1.78.2-1.8.15-1.26.58-1.28.52-.8,1-.83.91-1.55.27-1.57.22-1.71.28-1.73.23-1.7.88-1.73.82-1.33,1.56-1.35,1.5-.35,1.71-.37,1.66,0,1.63,0,1.57-.06,1.63-.08,1.58-.28,1.55-.3,1.5-.5.81-.52.75-1.86-.24-1.88-.3-1,.51-1,.45a8.93,8.93,0,0,1-.37.9c0-.1.17,1.56.15,1.5s-.73,1-.75,1a8.17,8.17,0,0,1-1.21.15c0-.05-1.55-.47-1.57-.53s-1.26-.32-1.28-.37-2.15-.1-2.18-.15-1.78.35-1.8.3-1.48.2-1.5.15-1.1,1.63-1.13,1.58-1.4,1.15-1.45,1.15-1.56,1-1.58,1-2.83.28-2.85.22-1.33.66-1.35.6a8.24,8.24,0,0,0-1.18.51h0l-1.45,1,.37,1.27,1.81,1.66.75,1,.9-.83,1.12-.45,1.13.68.9,1.35,1.13.45.67-1a6.51,6.51,0,0,1,.7-.69,4.2,4.2,0,0,0,1-.06l.63,1a7.74,7.74,0,0,0,.88.62c0-.06,1.14,0,1.12-.08s1.53-.47,1.5-.52.7-.32.68-.38a5.52,5.52,0,0,1,.92.51,4.34,4.34,0,0,0,1.26-.66c0-.05.7-1,.67-1.05s.93-.77.9-.83,1.38.36,1.36.3,1.07-.09,1-.15a16.73,16.73,0,0,1,1-1.35c0-.06,1.45,0,1.43-.07s.77,1.4.75,1.35a17.94,17.94,0,0,1-.3,2.06c.4.14,1.14.6,1.13.57s1.67-1.15,1.65-1.2,1.3-1,1.27-1.06a8.64,8.64,0,0,1,.33-1.59c.07-.08-1.13-1.2-1.13-1.28s-1.49-2.26-1.49-2.26-.58-2.42-.6-2.48-.51-1.82-.53-1.88.85-.77.83-.82,1.07.5,1,.45.32-1.6.3-1.65,1.75-.17,1.73-.23a10.07,10.07,0,0,1,1.82.13,4.57,4.57,0,0,0,1,.47,7.55,7.55,0,0,0,.82-1c0-.08,1.3-.7,1.28-.75s.25-1.23.23-1.28.92-1.6.9-1.65,1.3.28,1.27.22,1.9.13,1.88.08.25-1.75.23-1.8,1-1.45,1-1.51,1.53-.54,1.5-.6.93,1,.9.9,1.6.73,1.58.68,1.07.43,1,.37a2.55,2.55,0,0,0-.35.89,7.73,7.73,0,0,1-1.07,1.07,9.48,9.48,0,0,1,.52,1s2.5.43,2.48.38.85.58.83.52a9.43,9.43,0,0,0-1.33,1.11,4.61,4.61,0,0,1-.4,1.15c0-.06.85.95.82.9s1.15-.62,1.13-.68.7-1,.68-1,1.6,1.41,1.57,1.35,1.38.13,1.35.08,1.53-1.37,1.51-1.43,1.14-.47,1.12-.52,1.53,1.48,1.5,1.42.63-2.05.61-2.1.47-1.9.45-2,1.14.65,1.12.6,1.45,1.18,1.43,1.12,1.07.81,1,.75,1.22.43,1.2.38.17-1.45.15-1.5-1-.77-1-.83-.35-1.07-.38-1.12,1.68.43,1.66.37,1.14.81,1.12.75.7-1,.68-1.05,1-1.15,1-1.2.25-.92.23-1,.92-1.07.92-1.14-1.27-2-1.3-2.08a16.43,16.43,0,0,0-1.38-1Zm-43.1,25.88a.85.85,0,1,0,1,.83,1,1,0,0,0-1-.86Zm9.91-12a.85.85,0,1,0,1,.83,1,1,0,0,0-1-.87Z" transform="translate(0.01 0)"/>
    <path id="CK" class="cls-1" d="M346.28,87.58c0-.08-1.08-1.42-1.1-1.5s.72-.82.7-.9,1.53.78,1.5.7,1.73.28,1.71.2,1.52-.52,1.5-.6-.88-1.22-.9-1.3-1.48-1.13-1.51-1.21-1.58-.12-1.6-.2-1.58-1.62-1.6-1.7-.48-1.42-.5-1.5-.78-2.22-.8-2.3-2.28-.92-2.3-1-3-.72-3-.8,1.33-1.63,1.31-1.71,1.32-1.62,1.3-1.7,1.92-1.52,1.9-1.6,1-1.22,1-1.3-.68-2.22-.7-2.3,1.22-1.73,1.2-1.81,1.16-2.66,1.09-2.66.52-1.62.5-1.7,1-1.52,1-1.6.75-.76.25-1.08-.17-.33-1.08-.79a22.11,22.11,0,0,1-3-1.87c-.57-.46-2.49,1.11-2.51,1s-2.89.78-2.91.71-1.68,1-1.7.9-1.28,1.78-1.3,1.7-1.48,1.58-1.5,1.5-1.88,2-1.9,1.9S329,64.39,329,64.39s-2.18,1.08-2.2,1-1.38,2-1.4,1.91-.78,1.68-.8,1.6-2,3.48-2,3.4-1.18,1.68-1.21,1.6-1.07,2.09-1.1,2-1.68,1-1.7.9-2.48,1.78-2.5,1.7-2,1.68-2,1.6a15.92,15.92,0,0,0-1.1,1.7,5,5,0,0,1-1.51,1.1,7.24,7.24,0,0,0-1.18.88,7.76,7.76,0,0,1-1.92.23c0-.08-1.48.68-1.5.6s-.78,2-.8,1.9-.88,1.48-.9,1.4-1.18.78-1.2.7-1.48-1.12-1.51-1.2-1.78-.22-1.8-.3-2.68.48-2.7.4-2.08.08-2.1,0-.08-1.72-.1-1.8.72-1.93.7-2,.82-2.33.8-2.41-1.39-.57-1.39-.7-.78-1.22-.8-1.3,2.72-.72,2.7-.8.72-2,.7-2.1,1.52-2,1.5-2.11,1.12-1.52,1.1-1.6.32-1.72.3-1.8,2.23-1,2.2-1.1,1.73-.82,1.71-.9.52-1.72.5-1.8.52-2.93.5-3,.42-1.92.4-2,1-1.52,1-1.6S309,59.07,309,59a20.52,20.52,0,0,1,2.2-1.1,9.49,9.49,0,0,1,1.5-.3c0-.08,1.63-1,1.61-1.11s1.32-1.72,1.3-1.8,2.72-.92,2.7-1,2.23-.92,2.2-1,2.13-.92,2.11-1,1.82-.52,1.8-.6,1.62-1.32,1.6-1.4a19.48,19.48,0,0,1,1.59-1.29s.72-1.63.7-1.71.42-1.72.42-1.82S330,43.06,330,43s1.63-1.12,1.61-1.2.42-1.62.4-1.7a8.7,8.7,0,0,1,.92-1.73,15.49,15.49,0,0,0,1.79-2c0-.08,1.22-1.62,1.2-1.7a5,5,0,0,1,1.12-.92c.1,0,1.22-3.08.84-2.54.35-.66.86-1.6.84-1.65s.63-2.32.6-2.4.53-1.92.51-2,1.92-1.22,1.9-1.3,1.82-2.13,1.8-2.2,2.12-1.73,2.1-1.81,1.13-1.22,1.1-1.3,1.73-1.22,1.71-1.3,2.72-.32,2.7-.4a11.5,11.5,0,0,1,1.81-1.1,8.67,8.67,0,0,0,1.18-1.58c0-.08.12-1,.1-1.1s-1.18.58-1.2.5-1.48,1-1.5.9-1.68,1-1.7.9-2.08.48-2.11.4S346.4,17,346.38,17s-1.38,1.28-1.4,1.2-1.48,1.48-1.5,1.4-1.78,1.28-1.8,1.2S340,22.34,340,22.26s-1.08,1.58-1.11,1.5-1.38,2-1.4,1.9-1.38,2.08-1.4,2-.78,1.88-.8,1.8-1,1.18-1,1.11-1.58.78-1.6.7-1.78,1.28-1.8,1.2-2,1.78-2,1.7-1.28,1.68-1.3,1.6-.88,2.08-.9,2-1.18,1.78-1.2,1.71-1.28.48-1.3.4-2.18-.53-2.2-.61-1.58-.42-1.61-.5-2.38-.62-2.4-.7-1.58.68-1.6.6-2.58,0-2.6-.1-2.08.48-2.11.4-1.78,1-1.8.91-1.48,1.18-1.5,1.1-.58,1.38-.6,1.3-.2,1.21-.2,1.09-.38,2.08-.4,2-.88,1.18-.9,1.1-1.18-1.22-1.2-1.3-.68-1.92-.7-2l-.61-1.44c0-.08.13-1.32.1-1.4s-.77-.42-.8-.5-1.08.78-1.1.7-1.38.78-1.4.7-1.58,1-1.6.9-1.18,1.38-1.2,1.3a5.45,5.45,0,0,0-.48,1.58,7.79,7.79,0,0,1,.18,1.52c0-.08-.38,1.58-.4,1.5s-.68,1.79-.7,1.71-.78,1.28-.8,1.2-.48,1.68-.5,1.6.62,1.68.6,1.6.12,1.42.2,1.9a8.26,8.26,0,0,1,.1,1c0-.08-.38.88-.4.8s-2.79-.73-2.81-.8-2.08.07-2.1,0-1.58.68-1.6.6a9.25,9.25,0,0,0-1.48-.21s-.78-.83-.8-.91-1.58-.92-1.61-1-1.88-.12-1.9-.2-1.58.18-1.6.1-.68,1.28-.7,1.2-.38,1.49-.4,1.41-1.18,1-1.2.9-1.38,1.08-1.4,1-1.58,1.28-1.61,1.2-.68,1.08-.7,1,0,1.68,0,1.6-.28,1.88-.3,1.8-.78,1.29-.8,1.21a14.77,14.77,0,0,0-1.88.18h0l-3.42.32-2.11.9-2.6,1.8-1.1,2.2-1,1.6-2.4-.3-3.31.1-2.7.1-3.2.3-2.51,1-.7,1.8L247,79l-1.1,1.4-1.8-1.5-1.4-.9.4-1.8-.6-1.61-1.41-.2-1.8-.9-1.8-.5-.8,1.81.5,1.8-.8,1.9-.7,1.5-.6,2.1-.8,2-.7,2.1-.2,1.9a23.23,23.23,0,0,0,.52,2.48c.1,0,2.5,1.4,2.48,1.32s2.22.38,2.2.3,2.43-.22,2.4-.3,1.83,1.09,1.81,1,.72,1.58.72,1.68a6.61,6.61,0,0,0,.88-1.28c0-.08.92-1.13.9-1.21a14.82,14.82,0,0,1,1.62.28,10.64,10.64,0,0,0,1.78-.28c0-.07,2.43-.12,2.41-.2s1.32-.42,1.3-.5-.08-1.32-.1-1.4l-.5-1.8c0-.08.62-.92.6-1s2-.62,1.92-.62,1.4-.7,1.38-.78,1.82-1.72,1.92-1.83c.44-.24.87-.5,1.28-.78,0-.07.83-1.82.8-1.9s1.53-1.42,1.51-1.5,2.82-.82,2.8-.9,3.33-.12,3.3-.2,2.63,0,2.61-.1,2.22.18,2.2.1,1.32.88,1.3.8,1.62.88,1.6.8,1.23,1.18,1.2,1.1.83,1.08.8,1,2,.18,2,.1,1.42.88,1.4.8.62,1.49.6,1.41-.58,1.28-.6,1.2.42,2,.4,1.9-.08,1.18-.1,1.1-1.48.38-1.5.3-1.88.18-1.91.1-1.88,1-1.9.9-1.48,1.38-1.5,1.3S273,93.12,273,93s1.12.78,1.1.7,2.43-.83,2.4-.9,1.83-.33,1.81-.41,1.82.18,1.8.11,2.12-.33,2.1-.41,1.92-.52,1.9-.6,2,.18,2,.1,2.13-.32,2.11-.4A11.29,11.29,0,0,1,290,92.51a4.57,4.57,0,0,0,1.08.83c0-.08,1.82-.12,1.8-.2s2.13-.93,2.1-1,2-.42,2-.5,2.32.38,2.3.3,1.62-.52,1.6-.6,1.93-.92,1.9-1,2.53.68,2.51.6,2.32.58,2.3.5,1.72-1,1.7-1.1,2.43-1.12,2.4-1.2,1.63-1,1.61-1.1,1.58-1.26,1.58-1.31,2-.52,2-.6,1.52-.92,1.5-1,1.93-.62,1.9-.7,2.13-.53,2.11-.6,1.42-.43,1.42-.53,1-1.6,1-1.68,1.32-.12,1.3-.2,2.12,1.08,2.1,1a7.39,7.39,0,0,0,2.3,0,3,3,0,0,1,1.51,0c0-.08,1.82.48,1.8.4s2.22,1.39,2.2,1.31,2,.58,2,.5,1.63.68,1.61.6.52,1.78.5,1.7,1.42,1.08,1.4,1,2,.28,2,.2,1.62.48,1.6.4,1,.58,1,.5S346.3,87.66,346.28,87.58Zm32,.22c0-.08-1.38-1.52-1.4-1.6s-.28-3.12-.3-3.2-.08-1.73-.1-1.81-.18-1.52-.2-1.6-1-1.42-1-1.5-1.28-.32-1.31-.4-1.38.28-1.4.2-1.48,1-1.5.9-.78,1.08-.8,1a17.66,17.66,0,0,0-1.58,1.28l-1.32,1.66-1.1,1.8-1.51,1.6-1.6,1.9-1.9,1.5L359.46,91l-1.8,1.1-.71,2.4-.8,2.1-.6,2.4-.8,1.11-.8,2-1.4,1.4-1.2,1.5-1.9,1.4-1.61,1.5-1.5,1.91-.4,1.7-.1,1.8s1,1.28,1.13,1.38,1.2,1.6,1.17,1.52c.26.48.49,1,.7,1.47a7.14,7.14,0,0,0,1.38,1c0-.08,1.52-.72,1.5-.8s1.12-1.14,1.12-1.2,1.52.08,1.5,0,2-.62,2-.7,1.63-.92,1.61-1,1.22-1.12,1.2-1.2,1.22-2,1.2-2.1,1.22-2.12,1.2-2.2,1.42-.93,1.4-1,1.73-1,1.7-1.11,1.63-1.62,1.61-1.7,1.72-.82,1.7-.9,1.62-1.32,1.6-1.4.92-1.52.9-1.6.82-1.12.8-1.2,1.42,0,1.4-.1.83-.42.83-.52V98c0-.09.53-1.52.5-1.6a9,9,0,0,1,1.23-1.52,7.41,7.41,0,0,0,.88-1.58c0-.08,1.62-.32,1.6-.4s.22-1.72.2-1.8.92-.93.9-1,1-1,1-1.1-1.47-1.1-1.49-1.18Zm13.17-2.33a12.26,12.26,0,0,1-1.46.91,9.44,9.44,0,0,0-1-1,8.3,8.3,0,0,1-.67-1c0-.1-.84-.5-.85-.56a10.1,10.1,0,0,0-.84.62h0l-.57.51-1.57.11-1.07.56,1.24.74.73.39-.17.73-1,.62-.57.85.4,1.85s1,1.3,1,1.35a2.22,2.22,0,0,0,.79-.22s0-1-.06-1,.51-.68.51-.74,1.3,1,1.29.91,1,.44,1,.39.57-.56.57-.62.45-1.86.45-1.91.73-1.13.73-1.19,1.58.45,1.57.4S393,89,393,88.9s.68-1.58.68-1.63.12-1.92.11-2-.56-.74-.56-.79-1.71,1-1.71,1Zm-.56-2.19.5-.68-.78-.56-1.41.22-.17.79.9.34Zm7.38,1.18h0l-2-.06-.45,1-.23,1.52.06,1.41.67,1.29,1.07-.34.85-1.29.62-1.07.62-1,.28-1-.73-.78Zm.78-34.73a9,9,0,0,0,.57-.79,10.4,10.4,0,0,0-.9-.56,6.13,6.13,0,0,0-.68.56,6.27,6.27,0,0,0,1,.79Zm-6,4.56.23.68,1-1-.56-1.13Zm-14.9-16.23,1-.3V36.14l-1.25-1-1,.69.38,1.36Zm-20,19.67,1.2-.9.75.3.75,1.12,1.36-.3,1.27-.67,1.58-.23,1.28-.75.52-1.88-.67-1.65-.53-1.72.68-1.13,1.05-.53,1.12-.15L369,48l.15-1.12.68-.9-1.58.15-1.72.6-1.36-.42L364,46.8l-.48,1.32-1,.82L361,48.77l-1.22.92-1.07,1.66-.83,1.5-1,1.88-1.27,2.4,1.27,1.39ZM351.34,70a8.5,8.5,0,0,0,1.07.29s.34-1,.34-1l-1-1.41a9.77,9.77,0,0,1-.68,1C351.06,68.85,351.34,70.1,351.34,70Zm-1.75.06-1-.23-1.19.85-.73,1.46v1.21l-1.63.74-.56.84,1.69.73,1.67-.17,1.3-.62.78-1.46.85-1.35-1-.85Zm1-18.48s-.9-1.3-.93-1.31-.51-.75-.55-.76c-.25.12-.49.25-.73.39l-1.54,1.51-1,1.6-1.31,1-.84,1.06.68.84s2,1.28,2.05,1.33,1.06.84,1,.83,1.13-.62,1.1-.64.66-.74.63-.76.62-1.42.59-1.43.54-1.26.51-1.27.62-1.17.59-1.18-.29-1.2-.29-1.21ZM461.31,1.1l-.78-.82L459.21.6l-.5.8,1.3,1,1.6-.4Z" transform="translate(0.01 0)"/>
    <path id="BA" class="cls-1" d="M119.93,194.89c-.06,0-.35-1.86-.4-1.87s0-2.12,0-2.13-2.75-1.06-2.81-1.07-2.61-2-2.67-2-1.81-1.85-1.86-1.86-.88-1.86-.94-1.87.32-2.39.27-2.41,1.79-2.65,1.73-2.67,1.46-.79,1.79-1.34a10.21,10.21,0,0,0,.35-3.06c-.06,0,.59-2.92.53-2.94s.49-2.24.2-2.37-1.61.92-1.67.91a10.73,10.73,0,0,1-1.64,1.11c-.42.09-3.91,0-4,0l-3.07-.26-3.21-.8s-1.94-1.19-2-1.21-1.41,1.62-1.47,1.61-2,1.26-2.44,1.41-1.24-.33-1.29-.35.59-2.39.53-2.4,2.06-1.45,2-1.47-.14-1.12-.4-1.33-1.41-1.32-1.47-1.34a4.76,4.76,0,0,0-1.61.48,11.38,11.38,0,0,0-.52,1.12c-.06,0-.61,1.09-.67,1.07l-2.14-.67s-2.08,1-2.13.94-.61,2-.67,2-.88,1.75-.93,1.74-.48.94-.54.93-1.41,1-1.46.94-.08,1.61-.14,1.6-.88.54-.93.53-.88-1.72-.94-1.73-1.54-.79-1.6-.8-1.81.41-1.87.4-1.41,1.08-1.47,1.06.33,1.89.27,1.87.32,1.22.27,1.2-1.68-1.18-1.74-1.2a10.33,10.33,0,0,0-.77-2c-.29-.25-1.17.53-1.23.51l-2.4-.26c-.06,0-1.55.54-1.6.53s-.35,1.22-.4,1.2-.08,1.62-.14,1.6-1.14.42-1.2.4-1.28.55-1.33.54-1.55,1.08-1.61,1.07-1.14,1.88-1.2,1.87-2.08.14-2.13.13-1.33,1.53-1.6,1.71-1.42-.5-1.47-.51-.13-1.08-.83-.88-1.21,1.82-1.27,1.82-.08,1.49-.13,1.47-.35,1.22-.4,1.2-.21,1.33-.27,1.33.46,1.48.4,1.47.14,1.37-.36,1.33a21.08,21.08,0,0,1-2.44-.8c-.06,0-1-.52-1.07-.53s-.48,1.87-.53,1.87a9,9,0,0,0-.48,1.61,10.12,10.12,0,0,1-1.79,1c-.06,0-1.28,1.08-1.34,1.06s-.21,1.22-.27,1.2-.61,1.22-.66,1.21-2.08.14-2.14.13-.88,1-.93.93-.68,1.72-1.94,0-1.34.58-1.4.57A12.56,12.56,0,0,0,43,202a5,5,0,0,1-.19,1.72l2.27.93c-.06,0,1.66.68,1.6.67s1.53,2.28,1.47,2.27.33,2.15.27,2.14.32,1.74.27,1.73a6.27,6.27,0,0,0,.19,1.88,6.61,6.61,0,0,1,.22,1.47h0l-2.33.7-2.13.36-2.14-.36-.71,1.78L41,219.34l-.49,2.39-.53,2-1.25,1.6,1.43.89,1.24,2.67,1.25,2.31.89,2s1.26,1.07,1.26,1.25a22.93,22.93,0,0,0,1.41,2.12s1.08,1.52,1.7,1.72a22.55,22.55,0,0,0,2.57.42l2.49.53,1.83,1.07s.73,2,.71,2a5,5,0,0,0,1.56.92,7.29,7.29,0,0,0,2.36-.74s2.68.19,2.67.17a12,12,0,0,0,2.68.13c.54-.18,1.07-1.72,1.06-1.73s1.79-2.12,1.78-2.13,1.25-2,1.24-2,.9-2.3.89-2.32-.34-2.3-.35-2.31-.88-2.12-.89-2.14,0-1.94,0-2,.54-2.66.53-2.67,0-1.59,0-1.6l-1.24-1.16s.54-1.59.53-1.6l2.31.18h2.85s2.35.08,3,0,.77-1.58.76-1.6,1.08-.34,1.07-.35l1.06.89,2.5,1.07,2,.89s.73,1.79.55,1.79.18,2.13.17,2.12a10.32,10.32,0,0,0,1,1.53c.4.46,1.89.36,2-.09a17.18,17.18,0,0,0,.2-2.15,20.27,20.27,0,0,0,2.17-.69,10.45,10.45,0,0,1,1.92-.89c.56-.11,2.54.35,2.75-.11s.32-1.67.66-1.83a8.91,8.91,0,0,0,1.63-.68c.45-.31.67-1.48.66-1.5l-1.43-1.78s-1-2.3-1.06-2.31l-1.3-2.53s-.52-2.12-.53-2.14,1.79-.34,1.78-.35l2.13.89s1.27,1.08,1.61,1.29a7.72,7.72,0,0,0,2.49-.23s1.43-1.23,1.42-1.24a16.33,16.33,0,0,0,1-1.59c.13-.37.47-2.14.46-2.15s1.88,1.51,1.63,1.33,1.86.25,2.12,0a8.65,8.65,0,0,0,.88-1.71,19.19,19.19,0,0,0,1.76-1.17,14.43,14.43,0,0,0,1.44-1.86s1.62.55,1.61.53a11.14,11.14,0,0,0,1.3,1.27,7.12,7.12,0,0,0,1.9.16,13.19,13.19,0,0,0,.77-1.6,13.56,13.56,0,0,0,.48-1.78s.54-2.3.53-2.32a3,3,0,0,0,1.2-1.07c.72-.94,1.12-2,1.47-2.42S120,194.9,119.93,194.89Zm-67-7.7a1.08,1.08,0,1,0,1.33-.76h0a.76.76,0,0,0-.3,0,1,1,0,0,0-1,.8Zm-3.53,5c0,.29.42.52.94.52s.94-.23.94-.52-.42-.53-.94-.53-1,.2-1,.49Zm36.54-23.46a.85.85,0,1,0-1-.83,1,1,0,0,0,1,.79ZM40.39,213a.85.85,0,0,0-.75.94.86.86,0,0,0,1,.75l.1,0a.84.84,0,0,0,.7-.85,1,1,0,0,0-1-.86Zm48.1-138.1a.85.85,0,0,0,.75-.94.86.86,0,0,0-.95-.75l-.1,0a.84.84,0,0,0-.7.85,1,1,0,0,0,1,.83ZM68.74,76.07a.85.85,0,1,0-1-.83A1,1,0,0,0,68.74,76.07Zm-4.28,2a.85.85,0,1,0-1-.83,1,1,0,0,0,1,.86Zm-12.69,14a.85.85,0,0,0,.75-.94.86.86,0,0,0-1-.75l-.1,0a.84.84,0,0,0-.7.85,1,1,0,0,0,1,.81ZM40.46,108.33a.85.85,0,1,0-1-.83A1,1,0,0,0,40.46,108.33Zm1.8,3a.85.85,0,0,0,.75-.94.86.86,0,0,0-.95-.75l-.1,0a.84.84,0,0,0-.7.85A1,1,0,0,0,42.26,111.33Zm-.1,2.51a.85.85,0,1,0-1-.83A1,1,0,0,0,42.16,113.84ZM13.78,163.47a.85.85,0,1,0,1.05.82A1,1,0,0,0,13.78,163.47Zm.15-4.36a1.3,1.3,0,1,0,1,1.54h0a1.31,1.31,0,0,0,0-.28A1.18,1.18,0,0,0,13.93,159.11ZM49.72,96.59c0-.06.85.58.83.52S52,96.94,52,96.89s1.37.35,1.35.3a12.19,12.19,0,0,1,1.22-.8,7.15,7.15,0,0,0,.82-1c0-.08,1.15-.1,1.13-.15s-.2-1-.22-1.06.09-1.29.07-1.35.85-.32.83-.37,1.37.35,1.35.3,1-.37,1-.45.7-1.38.68-1.43.54-1.45.52-1.5.7-1.22.68-1.28,1.37.06,1.35,0,1.37-.54,1.35-.6.77-.92.75-1,.7-1.45.68-1.51.69-1.22.67-1.27.92-1.45.9-1.5.93-1,.9-1.06.48-1.14.45-1.2-.35-1.07-.37-1.12a6,6,0,0,0-.8-.4h0l-1.22.4.23,1s-.43,1.4-.43,1.48a4.88,4.88,0,0,1-.77.92s-1,.58-1.06.53-.8.88-.82.82-.58,1.56-.6,1.5-.88.81-.9.76-1.33,1-1.35,1-.73,1.41-.76,1.35-1.1,1-1.12.9a14.93,14.93,0,0,0-1.35,1.29s-1.48,1.48-1.51,1.42-1.4,2-1.47,2-2,1.2-2,1.15-1.32-.48-1.32-.53-.8-.77-.83-.83-.27,1.18-.3,1.13S49.75,96.64,49.72,96.59Zm-5.29,10.68c0-.06,1.19.62,1.18.56s1-.11,1-.17a8.55,8.55,0,0,0,0-1.24,7.78,7.78,0,0,1,.06-1.18,6.92,6.92,0,0,1,1.18.34c.06-.17,1.13-.63,1.13-.68s.85-.39.84-.45.4-.9.4-1-.17-1.18-.17-1.23.56-.29.56-.34.74-.45.73-.51A2.17,2.17,0,0,1,52,101a8.49,8.49,0,0,0,.22-1c0-.06-.61-.23-.62-.29s-.72.85-.73.79-.9.45-.9.4-.33-1.13-.34-1.19-.39-.9-.39-1a5.79,5.79,0,0,0-.79.39h0l-1.07,1.6L47,102.36c-.16.22-.31.45-.45.68a11.17,11.17,0,0,1-1.41.22,5.56,5.56,0,0,1-1.07-.34s-.56,1.41-.56,1.36v2S44.43,107.32,44.43,107.27ZM48,105.63Zm-9.8,8.62c.18-.25.35-.52.51-.79a4.87,4.87,0,0,1-.17-1,6.75,6.75,0,0,0,1.18-.28s.79-.84.79-.9-.73-1.13-.73-1.18-.85-.23-.85-.28a2.54,2.54,0,0,0-.67-.06l-1,1s-.78,1.29-.79,1.24.63,1.91.62,1.86S38.18,114.31,38.18,114.25Zm1.18,2-1.07-.9-.9.11-.33.73-.4.79-1.07.73-1.18.4-.45,1,.56,1.69,1,.4,1-1.24.45-1.13,1.12-.84.85-.62Zm-6.53,10c0-.06-.56-.12-.62-.18a4,4,0,0,0-.73.85,7.32,7.32,0,0,1-.57,1.07,7.83,7.83,0,0,1-.73.68s-.67.84-.67.79-1.13-.06-1.13-.12-.9-.56-.9-.62a6.72,6.72,0,0,0-.73-.56l-.28-1L27,126l-.85-.29-1.12,1.19-.28,1.63-.51,1.3V131l-1.46,1-1.26,1.63s-1,2.2-1.07,2.2a13.55,13.55,0,0,0,.17,1.41c0-.06,1.07.5,1.07.45s1,.5,1,.45v-1.47c0-.06.91-1.91.9-2s1.13-.51,1.13-.56.79,1,.79.9a6.83,6.83,0,0,0,.11.79,10.44,10.44,0,0,0,.85-1.58s.67-1.18.67-1.24a17.7,17.7,0,0,1,2-.73,10.76,10.76,0,0,0,1.34-.39c0-.06.91-1.75.91-1.81s1-1.46,1-1.52.45-1,.45-1.07ZM18.47,142.73l.9.16.18-1.12.17-1.07.84-.73.17-.79L19,138.89l-.57,1.19-.87,1.74-.17,1.36.56.16Zm-3.76,8.08s-.52-.58-.55-.59-.56.64-.59.63-.73.88-.73.88-.85.4-.88.38-.82,0-.82,0L10,150.91s-.14,1.58-.14,1.62-.42,2-.45,2-.47,1.7-.51,1.69.25,1.11.22,1.1.83.64.8.63,1.08-.92,1-.93,1.09-.41,1.06-.42.88.77.92.81a4.71,4.71,0,0,0,1-.51s.66-1.77.63-1.78.54-1.25.51-1.27-.35-1.93-.38-1.94.07-1.07,0-1.08Zm-1.28,58.92a.85.85,0,1,0,1,.83A1,1,0,0,0,13.43,209.73Zm-3.52-7.12c-.93-.46-1.93-.35-2.22.25s.23,1.41,1.15,1.87,1.93.34,2.23-.25-.24-1.45-1.18-1.91Zm9.7,10.82-.4-1.8-1.1-.6L17,210.91l-1.32.32-.2,1.1.8,1.4,1.6.4,1.5.4.2,1.91.71.9,1.2-1.8-1-.9Zm-11.54-22A.85.85,0,1,0,7,190.65,1,1,0,0,0,8.07,191.47Zm1,4.21a1.08,1.08,0,1,0-1.31.79h.31a1,1,0,0,0,1-.82Zm20.77-15.84a.85.85,0,0,0-.75.94.86.86,0,0,0,.95.75l.1,0a.84.84,0,0,0,.7-.85A1,1,0,0,0,29.84,179.84Zm-25,12.24a1,1,0,0,0-1.39.08,1.11,1.11,0,1,0,1.57.08Zm-3.73.59a.83.83,0,1,0,.79.87h0a.82.82,0,0,0-.78-.83Zm3.9-20a.68.68,0,0,0-.72.64h0a.68.68,0,1,0,1.36.08h0a.66.66,0,0,0-.63-.65Zm-2.51,4a.85.85,0,0,0,.75-.94.86.86,0,0,0-1-.75l-.1,0a.84.84,0,0,0-.7.85,1,1,0,0,0,1,.83Zm2,3.61a1.08,1.08,0,1,0-1.31.79,1.13,1.13,0,0,0,.26,0,1,1,0,0,0,1.09-.81Z" transform="translate(0.01 0)"/>
    <path id="BU" class="cls-1" d="M246.28,105.39c0,.06,0,.1.18.06S246.55,105.39,246.28,105.39Zm.59-2.72-1.33-.13c-.06,0-1.15-.66-1.28-.66h-1.79c-.06,0-1,1-1.07.94s.19-2.26.13-2.27.46-2,.4-2,1.12-1.82,1.07-1.82S244.12,95,244.07,95s-.88-.92-.94-.93-.48-1.59-.53-1.61l-1.6-.8s-1.68.55-1.74.54-2.88-.12-2.93-.14-2-1.59-2-1.6-1-.79-1.06-.8-.08-1.72-.14-1.73-.08-1.33-.13-1.34-1,.81-1.07.8-.88-.52-.93-.53-.62-2.13-.67-2.14l-1.87-.53c-.06,0-1.41.54-1.47.53s-1.41.68-1.47.67-1.68.55-1.73.53l-2.24-.18c-.06,0-1.28-1.46-1.34-1.47s-1-1.72-1.06-1.73,1.39-.53,1.33-.54,1.39-.65,1.34-.67.85-1.85.8-1.86,1.39-.53,1.33-.54.59-.92.54-.93-1.28-1.46-1.34-1.47-.21-2-.27-2-.74-2.13-.8-2.14-1.41-.79-1.47-.8-.74-1.59-.8-1.6-1.32-1.56-1.37-1.56-.89-1.5-.89-1.51-.61-1.32-.66-1.34-1.79.57-1.56,1.29-.12,1-.18,1-.09-1.91-.71-1.81a6.27,6.27,0,0,0-1.6.68L211,66.59h-1.73c-.05,0-.35,1.62-.4,1.6s-.48,1.62-.54,1.61-1.28.81-1.33.8-1.81-.66-1.87-.67.19,1,.13.93-.74,1.48-.8,1.47-1.68.15-1.73.13-.35,1.62-.4,1.61-.75,1.21-.8,1.2-1.68.28-1.74.27l-2.67-.14-2.58-.55s-1.14-1.72-1.2-1.74l-1.6-.53s-1.28.81-1.33.8H189c-.06,0-.61-1.59-.67-1.6s-1.68-.79-1.73-.8-1.41-.79-1.47-.8a12.34,12.34,0,0,1-2,.28c0-.14-1.2,1.2-1.25,1.18s-.21,1.62-.27,1.61.59,1.48.53,1.46,1.26.55,1.21.54,1.65-.92,1.6-.94l1.07.4v1.87a14.59,14.59,0,0,0,0,1.62c0-.14-.93.93-1,.92s-2,.15-2,.13-2.21.82-2.22.82h0l-1.69,1.28-.53,1.2L177.29,84l-1.07,1.73-.67,2,.4,2.4.94,2,1.73,1.34,2.54.53,2.27-.27,2-.93,2.53.93,2.14.14,1.07,1.33.67,1.91.26,2.27-.4,1.33h-3.6l-1.74.27,1.87,1.2,2.27.54h1.87l4,.66.8,1.34-.26,2,1.47,4.41.8,1.86.66,1.72.54,1.33,1.6,1.74,2.54.4,2.13.67,1.6.4,2.14.16.13-2.43v-1.6l1.75.87,1.19-.34v-1.2l-1.47-.94-.67-1.06,1.07-.54,1.47-1,.4-2,1.34-.4-1.34-1.87,1.34-.67h1.24l.8-1.74.8-.93,1.2-.13.67-1.34,1.2-1.73a9.42,9.42,0,0,1,1.26-.66c.13,0,1.46.27,1.41.26s1.52,1.08,1.47,1.06,1.65,1.08,1.6,1.07,1,.16,1.77.21a9.82,9.82,0,0,1,1.43.19s1.13,1.35,1.07,1.34,1.12,1.61,1.07,1.6l1.6.27,1.92-.12a13.37,13.37,0,0,1,1.68,1.32s.73,1.34.67,1.33.46,1,.4.94,1-.93.94-.94.59-1.72.53-1.73,1.66-1.19,1.6-1.2h2c-.06,0,1.67-.1,2.35-.09,0-.24.77-1,.72-1s-.07-1.59-.13-1.6Zm-42.4-39.4c0-.06.85-.17.83-.23s.85-1.07.82-1.12.55-1.07.53-1.13l-.3-.9a8.44,8.44,0,0,0-1.1.28c0-.07-1,.68-1,.62s-1.63.66-1.65.6.54,1.18.52,1.13,1.37.78,1.35.73ZM201.69,69l.15-.75-.87-.55-.7.55.67.82Zm-13.21-2.33,1-.53,1.2-.82,1.28-.83,1-.45.83-1.2.07-.83-.82.23-1,.52-1,.6h-2.86l-1,.83L185.9,65l-.15.68,1.58.3ZM156.42,92.93l.52-1-2-.32-1.67-.13L151.76,91h-1l.68,1,.4,1.18-.23.9,1,.37,1.43.68,1.8,1.13,1.2.07.37-1-1-1.13Zm-5,2.76h0l-1.07.69,1,.83,1.2-.53-.15-1Z" transform="translate(0.01 0)"/>
    <rect id="LO-button" class="cls-2" x="256.06" y="184.81" width="53" height="20" rx="3"/>
    <rect id="RW-button" class="cls-2" x="157.8" y="272.61" width="53" height="20" rx="3"/>
    <rect id="NI-button" class="cls-2" x="157.8" y="295.87" width="53" height="20" rx="3"/>
    <rect id="KU-button" class="cls-2" x="191.73" y="364.99" width="53" height="20" rx="3"/>
    <rect id="LU-button" class="cls-2" x="407.85" y="232.45" width="53" height="20" rx="3"/>
  </g>
  <g id="BA-text">
    <g>
      <text class="cls-3" transform="translate(72.56 204.7)">B</text>
      <text class="cls-4" transform="translate(80.04 204.7)">A</text>
      <text class="cls-5" x="0.01"/>    </g>
  </g>
  <g id="NN-text">
    <g>
      <text class="cls-3" transform="translate(70.72 254.16)">NN</text>
      <text class="cls-5" x="0.01"/>    </g>
  </g>
  <g id="RA-text">
    <g>
      <text class="cls-3" transform="translate(131.52 189.2)">R</text>
      <text class="cls-4" transform="translate(139 189.2)">A</text>
      <text class="cls-5" x="0.01"/>    </g>
  </g>
  <g id="TA-text">
    <g>
      <text class="cls-6" transform="translate(169.38 215.35)">T</text>
      <text class="cls-4" transform="translate(174.94 215.35)">A</text>
      <text class="cls-5" x="0.01"/>    </g>
  </g>
  <g id="NT-text">
    <text class="cls-3" transform="translate(138.13 232.45)">NT</text>
  </g>
  <g id="SA-text">
    <text class="cls-3" transform="translate(105.32 270.01)">S<tspan class="cls-7" x="6.9" y="0">A</tspan></text>
  </g>
  <g id="RW-text">
    <text class="cls-8" transform="translate(174.94 286.76)">R<tspan class="cls-9" x="7.08" y="0">W</tspan></text>
  </g>
  <g id="NI-text">
    <text class="cls-3" transform="translate(178.88 310.03)">NI</text>
  </g>
  <g id="KU-text">
    <text class="cls-3" transform="translate(210.61 379.71)">KU</text>
  </g>
  <g id="LO-text">
    <text class="cls-3" transform="translate(275.15 198.91)">LO</text>
  </g>
  <g id="LU-text">
    <text class="cls-3" transform="translate(428.41 246.74)">LU</text>
  </g>
  <g id="MA-text">
    <text id="MA-2" data-name="MA" class="cls-3" transform="translate(246.29 61.99)">M<tspan class="cls-7" x="8.62" y="0">A</tspan></text>
  </g>
  <g id="CK-text">
    <text class="cls-3" transform="translate(281.14 72.33)">CK</text>
  </g>
  <g id="BU-text">
    <text id="MA-3" data-name="MA" class="cls-3" transform="translate(199.26 95.68)">BU</text>
  </g>
</svg>
