<svg xmlns="http://www.w3.org/2000/svg" id="svgdata" viewBox="0 0 959.29 587.1">
   <defs>
      <style>
         .cls-1 {
            fill: #d32626;
         }

         .cls-2,
         .cls-3,
         .cls-4,
         .cls-8 {
            isolation: isolate;
         }

         .cls-3,
         .cls-4,
         .cls-8 {
            font-size: 13.31px;
            fill: #fff;
            font-family: Arial-BoldMT, Arial;
            font-weight: 700;
         }

         .cls-4 {
            letter-spacing: -0.06em;
         }

         .cls-5 {
            letter-spacing: -0.04em;
         }

         .cls-6 {
            letter-spacing: -0.02em;
         }

         .cls-7 {
            letter-spacing: -0.02em;
         }

         .cls-8 {
            letter-spacing: -0.07em;
         }
      </style>
      <style>
         * {
            -webkit-user-select: none; /* Safari */        
            -moz-user-select: none; /* Firefox */
            -ms-user-select: none; /* IE10+/Edge */
            user-select: none; /* Standard */
         }
         text, text * {
            pointer-events: none;
         }
      </style>
   </defs>
   <g id="outlines">
      <path id="AK" class="cls-1"
         d="M152.1,447.3l-.3,85.4,1.6,1,3.1.2,1.5-1.1h2.6l.2,2.9,7,6.8.5,2.6,3.4-1.9.6-.2.3-3.1,1.5-1.6,1.1-.2,1.9-1.5,3.1,2.1.6,2.9,1.9,1.1,1.1,2.4,3.9,1.8,3.4,6,2.7,3.9,2.3,2.7,1.5,3.7,5,1.8,5.2,2.1,1,4.4.5,3.1-1,3.4-1.8,2.3-1.6-.8-1.5-3.1-2.7-1.5-1.8-1.1-.8.8,1.5,2.7.2,3.7-1.1.5-1.9-1.9-2.1-1.3.5,1.6,1.3,1.8-.8.8a3.19,3.19,0,0,1-1.3-1c-.5-.6-2.1-3.4-2.1-3.4l-1-2.3s-.3,1.3-1,1a5.05,5.05,0,0,1-1.3-1.5l1.8-1.9-1.5-1.5v-5h-.8l-.8,3.4-1.1.5-1-3.7-.6-3.7-.8-.5.3,5.7v1.1l-1.5-1.3-3.6-6-2.1-.5-.6-3.7-1.6-2.9-1.6-1.1v-2.3l2.1-1.3-.5-.3-2.6.6-3.4-2.4-2.6-2.9-4.8-2.6-4-2.6,1.3-3.2v-1.6l-1.8,1.6-2.9,1.1-3.7-1.1-5.7-2.4h-5.5l-.6.5-6.5-3.9-2.1-.3-2.7-5.8-3.6.3-3.6,1.5.5,4.5,1.1-2.9,1,.3-1.5,4.4,3.2-2.7.6,1.6-3.9,4.4-1.3-.3-.5-1.9-1.3-.8-1.3,1.1-2.7-1.8-3.1,2.1-1.8,2.1-3.4,2.1-4.7-.2-.5-2.1,3.7-.6v-1.3l-2.3-.6,1-2.4,2.3-3.9v-1.8l.2-.8,4.4-2.3,1,1.3h2.7l-1.3-2.6-3.7-.3-5,2.7-2.4,3.4-1.8,2.6-1.1,2.3-4.2,1.5-3.1,2.6-.3,1.6,2.3,1,.8,2.1-2.7,3.2-6.5,4.2-7.8,4.2-2.1,1.1-5.3,1.1-5.3,2.3,1.8,1.3-1.5,1.5-.5,1.1-2.7-1-3.2.2-.8,2.3h-1l.3-2.4L53,561.9l-2.9,1-3.4-1.3-2.9,1.9H40.6l-2.1,1.3-1.6.8-2.1-.3-2.6-1.1-2.3.6-1,1-1.6-1.1v-1.9l3.1-1.3,6.3.6,4.4-1.6,2.1-2.1,2.9-.6,1.8-.8,2.7.2,1.6,1.3,1-.3,2.3-2.7,3.1-1,3.4-.6,1.3-.3.6.5h.8l1.3-3.7,4-1.5,1.9-3.7,2.3-4.5,1.6-1.5.3-2.6-1.6,1.3-3.4.6-.6-2.4-1.3-.3-1,1-.2,2.9-1.5-.2L65,533.7,63.7,535l-1.1-.5-.3-1.9-4,.2-2.1,1.1-2.6-.3,1.5-1.5.5-2.6-.6-1.9,1.5-1,1.3-.2-.6-1.8v-4.4l-1-1-.8,1.5H49.3l-1.5-1.3-.6-3.9-2.1-3.6v-1l2.1-.8.2-2.1,1.1-1.1-.8-.5-1.3.5-1.1-2.7,1-5,4.5-3.2,2.6-1.6,1.9-3.7,2.7-1.3,2.6,1.1.3,2.4,2.4-.3,3.2-2.4,1.6.6,1,.6h1.6l2.3-1.3.8-4.4s.3-2.9,1-3.4a7.87,7.87,0,0,0,1-1l-1.1-1.9-2.6.8-3.2.8-1.9-.5-3.6-1.8-5-.2-3.6-3.7.5-3.9.6-2.4-2.1-1.8L51.9,463l.5-.8,6.8-.5h2.1l1,1h.6l-.2-1.6,3.9-.6,2.6.3,1.5,1.1L69.2,464l-.5,1.5,2.7,1.6,5,1.8,1.8-1-2.3-4.4-1-3.2,1-.8-3.4-1.9-.5-1.1.5-1.6-.8-3.9-2.9-4.7-2.4-4.2,2.9-1.9h3.2l1.8.6,4.2-.2,3.7-3.6,1.1-3.1,3.7-2.4,1.6,1,2.7-.6,3.7-2.1,1.1-.2,1,.8,4.5-.2,2.7-3.1h1.1l3.6,2.4,1.9,2.1-.5,1.1.6,1.1,1.6-1.6,3.9.3.3,3.7,1.9,1.5,7.1.6,6.3,4.2,1.5-1,5.2,2.6,2.1-.6,1.9-.8,4.8,1.9ZM37,476.2l2.1,5.3-.2,1-2.9-.3-1.8-4-1.8-1.5H30l-.2-2.6,1.8-2.4,1.1,2.4,1.5,1.5Zm-2.6,33.5,3.7.8,3.7,1,.8,1L41,516.2l-3.1-.2-3.4-3.6ZM0,568.7l3.4-2.3,3.4-1,2.6.3.5,1.6,1.9.5,1.9-1.9-.3-1.6,2.7-.6,2.9,2.6-1.1,1.8-4.4,1.1-2.7-.5-3.7-1.1-4.4,1.5-1.6.3Zm48.9-4.5,1.6,1.9,2.1-1.6-1.5-1.3Zm35.3-11.4,1.1,5.8,2.9.8,5-2.9,4.4-2.6L96,551.5l.5-2.4-2.1,1.3-2.9-.8,1.6-1.1,1.9.8,3.9-1.8.5-1.5-2.4-.8.8-1.9-2.7,1.9-4.7,3.6-4.8,2.9ZM126.5,533l2.4-1.5-1-1.8-1.8,1Z"
         transform="translate(0 0)" />
      <path id="HI" class="cls-1"
         d="M224.1,512.9l1.9-3.6,2.3-.3.3.8-2.1,3.1Zm10.2-3.7,6.1,2.6,2.1-.3,1.6-3.9-.6-3.4-4.2-.5-4,1.8Zm30.7,10,3.7,5.5,2.4-.3,1.1-.5,1.5,1.3,3.7-.2,1-1.5-2.9-1.8-1.9-3.7-2.1-3.6-5.8,2.9Zm20.2,8.9,1.3-1.9,4.7,1,.6-.5,6.1.6-.3,1.3-2.6,1.5-4.4-.3Zm5.3,5.2,1.9,3.9,3.1-1.1.3-1.6-1.6-2.1-3.7-.3Zm7-1.2,2.3-2.9,4.7,2.4,4.4,1.1,4.4,2.7v1.9l-3.6,1.8-4.8,1-2.4-1.5Zm16.6,15.6,1.6-1.3,3.4,1.6,7.6,3.6,3.4,2.1,1.6,2.4,1.9,4.4,4,2.6-.3,1.3-3.9,3.2-4.2,1.5-1.5-.6-3.1,1.8-2.4,3.2-2.3,2.9-1.8-.2-3.6-2.6-.3-4.5.6-2.4-1.6-5.7-2.1-1.8-.2-2.6,2.3-1,2.1-3.1.5-1-1.6-1.8Z"
         transform="translate(0 0)" />
      <path id="AL" class="cls-1"
         d="M619.5,460l.6.2,1.3-2.7,1.5-4.4,2.3.6,3.1,6v1l-2.7,1.9,2.7.3,5.2-2.5-.3-7.6-2.5-1.8-2-2,.4-4,10.5-1.5,25.7-2.9,6.7-.6,5.6.1-.5-2.2-1.5-.8-.9-1.1,1-2.6-.4-5.2-1.6-4.5.8-5.1,1.7-4.8-.2-1.7-1.8-.7-.5-3.6-2.7-3.4-2-6.5-1.4-6.7-1.8-5-3.8-16-3.5-7.9-.8-5.6.1-2.2-9,.8-23.4,2.2-12.2.8-.2,6.4.2,16.7-.7,31-.3,14.1,2.8,18.8,1.6,14.7Z"
         transform="translate(0 0)" />
      <path id="AR" class="cls-1"
         d="M578.3,339.7l-6.4-.7.9-3.1,3.1-2.6.6-2.3-1.8-2.9-31.9,1.2-23.3.7-23.6.3,1.5,6.9.1,8.5,1.4,10.9.3,38.2,2.1,1.6,3-1.2,2.9,1.2.4,10.1,25.2-.2,26.8-.8.9-1.9-.3-3.8-1.7-3.1,1.5-1.4-1.4-2.2.7-2.4,1.1-5.9,2.7-2.3-.8-2.2,4-5.6,2.5-1.1-.1-1.7-.5-1.7,2.9-5.8,2.5-1.1.2-3.3,2.1-1.4.9-4.1-1.4-4,4.2-2.4.3-2.1,1.2-4.2.9-3.1Z"
         transform="translate(0 0)" />
      <path id="AZ" class="cls-1"
         d="M126.1,383.3l-.3,1.5.5,1,18.9,10.7,12.1,7.6,14.7,8.6,16.8,10,12.3,2.4,25.4,2.7,6-39.6,7-53.1,4.4-31-24.6-3.6-60.7-11-.2,1.1-2.6,16.5-2.1,3.8-2.8-.2-1.2-2.6-2.6-.4-1.2-1.1-1.1.1-2.1,1.7-.3,6.8-.3,1.5-.5,12.5-1.5,2.4-.4,3.3,2.8,5,1.1,5.5.7,1.1,1.1.9-.4,2.4-1.7,1.2-3.4,1.6-1.6,1.8-1.6,3.6-.5,4.9-3,2.9-1.9.9-.1,5.8-.6,1.6.5.8,3.9.4-.9,3-1.7,2.4-3.7.4Z"
         transform="translate(0 0)" />
      <path id="CA" class="cls-1"
         d="M113.7,379.5,94,376.8l-10-1.5-.5-1.8v-9.4l-.3-3.2-2.6-4.2-.8-2.3-3.9-4.2L73,345.5l-2.7-.2-3.2-.8-.3-1,1.5-.6-.6-3.2-1.5-2.1-4.8-.8-3.9-2.1-1.1-2.3-2.6-4.8-2.9-3.1H48l-3.9-2.1-4.5-1.8-4.2-.5L33,317.4l.5-1.9,1.8-7.1.8-1.9v-2.4l-1.6-1-.5-2.9-1.5-2.6-3.4-5.8-1.3-3.1L26.3,284l-1.6-5.3-3.2-4.4-.5-2.9.8-3.9h1.1l2.1-1.6,1.1-3.6-1-2.7-2.7-.5-1.9-2.6-2.1-3.7-.2-8.2.6-1.9.6-2.3.5-2.4-5.7-6.3v-2.1l.3-.5.3-3.2-1.3-4-2.3-4.8-2.7-4.5-1.8-3.9,1-3.7.6-5.8,1.8-3.1.3-6.5L9.3,186l-1.6-4.2L5,177.6l.8-3.2,1.5-4.2,1.8-.8.3-1.1,3.1-2.6,5.2-11.8.2-7.4,1.69-4.9,38.69,11.8,25.6,6.6-8,31.3-8.67,33.1,12.63,19.2L122,305.9,139.1,332l-.4,3.1,2.8,5.2,1.1,5.4,1,1.5.7.6-.2,1.4-1.4,1-3.4,1.6-1.9,2.1-1.7,3.9-.5,4.7-2.6,2.5-2.3,1.1-.1,6.2-.6,1.9,1,1.7,3,.3-.4,1.6-1.4,2-3.9.6ZM39.8,330.6l1.3,1.5-.2,1.3-3.2-.1-.6-1.2-.6-1.5Zm1.9,0,1.2-.6,3.6,2.1,3.1,1.2-.9.6-4.5-.2-1.6-1.6Zm20.7,19.8,1.8,2.3.8,1,1.5.6.6-1.5-1-1.8-2.7-2-1.1.2v1.2ZM61,359.1l1.8,3.2,1.2,1.9-1.5.2-1.3-1.2a9.84,9.84,0,0,1-.7-1.9v-2.2Z"
         transform="translate(0 0)" />
      <path id="CO" class="cls-1"
         d="M371.2,229.1l-36-3.5L256.1,217l-2.2,22.1-7,50.4L245,303.2l34,3.9,37.5,4.4,34.7,3,14.3.6Z"
         transform="translate(0 0)" />
      <path id="CT" class="cls-1"
         d="M843,184.5l3.6-3.2,1.9-2.1.8.6,2.7-1.5,5.2-1.1,7-3.5-.6-4.2-.8-4.4-1.6-6-4.3,1.1-21.8,4.7.6,3.1,1.5,7.3v8.3l-.9,2.1,1.7,2.2Z"
         transform="translate(0 0)" />
      <path id="DE" class="cls-1"
         d="M825.4,240.8l-1,.5-3.6-2.4-1.8-4.7-1.9-3.6-2.3-1-2.1-3.6.5-2,.5-2.3.1-1.1-.6.1-1.7,1-2,1.7-.2.3,1.4,4.1,2.3,5.6,3.7,16.1,5-.3,6-1.1Z"
         transform="translate(0 0)" />
      <path id="FL" class="cls-1"
         d="M741.2,438.8l-5.2-.7-.7.8,1.5,4.4-.4,5.2-4.1-1-.2-2.8H728l-5.3.7-32.4,1.9-8.2-.3-1.7-1.7-2.5-4.2H672l-6.6.5L630,445.8l-.3,2.8,1.6,1.6,2.9,2,.3,8.4,3.3-.6,6-2.1,6-.5,4.4-.6,7.6,1.8,8.1,3.9,1.6,1.5,2.9,1.1L676,467l.3,2.7,3.2-1.3h3.9l3.6-1.9,3.7-3.6,3.1.2.5-1.1-.8-1,.2-1.9,4-.8h2.6l2.9,1.5,4.2,1.5,2.4,3.7,2.7,1,1.1,3.4L717,471l1.6,2.6,1.9.6,5.2,1.3,1.3,3.1,3,3.7v9.5l-1.5,4.7.3,2.7,1.3,4.8,1.8,4,.8-.5,1.5-4.5-2.6-1-.3-.6,1.6-.6,4.5,1,.2,1.6-3.2,5.5-2.1,2.4,3.6,3.7,2.6,3.1,2.9,5.3,2.9,3.9,2.1,5,1.8.3,1.6-2.1,1.8,1.1,2.6,4,.6,3.6,3.1,4.4.8-1.3,3.9.3,3.6,2.3,3.4,5.2.8,3.4.3,2.9,1.1,1,1.3.5,2.4-1,1.5-1.6,3.9-.2,3.1-1.5,2.7-3.2-.5-1.9-.3-2.4.6-1.9-.3-1.9,2.4-1.3.3-3.4-.6-1.8-.5-12-1.3-7.6L782,508l-3.6-5.8-2.6-5.3-2.9-2.9-2.9-7.4.7-1.4,1.1-1.3-1.6-2.9-4-3.7-4.8-5.5-3.7-6.3-5.3-9.4-3.7-9.7-2.3-7.3Zm17.7,132.7,2.4-.6,1.3-.2,1.5-2.3,2.3-1.6,1.3.5,1.7.3.4,1.1-3.5,1.2-4.2,1.5-2.3,1.2Zm13.5-5,1.2,1.1,2.7-2.1,5.3-4.2,3.7-3.9,2.5-6.6,1-1.7.2-3.4-.7.5-1,2.8-1.5,4.6-3.2,5.3-4.4,4.2-3.4,1.9Z"
         transform="translate(0 0)" />
      <path id="GA" class="cls-1"
         d="M741.2,437.8l-5.6-.7-1.4,1.6,1.6,4.7-.3,3.9-2.2-.6-.2-3h-5.2l-5.3.7-32.3,1.9-7.7-.3-1.4-1.2-2.5-4.3-.8-3.3-1.6-.9-.5-.5.9-2.2-.4-5.5-1.6-4.5.8-4.9,1.7-4.8-.2-2.5-1.9-.7-.4-3.2-2.8-3.5-1.9-6.2-1.5-7-1.7-4.8L663,370l-3.5-8-.8-5.3.1-2.3,3.3-.3,13.6-1.6,18.6-2,6.3-1.1.5,1.4-2.2.9-.9,2.2.4,2,1.4,1.6,4.3,2.7,3.2-.1,3.2,4.7.6,1.6,2.3,2.8.5,1.7,4.7,1.8,3,2.2,2.3,3,2.3,1.3,2,1.8,1.4,2.7,2.1,1.9,4.1,1.8,2.7,6,1.7,5.1,2.8.7,2.1,1.9,2,5.7,2.9,1.6,1.7-.8.4,1.2-3.3,6.2.5,2.6-1.5,4.2-2.3,10,.8,6.3Z"
         transform="translate(0 0)" />
      <path id="IA" class="cls-1"
         d="M547.8,177.2l2.1,2.1.3.7-2,3,.3,4,2.6,4.1,3.1,1.6,2.4.3.9,1.8.2,2.4,2.5,1,.9,1.1.5,1.6,3.8,3.3.6,1.9-.7,3-1.7,3.7-.6,2.4-2.1,1.6-1.6.5-5.7,1.5-1.6,4.8.8,1.8,1.7,1.5-.2,3.5-1.9,1.4-.7,1.8V236l-1.4.4-1.7,1.4-.5,1.7.4,1.7-1.3,1-2.3-2.7-1.4-2.8-8.3.8-10,.6L476,239.3l-1.6-4.3-.48-6.85L472.48,222l-.58-3.09-2.2-3.7-1-4.6-2.7-7.8-.87-6.25-2.93-4.15,1.7-3.8,1.2-6.1-2.7-2.2-.3-2.4.7-2.4,1.8-.3,61.1-.6,21.2-.7Z"
         transform="translate(0 0)" />
      <path id="ID" class="cls-1"
         d="M166.3,21.23,161.5,38.6,157,59.5l-3.4,16.22-.4,9.67,1.2,4.44,3.5,2.66-.2,3.91-3.9,4.4-4.5,6.6-.9,2.9-1.2,1.1-1.8.8-4.3,5.3-.4,3.1-.4,1.1.6,1,2.6-.1,1.1,2.3-2.4,5.8-1.2,4.2-8.8,35.3,20.7,4.5,39.5,7.9,34.8,6.1,4.9-29.2,3.8-24.1-2.7-2.4-.4-2.6-.8-1.1-2.1,1-.7,2.6-3.2.5-3.9-1.6-3.8.1-2.5.7-3.4-1.5-2.4.2-2.4,2-2-1.1-.7-4,.7-2.9-2.5-2.9-3.3-2.6-2.7-13.1L197,102l-.3-.1-.2.4-5.1,3.5-1.7-.2-2.9-3.4-.2-3.1,7-17.13L193.2,80l-3.4-1.15-.6-1.18-2.6-3.46L182,64l-3.2-1.53-2-4.95,1.3-4.63-3.2-7.58,4.4-21.52Z"
         transform="translate(0 0)" />
      <path id="IL" class="cls-1"
         d="M609.7,207.9l-.8-2.6-1.3-3.7-1.6-1.8-1.5-2.6-.4-5.5-15.9,1.8-17.4,1H558.5l.2,2.1,2.2.9,1.1,1.4.4,1.4,3.9,3.4.7,2.4-.7,3.3-1.7,3.7-.8,2.7-2.4,1.9-1.9.6-5.2,1.3-1.3,4.1.6,1.1,1.9,1.8-.2,4.3-2.1,1.6-.5,1.3v2.8l-1.8.6-1.4,1.2-.4,1.2.4,2-1.6,1.3-.9,2.8.3,3.9,2.3,7,7,7.6,5.7,3.7v4.4l.7,1.2,6.6.6,2.7,1.4-.7,3.5-2.2,6.2-.8,3,2,3.7,6.4,5.3,4.8.8,2.2,5.1,2,3.4-.9,2.8,1.5,3.8,1.7,2.1,1.6-.3,1-2.2,2.4-1.7,2.8-1,6.1,2.5.5-.2v-1.1l-1.2-2.7.4-2.8,2.4-1.6,3.4-1.2-.5-1.3-.8-2,1.2-1.3,1-2.7v-4l.4-4.9,2.5-3,1.8-3.8,2.5-4-.5-5.3-1.8-3.2-.3-3.3.8-5.3-.7-7.2-1.1-15.8-1.4-15.3-.9-11.7Z"
         transform="translate(0 0)" />
      <path id="IN" class="cls-1"
         d="M613.9,209.7l1.5,1,1.1-.3,2.1-1.9,2.5-1.8,14.3-1.1,18.4-1.8,1.6,15.5,4.9,42.6-.6,2.9,1.3,1.6.2,1.3-2.3,1.6-3.6,1.7-3.2.4-.5,4.8-4.7,3.6-2.9,4,.2,2.4-.5,1.4h-3.5l-1.4-1.7-5.2,3,.2,3.1-.9.2-.5-.9-2.4-1.7-3.6,1.5L625,294l-1.2-.6-1.6-1.8-4.4.5-5.7,1-2.5,1.3v-2.6l.4-4.7,2.3-2.9,1.8-3.9,2.7-4.2-.5-5.8-1.8-3.1-.3-3.2.8-5.3-.7-7.1-.9-12.6-2.5-30.1Z"
         transform="translate(0 0)" />
      <path id="KS" class="cls-1"
         d="M476.9,253.1l-43.8-.6-40.6-1.2-21.7-.9-4.3,64.8,24.3,1,44.7,2.1,46.3.6,12.6-.3.7-35-1.2-11.1-2.5-2-2.4-3-2.3-3.6.6-3,1.7-1.4v-2.1l-.8-.7-2.6-.2-3.5-3.4Z"
         transform="translate(0 0)" />
      <path id="KY" class="cls-1"
         d="M598.2,325.4l12.6-.7.1-4.1h4.3l30.4-3.2,45.1-4.3,5.6-3.6,3.9-2.1.1-1.9,6-7.8,4.1-3.6,2.1-2.4-3.3-2-2.5-2.7-3-3.8-.5-2.2-2.6-1.4-.9-1.9-.2-6.1-2.6-2-1.9-1.1-.5-2.3-1.3.2-2,1.2-2.5,2.7-1.9-1.7-2.5-.5-2.4,1.4h-2.3l-1.8-2-5.6-.1-1.8-4.5-2.9-1.5-2.1.8-4.2.2-.5,2.1,1.2,1.5.3,2.1-2.8,2-3.8,1.8-2.6.4-.5,4.5-4.9,3.6-2.6,3.7.2,2.2-.9,2.3-4.5-.1-1.3-1.3-3.9,2.2.2,3.3-2.4.6-.8-1.4-1.7-1.2-2.7,1.1-1.8,3.5-2.2-1-1.4-1.6-3.7.4-5.6,1-2.8,1.3-1.2,3.4-1,1,1.5,3.7-4.2,1.4-1.9,1.4-.4,2.2,1.2,2.4v2.2l-1.6.4L596,311l-2.3.9-2,1.4-.8,1.8,1.7,2.4-.9,1.8-.1,3.3-2.4,1.3-2.1,1.7Z"
         transform="translate(0 0)" />
      <path id="LA" class="cls-1"
         d="M517.9,479.5l8.1-.3,10.3,3.6,6.5,1.1,3.7-1.5,3.2,1.1,3.2,1,.8-2.1-3.2-1.1-2.6.5-2.7-1.6.8-1.5,3.1-1,1.8,1.5,1.8-1,3.2.6,1.5,2.4.3,2.3,4.5.3,1.8,1.8-.8,1.6-1.3.8,1.6,1.6,8.4,3.6,3.6-1.3,1-2.4,2.6-.6,1.8-1.5,1.3,1,.8,2.9-2.3.8.6.6,3.4-1.3L587,488l.8-.5-2.1-.3.8-1.6-.2-1.5,2.1-.5,1.1-1.3.6.8.6,3.1,4.2.6,4,1.9,1,1.5h2.9l1.1,1,2.3-3.1v-1.5h-1.3l-3.4-2.7-5.8-.8-3.2-2.3,1.1-2.7,2.3.3.2-.6-1.8-1v-.5h3.2l1.8-3.1-1.3-1.9-.3-2.7-1.5.2-1.9,2.1-.6,2.6-3.1-.6-1-1.8,1.8-1.9,1.9-1.7-2.2-6.5-3.4-3.4,1-7.3-.2-.5-1.3.2-33.1,1.4-.8-2.4.8-8.5,8.6-14.8-.9-2.6,1.4-.4.4-2-2.2-2,.1-1.9-2-4.5-.4-5.1.1-.7-26.4.8-25.2.1.4,9.7.7,9.5.5,3.7,2.6,4.5.9,4.4,4.3,6,.3,3.1.6.8-.7,8.3-2.8,4.6,1.2,2.4-.5,2.6-.8,7.3-1.3,3,.2,3.7Z"
         transform="translate(0 0)" />
      <path id="MA" class="cls-1"
         d="M878.5,166.1l-.5-2.3.8-1.5,2.9-1.5.8,3.1-.5,1.8-2.4,1.5v1l1.9-1.5,3.9-4.5,3.9-1.9,4.2-1.5-.3-2.4-1-2.9-1.9-2.4-1.8-.8-2.1.2-.5.5,1,1.3,1.5-.8,2.1,1.6.8,2.7-1.8,1.8-2.3,1-3.6-.5-3.9-6-2.3-2.6h-1.8l-1.1.8-1.9-2.6.3-1.5,2.4-5.2-2.9-4.4-3.7,1.8-1.8,2.9L848.6,146l-13.8,2.5-.6,10.6.7,4.9,22-4.8,11.2-2.8,2,1.6,3.4,4.3,2.9,4.7Zm12.5,1.4,2.2-.7.5-1.7,1,.1,1,2.3-1.3.5-3.9.1Zm-9.4.8,2.3-2.6h1.6l1.8,1.5-2.4,1-2.2,1Z"
         transform="translate(0 0)" />
      <path id="MD" class="cls-1"
         d="M825.8,257.7l1.7-3.8.5-4.8-6.3,1.1-5.8.3-3.8-16.8-2.3-5.5-1.5-4.6-22.2,4.3-37.6,7.6,2,10.4,4.8-4.9,2.5-.7,1.4-1.5,1.8-2.7,1.6.7,2.6-.2,2.6-2.1,2-1.5,2.1-.6,1.5,1.1,2.7,1.4,1.9,1.8,1.3,1.4,4.8,1.6-.6,2.9,5.8,2.1,2.35,1.13,1.5,1.76-.85,3.61-1.8,2.6v2.1l.3.8,2,1.3,3.4,1.1,4.3-.1,3.1,1,2.1.3,1-2.1-1.5-2.1v-1.8l-2.4-2.1-2.1-5.5,1.3-5.3-.2-2.1-1.3-1.3s1.5-1.6,1.5-2.3a10.71,10.71,0,0,1,.5-2.1l1.9-1.3,1.9-1.6.5,1-1.5,1.6L804,237l.3,1.1,1.8.3.5,5.5-2.1,1,.3,3.6.5-.2,1.1-1.9,1.6,1.8-1.6,1.3-.3,3.4,2.6,3.4,3.9.5,1.6-.8,3.2,4.2,1,.4Zm-14.5.2,1.1,2.5.2,1.8,1.1,1.9s.9-.9.9-1.2-.7-3.1-.7-3.1l-.7-2.3Z"
         transform="translate(0 0)" />
      <path id="MI" class="cls-1"
         d="M635.5,204.6l19.1-1.9.2,1.1,9.9-1.5,12-1.7.1-.6.2-1.5,2.1-3.7,2-1.7-.2-5.1,1.6-1.6,1.1-.3.2-3.6,1.5-3,1.1.6.2.6.8.2,1.9-1-.4-9.1-3.2-8.2-2.3-9.1-2.4-3.2-2.6-1.8-1.6,1.1-3.9,1.8-1.9,5-2.7,3.7-1.1.6-1.5-.6s-2.6-1.5-2.4-2.1.5-5,.5-5l3.4-1.3.8-3.4.6-2.6,2.4-1.6-.3-10-1.6-2.3-1.3-.8-.8-2.1.8-.8,1.6.3.2-1.6-2.6-2.2-1.3-2.6h-2.6l-4.5-1.5-5.5-3.4h-2.7l-.6.6-1-.5-3.1-2.3-2.9,1.8-2.9,2.3.3,3.6,1,.3,2.1.5.5.8-2.6.8-2.6.3-1.5,1.8-.3,2.1.3,1.6.3,5.5-3.6,2.1-.6-.2V134l1.3-2.4.6-2.4-.8-.8-1.9.8-1,4.2-2.7,1.1-1.8,1.9-.2,1,.6.8-.6,2.6-2.3.5v1.1l.8,2.4-1.1,6.1-1.6,4,.6,4.7.5,1.1-.8,2.4-.3.8-.3,2.7,3.6,6,2.9,6.5,1.5,4.8-.8,4.7-1,6-2.4,5.2-.3,2.7-3.2,3.1Zm-33.3-72.4-1.3-1.1-1.8-10.4-3.7-1.3-1.7-2.3-12.6-2.8-2.8-1.1-8.1-2.2-7.8-1-3.9-5.3.7-.5,2.7-.8,3.6-2.3v-1l.6-.6,6-1,2.4-1.9,4.4-2.1.2-1.3,1.9-2.9,1.8-.8,1.3-1.8,2.3-2.3,4.4-2.4,4.7-.5,1.1,1.1-.3,1-3.7,1-1.5,3.1-2.3.8-.5,2.4-2.4,3.2-.3,2.6.8.5,1-1.1,3.6-2.9,1.3,1.3h2.3l3.2,1,1.5,1.1,1.5,3.1,2.7,2.7,3.9-.2,1.5-1,1.6,1.3,1.6.5,1.3-.8h1.1l1.6-1,4-3.6,3.4-1.1,6.6-.3,4.5-1.9,2.6-1.3,1.5.2v5.7l.5.3,2.9.8,1.9-.5,6.1-1.6,1.1-1.1,1.5.5v7l3.2,3.1,1.3.6,1.3,1-1.3.3-.8-.3-3.7-.5-2.1.6-2.3-.2-3.2,1.5h-1.8l-5.8-1.3-5.2.2-1.9,2.6-7,.6-2.4.8-1.1,3.1-1.3,1.1-.5-.2-1.5-1.6-4.5,2.4h-.6l-1.1-1.6-.8.2-1.9,4.4-1,4-3.2,6.9ZM572.6,75.7l1.8-2.1,2.2-.8,5.4-3.9,2.3-.6.5.5-5.1,5.1-3.3,1.9-2.1.9Zm86.2,32.1.6,2.5,3.2.2,1.3-1.2s-.1-1.5-.4-1.6a19.37,19.37,0,0,1-1.6-1.9l-2.2.2-1.6.2-.3,1.1Z"
         transform="translate(0 0)" />
      <path id="MN" class="cls-1"
         d="M455.6,60.39,455,64.3V74.6l1.6,5,1.9,3.32.5,9.93,1.8,13.45,1.8,7.3.4,6.4v5.3l-1.6,1.8-1.8,1.3v1.5l.9,1.7,4.1,3.5.7,3.2v35.9l60.3-.6,21.2-.7-.5-6-1.8-2.1-7.2-4.6-3.6-5.3-3.4-.9-2-2.8h-3.2l-3.5-3.8-.5-7,.1-3.9,1.5-3-.7-2.7-2.8-3.1,2.2-6.1,5.4-4,1.2-1.4-.2-8,.2-3,2.6-3,3.8-2.9,1.3-.2,4.5-5,1.8-.8,2.3-3.9,2.4-3.6,3.1-2.6,4.8-2,9.2-4.1,3.9-1.8.6-2.3-4.4.4-.7,1.1h-.6l-1.8-3.1-8.9.3-1,.8h-1l-.5-1.3-.8-1.8-2.6.5-3.2,3.2-1.6.8h-3.1l-2.6-1V70.8l-1.3-.2-.5.5-2.6-1.3-.5-2.9-1.5.5-.5,1-2.4-.5-5.3-2.4L517,62.9h-2.9l-1.3-1-2.3.6-1.1,1.1-.3,1.3h-4.8V62.8l-6.3-.3-.3-1.5h-4.8l-1.6-1.6-1.5-6.1-.8-5.5-1.9-.8-2.3-.5-.6.2-.3,8.2H453.8Z"
         transform="translate(0 0)" />
      <path id="MO" class="cls-1"
         d="M584.1,332.3l.5-5.9,4.2-3.4,1.9-1v-2.9l.7-1.6-1.1-1.6-2.4.3-2.1-2.5-1.7-4.5.9-2.6-2-3.2-1.8-4.6-4.6-.7-6.8-5.6-2.2-4.2.8-3.3,2.2-6,.6-3-1.9-1-6.9-.6-1.1-1.9v-4.1l-5.3-3.5-7.2-7.8-2.3-7.3-.5-4.2.7-2.4-2.6-3.1-1.2-2.4-7.7.8-10,.6-48.8,1.2,1.3,2.6-.1,2.2,2.3,3.6,3,3.9,3.1,3,2.6.2,1.4,1.1v2.9l-1.8,1.6-.5,2.3,2.1,3.2,2.4,3,2.6,2.1,1.3,11.6-.8,40,.5,5.7,23.7-.2,23.3-.7,32.5-1.3,2.2,3.7-.8,3.1-3.1,2.5-.5,1.8,5.2.5,4.1-1.1Z"
         transform="translate(0 0)" />
      <path id="MS" class="cls-1"
         d="M595.3,466.1l2.6-4.2,1.8.8,6.8-1.9,2.1.3,1.5.8h5.2l.4-1.6L614,445.5l-2.8-19,1-45.1-.2-16.7.2-6.3-4.8.3-19.6,1.6-13,.4-.2,3.2-2.8,1.3-2.6,5.1.5,1.6.1,2.4-2.9,1.1-3.5,5.1.8,2.3-3,2.5-1,5.7-.6,1.9,1.6,2.5-1.5,1.4,1.5,2.8.3,4.2-1.2,2.5-.2.9.4,5,2,4.5-.1,1.7,2.3,2-.7,3.1-.9.3.6,1.9-8.6,15-.8,8.2.5,1.5,24.2-.7,8.2-.7,1.9-.3.6,1.4-1,7.1,3.3,3.3,2.2,6.4Z"
         transform="translate(0 0)" />
      <path id="MT" class="cls-1"
         d="M352.1,64.37l-5.3,57.13-1.3,15.2-59.1-6.6-49-7.1L236,134.2l-1.9-1.7-.4-2.5-1.3-1.9-3.3,1.5-.7,2.5-2.3.3-3.8-1.6-4.1.1-2.4.7-3.2-1.5-3,.2-2.1,1.9-.9-.6-.7-3.4.7-3.2-2.7-3.2-3.3-2.5-2.5-12.6-.1-5.3-1.6-.8-.6,1-4.5,3.2-1.2-.1-2.3-2.8-.2-2.8,7-17.15-.6-2.67-3.5-1.12-.4-.91-2.7-3.5-4.6-10.41-3.2-1.58-1.8-4.26,1.3-4.63-3.2-7.57L180.3,24,213,30.9l18.4,3.4,32.3,5.3,29.3,4,29.2,3.5L353,50.17Z"
         transform="translate(0 0)" />
      <path id="NC" class="cls-1"
         d="M777.7,351.3,765,343.6l-3.1-.8-16.6,2.1-1.6-3-2.8-2.2-16.7.5-7.4.9-9.2,4.5-6.8,2.7-6.5,1.2-13.4,1.4.1-4.1,1.7-1.3,2.7-.7.7-3.8,3.9-2.5,3.9-1.5,4.5-3.7,4.4-2.3.7-3.2,4.1-3.8.7,1,2.5.2,2.4-3.6,1.7-.4,2.6.3,1.8-4,2.5-2.4.5-1.8.1-3.5,4.4.1,38.5-5.6L822.8,292l2,4.8,3.6,6.5,2.4,2.4.6,2.3-2.4.2.8.6-.3,4.2-2.6,1.3-.6,2.1-1.3,2.9-3.7,1.6-2.4-.3-1.5-.2-1.6-1.3.3,1.3v1H818l.8,1.3-1.9,6.3h4.2l.6,1.6,2.3-2.3,1.3-.5-1.9,3.6-3.1,4.8H819l-1.1-.5-2.7.6-5.2,2.4-6.5,5.3-3.4,4.7-1.9,6.5-.5,2.4-4.7.5-5.1,1.5ZM827,325.1l2.6-2.5,3.2-2.6,1.5-.6.2-2-.6-6.1-1.5-2.3-.6-1.9.7-.2,2.7,5.5.4,4.4-.2,3.4-3.4,1.5-2.8,2.4-1.1,1.2Z"
         transform="translate(0 0)" />
      <path id="ND" class="cls-1"
         d="M462,120l-.4-6.2-1.8-7.3L458,92.89l-.5-9.7L455.6,80,454,74.69V64.28l.6-3.85-1.8-5.54-28.6-.59-18.6-.6-26.5-1.3-25.2-2.16L353,64.66l-4.7,50.94,56.8,3.9,56.9,1.7Z"
         transform="translate(0 0)" />
      <path id="NH" class="cls-1"
         d="M872.7,134.9l1.1-3.2-2.7-1.2-.5-3.1-4.1-1.1-.3-3L854.5,85.82l-.7.08-.6,1.6-.6-.5-1-1-1.5,1.9-.2,2.29.5,8.41,1.9,2.8v4.3l-3.9,4.8-2.4.9v.7l1.1,1.9v8.6l-.8,9.2-.2,4.7,1,1.4-.2,4.7-.5,1.5,1,1.1,5.1-1.2,13.8-3.5,1.7-2.9,4-1.9Z"
         transform="translate(0 0)" />
      <path id="NJ" class="cls-1"
         d="M814.7,221.9l.1-1.5,2.7-1.3,1.7-2.8,1.7-2.4,3.3-3.2v-1.2l-6.1-4.1-1-2.7-2.7-.3-.1-.9-.7-2.2,2.2-1.1.2-2.9-1.3-1.3.2-1.2,1.9-3.1v-3.1l2.5-3.1,5.6,2.5,6.4,1.9,2.5,1.2.1,1.8-.5,2.7.4,4.5-2.1,1.9-1.1,1,.5.5,2.7-.3,1.1-.8,1.6,3.4.2,9.4.6,1.1-1.1,5.5-3.1,6.5-2.7,4-.8,4.8-2.1,2.4h-.8l-.3-2.7.8-1-.2-1.5-4-.6-4.8-2.3-3.2-2.9-1-2Z"
         transform="translate(0 0)" />
      <path id="NM" class="cls-1"
         d="M261.2,423l-16.7-2.6-1.2,9.6-15.8-2,6-39.7,7-53.2,4.4-30.9,34,3.9,37.4,4.4,32,2.8-.3,10.8-1.4-.1-7.4,97.7-28.4-1.8-38.1-3.7.7,6.3Z"
         transform="translate(0 0)" />
      <path id="NV" class="cls-1"
         d="M114.1,167.2l38.7,8.5,26,5.2L168.2,234l-5.4,29.8-3.3,15.5-2.1,11.1-2.6,16.4-1.7,3.1-1.6-.1-1.2-2.6-2.8-.5-1.3-1.1-1.8.1-.9.8-1.8,1.3-.3,7.3-.3,1.5-.5,12.4-1.1,1.8-16.7-25.5L80.7,243.2l-12.43-19,8.55-32.6,8-31.3Z"
         transform="translate(0 0)" />
      <path id="NY" class="cls-1"
         d="M834.4,193.6l.5-2.7-.2-2.4-3-1.5-6.5-2-6-2.6-.6-.4-2.7-.3-2-1.5-2.1-5.9-3.3-.5-2.4-2.4-38.4,8.1-31.6,6-.5-6.5,1.6-1.2,1.3-1.1,1-1.6,1.8-1.1,1.9-1.8.5-1.6,2.1-2.7,1.1-1-.2-1-1.3-3.1-1.8-.2-1.9-6.1,2.9-1.8,4.4-1.5,4-1.3,3.2-.5,6.3-.2,1.9,1.3,1.6.2,2.1-1.3,2.6-1.1,5.2-.5L778,148l1.8-3.2,1.6-1.9h2.1l1.9-1.1.2-2.3-1.5-2.1-.3-1.5,1.1-2.1v-1.5h-1.8l-1.8-.8-.8-1.1-.2-2.6,5.8-5.5.6-.8,1.5-2.9,2.9-4.5,2.7-3.7,2.1-2.4,2.4-1.8,3.1-1.2,5.5-1.3,3.2.2,4.5-1.5,7.4-2.2.7,4.9,2.4,6.5.8,5-1,4.2,2.6,4.5.8,2-.9,3.2,3.7,1.7,2.7,10.2v5.8l-.6,10.9.8,5.4.7,3.6,1.5,7.3v8.1l-1.1,2.3,2.1,2.7.5.9-1.9,1.8.3,1.3,1.3-.3,1.5-1.3,2.3-2.6,1.1-.6,1.6.6,2.3.2,7.9-3.9,2.9-2.7,1.3-1.5,4.2,1.6-3.4,3.6-3.9,2.9-7.1,5.3-2.6,1-5.8,1.9-4,1.1-1-.4Z"
         transform="translate(0 0)" />
      <path id="OH" class="cls-1"
         d="M654.8,204.8l1.7,15.5,4.8,41.1,3.9-.2,2.3-.8,3.6,1.8,1.7,4.2,5.4.1,1.8,2h1.7l2.4-1.4,3.1.5,1.5,1.3,1.8-2,2.3-1.4,2.4-.4.6,2.7,1.6,1,2.6,2,.8.2,2-.1,1.2-.6v-2.1l1.7-1.5.1-4.8,1.1-4.2,1.9-1.3,1,.7,1,1.1.7.2.4-.4-.9-2.7v-2.2l1.1-1.4,2.5-3.6,1.3-1.5,2.2.5,2.1-1.5,3-3.3,2.2-3.7.2-5.4.5-5v-4.6l-1.2-3.2,1.2-1.8,1.3-1.2-.6-2.8L722.5,189l-6.2,3.7-3.9,2.3-3.4,3.7-4,3.9-3.2.8-2.9.5-5.5,2.6-2.1.2-3.4-3.1-5.2.6-2.6-1.5-2.2-1.3Z"
         transform="translate(0 0)" />
      <path id="OK" class="cls-1"
         d="M402.9,328.5l-1.8,24.3-.9,18,.2,1.6,4,3.6,1.7.9h.9l.9-2.1,1.5,1.9,1.6.1.3-.2.2-1.1,2.8,1.4-.4,3.5,3.8.5,2.5,1,4.2.6,2.3,1.6,2.5-1.7,3.5.7,2.2,3.1,1.2.1v2.3l2.1.7,2.5-2.1,1.8.6,2.7.1.7,2.3,4.4,1.8,1.7-.3,1.9-4.2h1.3l1.1,2.1,4.2.8,3.4,1.3,3,.8,1.6-.7.7-2.7h4.5l1.9.9,2.7-1.9h1.4l.6,1.4h3.6l2-1.8,2.3.6,1.7,2.2,3,1.7,3.4.9,1.9,1.2-.3-37.6-1.4-10.9-.1-8.6-1.5-6.6-.6-6.8.1-4.3-12.6.3-46.3-.5-44.7-2.1-41.5-1.8-.4,10.7Z"
         transform="translate(0 0)" />
      <path id="OR" class="cls-1"
         d="M58.44,152.5l28.24,7.2,27.52,6.5,17,3.7,8.8-35.1,1.2-4.4,2.4-5.5-.7-1.3-2.5.1-1.3-1.8.6-1.5.4-3.3,4.7-5.7,1.9-.9.9-.8.7-2.7.8-1.1,3.9-5.7,3.7-4,.2-3.26-3.4-2.49-1.2-4.55-13.1-3.83L123.9,78.6,109.1,79,108,77.66l-5.1,1.84L98.4,79,96,77.44,94.7,78,90,77.69l-2-1.43-4.84-1.77-1.1-.07-4.45-1.27-1.76,1.52-6.26-.24L64.34,70.6l.21-9.28-2-3.5-4.1-.6-.7-2.5-2.4-.5-5.8,2.1-2.3,6.5L44,72.8l-3.2,6.5-5,14.1L29.3,107l-8.1,12.6-1.9,2.9-.8,8.6-1.3,6,2.71,3.5Z"
         transform="translate(0 0)" />
      <path id="PA" class="cls-1"
         d="M727.6,185.8l1.3-.5,5.7-5.5.7,6.9,33.5-6.5,36.9-7.8,2.3,2.3,3.1.4,2,5.6,2.4,1.9,2.8.4.1.1-2.6,3.2v3.1l-1.9,3.1-.2,1.9,1.3,1.3-.2,1.9-2.4,1.1,1,3.4.2,1.1,2.8.3.9,2.5,5.9,3.9v.4l-3.1,3-1.5,2.2-1.7,2.8-2.7,1.2-1.4.3-2.1,1.3-1.6,1.4-22.4,4.3L748,234.6,736.7,236l-3.9.7-5.1-22.4-4.3-25.9Z"
         transform="translate(0 0)" />
      <path id="RI" class="cls-1"
         d="M864.6,169.3l-.8-4.4-1.6-6,5.7-1.5,1.5,1.3,3.4,4.3,2.8,4.4-2.8,1.4-1.3-.2-1.1,1.8-2.4,1.9-2.8,1.1Z"
         transform="translate(0 0)" />
      <path id="SC" class="cls-1"
         d="M750,407.2l-2.1-1-1.9-5.6-2.5-2.3-2.5-.5-1.5-4.6-3-6.5-4.2-1.8-1.9-1.8-1.2-2.6-2.4-2-2.3-1.3-2.2-2.9-3.2-2.4-4.4-1.7-.4-1.4L712,366l-.5-1.5-3.8-5.4-3.4.1-3.9-2.5-1.2-1.2-.2-1.4.6-1.6,2.7-1.3-.8-2,6.4-2.7,9.2-4.5,7.1-.9,16.4-.5,2.3,1.9,1.8,3.5,4.6-.8,12.6-1.5,2.7.8,12.5,7.4,10.1,8.3-5.3,5.4-2.6,6.1-.5,6.3-1.6.8-1.1,2.7-2.4.6-2.1,3.6-2.7,2.7-2.3,3.4-1.6.8-3.6,3.4-2.9.2,1,3.2-5,5.3-2.3,1.6Z"
         transform="translate(0 0)" />
      <path id="SD" class="cls-1"
         d="M462,174.7l-.9,3.2.4,3,2.6,2-1.2,5.4-1.76,4.3-1.36.13-2.38-1.22-4.8-1.5-2.5-1.3-2.9.1-3.9.4-3.8,1.2-5.3-3.8-2.7-2.4-10.9.8-41.5-2.41-35.6-2.2,1.5-24.8,2.8-34,.4-5,56.9,3.9,56.9,1.7v2.7l-1.3,1.5-2,1.5-.1,2.2,1.1,2.2,4.1,3.4.5,2.7v35.9Z"
         transform="translate(0 0)" />
      <path id="TN" class="cls-1"
         d="M661.8,353.2l-13.1,1.2-23.3,2.2-37.6,2.7-11.8.4.9-.6.9-4.5-1.2-3.6,3.9-2.3.4-2.5,1.2-4.3,3-9.5.5-5.6.3-.2,12.3-.2,13.6-.8.1-3.9,3.5-.1,30.4-3.3,54-5.2,10.3-1.5,7.6-.2,2.4-1.9,1.3.3-.1,3.3-.4,1.6-2.4,2.2-1.6,3.6-2-.4-2.4.9-2.2,3.3-1.4-.2-.8-1.2-1.1.4-4.3,4-.8,3.1-4.2,2.2-4.3,3.6-3.8,1.5-4.4,2.8-.6,3.6-2.5.5-2,1.7-.2,4.8Z"
         transform="translate(0 0)" />
      <path id="TX" class="cls-1"
         d="M273.8,419.2l37,3.6,29.3,1.9,7.4-97.7,54.4,2.4-1.7,23.3-1,18,.2,2,4.4,4.1,2,1.1h1.8l.5-1.2.7.9,2.4.2,1.1-.6V377l1,.5-.4,3.7,4.5.7,2.4.9,4.2.7,2.6,1.8,2.8-1.9,2.7.6,2.2,3.1.8.1v2.1l3.3,1.1,2.5-2.1,1.5.5,2.1.1.6,2.1,5.2,2,2.3-.5,1.9-4h.1l1.1,1.9,4.6.9,3.4,1.3,3.2,1,2.4-1.2.7-2.3h3.6l2.1,1,3-2h.4l.5,1.4h4.7l1.9-1.8,1.3.4,1.7,2.1,3.3,1.9,3.4,1,2.5,1.4,2.7,2,3.1-1.2,2.1.8.7,20,.7,9.5.6,4.1,2.6,4.4.9,4.5,4.2,5.9.3,3.1.6.8-.7,7.7-2.9,4.8,1.3,2.6-.5,2.4-.8,7.2-1.3,3,.3,4.2-5.6,1.6-9.9,4.5-1,1.9-2.6,1.9-2.1,1.5-1.3.8-5.7,5.3-2.7,2.1-5.3,3.2-5.7,2.4-6.3,3.4-1.8,1.5-5.8,3.6-3.4.6-3.9,5.5-4,.3-1,1.9,2.3,1.9-1.5,5.5-1.3,4.5-1.1,3.9-.8,4.5.8,2.4,1.8,7,1,6.1,1.8,2.7-1,1.5-3.1,1.9-5.7-3.9-5.5-1.1-1.3.5-3.2-.6-4.2-3.1-5.2-1.1-7.6-3.4-2.1-3.9-1.3-6.5-3.2-1.9-.6-2.3.6-.6.3-3.4-1.3-.6-.6-1,1.3-4.4-1.6-2.3-3.2-1.3-3.4-4.4-3.6-6.6-4.2-2.6.2-1.9-5.3-12.3-.8-4.2-1.8-1.9-.2-1.5-6-5.3-2.6-3.1v-1.1l-2.6-2.1-6.8-1.1-7.4-.6-3.1-2.3-4.5,1.8-3.6,1.5-2.3,3.2-1,3.7-4.4,6.1-2.4,2.4-2.6-1-1.8-1.1-1.9-.6-3.9-2.3v-.6l-1.8-1.9-5.2-2.1-7.4-7.8-2.3-4.7v-8.1l-3.2-6.5-.5-2.7-1.6-1-1.1-2.1-5-2.1-1.3-1.6-7.1-7.9-1.3-3.2-4.7-2.3-1.5-4.4-2.6-2.9-1.7-.5ZM448.2,560.9l-.6-7.1-2.7-7.2-.6-7,1.5-8.2,3.3-6.9,3.5-5.4,3.2-3.6.6.2-4.8,6.6-4.4,6.5-2,6.6-.3,5.2.9,6.1,2.6,7.2.5,5.2.2,1.5Z"
         transform="translate(0 0)" />
      <path id="UT" class="cls-1"
         d="M219.4,299.5l24.6,3.6,1.9-13.7,7-50.5,2.3-22L223,213.4l2.2-13.1,1.8-10.6-34.7-6.1-12.5-2.5L169.2,234l-5.4,30-3.3,15.4-1.7,9.2Z"
         transform="translate(0 0)" />
      <path id="VA" class="cls-1"
         d="M825.7,258.8l-.2,2.8-2.9,3.8-.4,4.6.5,3.4-1.8,5-2.2,1.9-1.5-4.6.4-5.4,1.6-4.2.7-3.3-.1-1.7Zm-60.3,44.6L726.8,309l-4.8-.1-2.2-.3-2.5,1.9-7.3.1-10.3,1.6-6.7.6,4.1-2.6,4.1-2.3v-2.1l5.7-7.3,4.1-3.7,2.2-2.5,3.6,4.3,3.8.9,2.7-1,2-1.5,2.4,1.2,4.6-1.3,1.7-4.4,2.4.7,3.2-2.3,1.6.4,2.8-3.2.2-2.7-.8-1.2,4.8-10.5,1.8-5.2.5-4.7.7-.2,1.1,1.7,1.5,1.2,3.9-.2,1.7-8.1,3-.6.8-2.6,2.8-2.2,1.1-2.1,1.8-4.3.1-4.6,3.6,1.4,6.6,3.1.3-5.2,3.4,1.2-.6,2.9,8.6,3.1,1.4,1.8-.8,3.3-1.3,1.3-.5,1.7.5,2.4,2,1.3,3.9,1.4,2.9,1,4.9.9,2.2,2.1,3.2.4.9,1.2-.4,4.7,1.4,1.1-.5,1.9,1.2.8-.2,1.4-2.7-.1.1,1.6,2.3,1.5.1,1.4,1.8,1.8.5,2.5-2.6,1.4,1.6,1.5,5.8-1.7,3.7,6.2Z"
         transform="translate(0 0)" />
      <path id="VT" class="cls-1"
         d="M823.7,104.9l2.4,6.5.8,5.3-1,3.9,2.5,4.4.9,2.3-.7,2.6,3.3,1.5,2.9,10.8v5.3l11.5-2.1-1-1.1.6-1.9.2-4.3-1-1.4.2-4.7.8-9.3v-8.5l-1.1-1.8v-1.6l2.8-1.1,3.5-4.4v-3.6L849.4,99l-.3-5.79L823,100Z"
         transform="translate(0 0)" />
      <path id="WA" class="cls-1"
         d="M65.5,61.3,63.2,57l-4.1-.7-.4-2.4-2.5-.6-2.9-.5-1.8,1-2.3-2.9.3-2.9,2.7-.3,1.6-4-2.6-1.1.2-3.7,4.4-.6-2.7-2.7-1.5-7.1.6-2.9V17.7l-1.8-3.2,2.3-9.4,2.1.5,2.4,2.9,2.7,2.6L63.1,13l4.5,2.1,3.1.6,2.9,1.5,3.4,1,2.3-.2V15.6l1.3-1.1,2.1-1.3.3,1.1.3,1.8-2.3.5-.3,2.1,1.8,1.5,1.1,2.4.6,1.9,1.5-.2.2-1.3-1-1.3-.5-3.2.8-1.8-.6-1.5V12.6L86.4,9,85.3,6.4,82.9,1.6l.3-.8L84.6,0,89,1.5l9.7,2.7,8.6,1.9,20,5.7,23,5.7,15,3.49L160.5,38.6,156,59.38,152.6,75.6l-.4,9.18-12.9-3.72L124,77.6l-14.5.32-1.1-1.53-5.7,2.09-3.9-.42-2.6-1.79-1.7.65-4.15-.25-1.72-1.32L83.47,73.6l-1.18-.16-4.8-1.39L75.57,73.7l-5.65-.25L65.31,70.1ZM75.1,5.9l2-.2.5,1.4,1.5-1.6h2.3L82.2,7,80.7,8.7l.6.8-.7,2-1.4.4s-.9.1-.9-.2a20.38,20.38,0,0,1,1.5-2.6l-1.7-.6L77.8,10l-.7.6L75.6,8.3Z"
         transform="translate(0 0)" />
      <path id="WI" class="cls-1"
         d="M532.4,103.5l2.9.5,2.9-.6,7.4-3.2,2.9-1.9,2.1-.8,1.9,1.5-1.1,1.1-1.9,3.1-.6,1.9,1,.6,1.8-1,1.1-.2,2.7.8.6,1.1,1.1.2.6-1.1,4,5.3L570,112l8.2,2.2,2.6,1.1,12.3,2.6,1.6,2.3,3.6,1.2,1.7,10.2,1.6,1.4,1.5.9-1.1,2.3-1.8,1.6-2.1,4.7-1.3,2.4.2,1.8,1.5.3,1.1-1.9,1.5-.8.8-2.3,1.9-1.8,2.7-4,4.2-6.3.8-.5.3,1-.2,2.3-2.9,6.8-2.7,5.7-.5,3.2-.6,2.6.8,1.3-.2,2.7-1.9,2.4-.5,1.8.6,3.6.6,3.4-1.5,2.6-.8,2.9-1,3.1,1.1,2.4.6,6.1,1.6,4.5-.2,3-15.9,1.8-17.5,1H558l-.7-1.5-2.9-.4-2.6-1.3-2.3-3.7-.3-3.6,2-2.9-.5-1.4-2.1-2.2-.8-3.3-.6-6.8-2.1-2.5-7-4.5-3.8-5.4-3.4-1-2.2-2.8h-3.2l-2.9-3.3-.5-6.5.1-3.8,1.5-3.1-.8-3.2-2.5-2.8,1.8-5.4,5.2-3.8,1.6-1.9-.2-8.1.2-2.8,2.4-2.8Z"
         transform="translate(0 0)" />
      <path id="WV" class="cls-1"
         d="M749.9,247.9l5.8-6,2.6-.8,1.6-1.5,1.5-2.2,1.1.3,3.1-.2,4.6-3.6,1.5-.5,1.3,1,2.6,1.2,3,3-.4,4.3-5.4-2.6-4.8-1.8-.1,5.9-2.6,5.7-2.9,2.4-.8,2.3-3,.5-1.7,8.1-2.8.2-1.1-1-1.2-2-2.2.5-.5,5.1-1.8,5.1-5,11,.9,1.4-.1,2-2.2,2.5-1.6-.4-3.1,2.3-2.8-.8-1.8,4.9-3.8,1-2.5-1.3-2.5,1.9-2.3.7-3.2-.8-3.8-4.5L710,289l-2.5-2.5-2.9-3.7-.5-2.3-2.8-1.7-.6-1.3-.2-5.6.3.1,2.4-.2,1.8-1v-2.2l1.7-1.5.1-5.2.9-3.6,1.1-.7.4.3,1,1.1,1.7.5,1.1-1.3-1-3.1v-1.6l3.1-4.6,1.2-1.3,2,.5,2.6-1.8,3.1-3.4,2.4-4.1.2-5.6.5-4.8v-4.9l-1.1-3,.9-1.3.8-.7,4.3,19.3,4.3-.8,11.2-1.3Z"
         transform="translate(0 0)" />
      <path id="WY" class="cls-1"
         d="M344,155.5l-1.5,25.4-4.4,44-2.7-.3-83.3-9.1-27.9-3,2-12,6.9-41,3.8-24.2,1.3-11.2,48.2,7,59.1,6.5Z"
         transform="translate(0 0)" />
      <rect id="MD-button" class="cls-1" x="859" y="395" width="53" height="20" rx="3" />
      <rect id="DE-button" class="cls-1" x="859" y="370" width="53" height="20" rx="3" />
      <rect id="NJ-button" class="cls-1" x="859" y="345" width="53" height="20" rx="3" />
      <rect id="CT-button" class="cls-1" x="859" y="320" width="53" height="20" rx="3" />
      <rect id="RI-button" class="cls-1" x="859" y="295" width="53" height="20" rx="3" />
      <rect id="MA-button" class="cls-1" x="859" y="270" width="53" height="20" rx="3" />
      <rect id="VT-button" class="cls-1" x="859" y="245" width="53" height="20" rx="3" />
      <rect id="NH-button" class="cls-1" x="859" y="220" width="53" height="20" rx="3" />
      <rect id="HI-button" class="cls-1" x="241" y="546.6" width="50" height="20" rx="3" />
      <path id="ME" class="cls-1"
         d="M916.1,73l-1.9-2.1-2.8.5.5,1.1-.2.5h-.8L908,70.7l-.2-4.8L907,64h-6l-9.1-29.9-1.9-1-6-2.4-1.5-.2-1.8,1.8-4,2.9v1l-.8.8-2.7-.6-1.3-2.3V33l-1.3-.2h-1.3L867.2,37l-2.9,8.9-1.8,4.8.2,4.8.2,1.5-.8,2.7-.8,1v6l1.9,2.4-1.5,4-2.6,4.7-.8,5.5v2.6l-1.5-.4-1.3.17,9.75,31.2h0l.84,2.55,1.09,3.68.2,2.5,4,1.1.5,3.1,2.2.9,1.1-6.3.2-4.4,1.5-1.3-1-3.2,3.1-3.6,1.6,1.5,1.3-.5,5.3-3.1.3-2.9,2.9-.5,1.6-2.6-.09-.72-.31-2.88h0l-.1-1.1.8-1.3-.3-1.1-1.3-1.5,2.1-1.3,1.8,3.2,1.5-.3.3,1.3v1.6l1.9.2.5-2.7.5-.6-1.6-1.5,1-1.5,2.4-1.5,1-1.5,1.8-.2s.4,2.1,1,2.1h1.3L911,87l3.4-3.1,1.9-.6,2.1-4.7V76.7ZM901.4,93,900,95.2l1.8,1.9s1.3.1,1.3-.2.2-2,.2-2l.9-.8-.8-1.8Zm-6.6,6.6-1.5,1.5,1.8,2.9,1.7-.9-.6-2.4Z"
         transform="translate(0 0)" />
      <path id="NE" class="cls-1"
         d="M479.2,249.2l-2.6-3.9.1-2.3-.44-.85-.57-1.1-.39-.75-1.9-5.2-.55-6.55-.33-.9-1-4.89-.22-1.55-.19-1.91-2.3-3.7-1-4.7L465,203l-.23-1.24-.52-3.16-.21-1.82-2.24-2.94h-1.66l-3.24-1.49-4.8-1.5-2.2-1.2-2.6.1-3.7.4-4.11,1.19h-.19l-5.9-4.07-2.2-2-10.7.6-9.26-.53H410l-10.2-.6-10.38-.6-17.12-1.08c-9.26-.23-19.3-1.11-28.85-1.72l-4.3,43.7,33,3.3h.1l-1.45,21.1,21.7,1,10.15.3,7.3.25h.76l12.24.33,10.15.3,5.47.07h.88l10.08.13,5.47.08,10.95.15,5.48.08,5.47.07h4.5Z"
         transform="translate(0 0)" />
      <path id="PR" class="cls-1"
         d="M933.5,557.9l1.83-2.3-5.33,1-3.17-1-1.66-1.5h-2.84l-3.66-2.33H915l-3.67-1.09-3,1.42-1.83-1.42h-4l2,2.25-4-2.25h-3l-4.33-.75H889l-6.23-1.66-4.94,1.16-7.33-.5-6.17,1.75-5.83-1.58H857l-3.67.17-4-.17-4.33-.67-3.17-1.16h-4.16l-3.5,1.66,1,5.17-3.67,2.55L827,557.9l1.83,3.2,3,2,2.17,4.5,2.17,2.1L833,571.27l1.17,1.33-.84,2.5-1.16,4.5,2,1.67-3,2.83,1.83,3,1.17-1.83,4,.33,2.16-1.33,5.34.33,4,2.5,1-1-.84-1.83,2.34,1.33,4.83-.17,3-1.83h-2.83l2.83-1.5,1,1.17,5,1.83,2.5-1.83,2.33,1.33,8.84-1.5,5.66,2.67,3.34-1.5,6.41,2,1.75-.34,3.34,1.17,7.66-2.83,7.84-1,5.33-2.34v-2.5l2.5-2,2.17-4.5,3.5-2.23,4.16-2.1.17-.8h2.33l.67-2.2-2-1.48Zm23.38,13.28-.67.54-1.29-.16-.59-.38h-.66l-1.59-.5-2.7-.2-1.46.24h-1l-.34.75-1.5.29-1.66.59-.54-.21-1,.71h-.67l-.92.71-.79-.13-1.21-.18-.29.35v.58l1.46,1.88,1-.21,1,.21,1.45-.71,2.71-.23,1.13.35-.38-.83.79-.46v.94l.84-.23-.5-.71.5-.37.25.62.87-.29v-.58l.46.41,1.5-.16.33-.71H952l.24-.46.88.38-.17,1,.88-.3v-.83l1.83-.08v-.54h.79v.33l1-.33.75.33.42-.33-.71-.38ZM959,560l-1-.84-.87-.37h-1.87l-.26-.21-.16.54-1.79-1.33.62.92v.71l.92.33.33.63,1,.87.75.79.29-.46-.54-.7-.71-.42v-.54l1.29.33.42.63.83.24.21.34v-1l.83.08Z"
         transform="translate(0 0)" />
   </g>
   <g id="MT-text" class="cls-2"><text class="cls-3" transform="translate(254.71 86.43)">MT</text></g>
   <g id="ID-text" class="cls-2"><text class="cls-3" transform="translate(171.68 140.91)">ID</text></g>
   <g id="OR-text" class="cls-2"><text class="cls-3" transform="translate(75.09 116.81)">OR</text></g>
   <g id="WA-text" class="cls-2"><text class="cls-4" transform="translate(101.47 46.32)">W<tspan class="cls-5" x="11.83"
            y="0">A</tspan></text></g>
   <g id="PR-text" class="cls-2"><text class="cls-3" transform="translate(868.57 571.68)">PR</text></g>
   <g id="CA-text" class="cls-2"><text class="cls-3" transform="translate(43.55 260.49)">C<tspan class="cls-5"
            x="9.61" y="0">A</tspan></text></g>
   <g id="NV-text" class="cls-2"><text class="cls-3" transform="translate(112.18 227.62)">NV</text></g>
   <g id="UT-text" class="cls-2"><text class="cls-3" transform="translate(200.25 252.08)">UT</text></g>
   <g id="AZ-text" class="cls-2"><text class="cls-3" transform="translate(180.83 353.03)">AZ</text></g>
   <g id="WY-text" class="cls-2"><text class="cls-3" transform="translate(278.21 177.12)">W<tspan class="cls-6"
            x="12.56" y="0">Y</tspan></text></g>
   <g id="NM-text" class="cls-2"><text class="cls-3" transform="translate(278.04 369.28)">NM</text></g>
   <g id="CO-text" class="cls-2"><text class="cls-3" transform="translate(301.75 270.84)">CO</text></g>
   <g id="ND-text" class="cls-2"><text class="cls-3" transform="translate(397.56 90.77)">ND</text></g>
   <g id="SD-text" class="cls-2"><text class="cls-3" transform="translate(398.23 155.08)">SD</text></g>
   <g id="NE-text" class="cls-2"><text class="cls-3" transform="translate(404.98 220.7)">NE</text></g>
   <g id="KS-text" class="cls-2"><text class="cls-3" transform="translate(422.08 289.3)">KS</text></g>
   <g id="OK-text" class="cls-2"><text class="cls-3" transform="translate(437.9 355.64)">OK</text></g>
   <g id="LA-text" class="cls-2"><text class="cls-3" transform="translate(526.46 443.04)">L<tspan class="cls-5" x="8.13"
            y="0">A</tspan></text></g>
   <g id="TX-text" class="cls-2"><text class="cls-3" transform="translate(408.75 445.76)">TX</text></g>
   <g id="AR-text" class="cls-2"><text class="cls-3" transform="translate(523.95 365.16)">AR</text></g>
   <g id="MO-text" class="cls-2"><text class="cls-3" transform="translate(520.64 290.99)">MO</text></g>
   <g id="IA-text" class="cls-2"><text class="cls-3" transform="translate(505.17 209.28)">I<tspan class="cls-5" x="3.7"
            y="0">A</tspan></text></g>
   <g id="MN-text" class="cls-2"><text class="cls-3" transform="translate(482.75 118.39)">MN</text></g>
   <g id="WI-text" class="cls-2"><text class="cls-3" transform="translate(562.05 154.24)">WI</text></g>
   <g id="IL-text" class="cls-2"><text class="cls-3" transform="translate(579.95 246.99)">I<tspan class="cls-7" x="3.7"
            y="0">L</tspan></text></g>
   <g id="MS-text" class="cls-2"><text class="cls-3" transform="translate(577.89 409.4)">MS</text></g>
   <g id="AL-text" class="cls-2"><text class="cls-3" transform="translate(631.39 406.11)">A<tspan class="cls-7" x="9.61"
            y="0">L</tspan></text></g>
   <g id="FL-text" class="cls-2"><text class="cls-3" transform="translate(743.39 493.61)">F<tspan class="cls-7" x="8.13"
            y="0">L</tspan></text></g>
   <g id="SC-text" class="cls-2"><text class="cls-3" transform="translate(737.3 370.68)">SC</text></g>
   <g id="TN-text" class="cls-2"><text class="cls-3" transform="translate(636.19 340.96)">TN</text></g>
   <g id="KY-text" class="cls-2"><text class="cls-3" transform="translate(658.41 300.33)">K<tspan class="cls-6" x="9.61"
            y="0">Y</tspan></text></g>
   <g id="IN-text" class="cls-2"><text class="cls-3" transform="translate(629.06 246.57)">IN</text></g>
   <g id="OH-text" class="cls-2"><text class="cls-3" transform="translate(681.14 237.51)">OH</text></g>
   <g id="MI-text" class="cls-2"><text class="cls-3" transform="translate(645.52 174.52)">MI</text></g>
   <g id="NC-text" class="cls-2"><text class="cls-3" transform="translate(761.17 328.11)">NC</text></g>
   <g id="VA-text" class="cls-2"><text class="cls-8" transform="translate(766.32 283.73)">V<tspan class="cls-5" x="7.89"
            y="0">A</tspan></text></g>
   <g id="WV-text" class="cls-2"><text class="cls-3" transform="translate(719.04 268.95)">WV</text></g>
   <g id="PA-text" class="cls-2"><text class="cls-8" transform="translate(766.86 208.77)">P<tspan class="cls-5" x="7.89"
            y="0">A</tspan></text></g>
   <g id="NY-text" class="cls-2"><text class="cls-3" transform="translate(798.82 153.56)">N<tspan class="cls-6" x="9.61"
            y="0">Y</tspan></text></g>
   <g id="ME-text" class="cls-2"><text class="cls-3" transform="translate(871.99 78.98)">ME</text></g>
   <g id="AK-text" class="cls-2"><text class="cls-3" transform="translate(98.25 494.9)">AK</text></g>
   <g id="GA-text-0" class="cls-2"><text class="cls-3" transform="translate(693.45 403.29)">G<tspan class="cls-5"
            x="10.35" y="0">A</tspan></text></g>
   <g id="NH-text" class="cls-2"><text class="cls-3" transform="translate(875.35 234.44)">NH</text></g>
   <g id="VT-text" class="cls-2"><text class="cls-3" transform="translate(876.47 259.94)">VT</text></g>
   <g id="MA-text" class="cls-2"><text class="cls-3" transform="translate(874.61 284.95)">M<tspan class="cls-5"
            x="11.09" y="0">A</tspan></text></g>
   <g id="RI-text" class="cls-2"><text class="cls-3" transform="translate(878.32 309.94)">RI</text></g>
   <g id="CT-text" class="cls-2"><text class="cls-3" transform="translate(876.1 334.95)">CT</text></g>
   <g id="NJ-text" class="cls-2"><text class="cls-3" transform="translate(876.46 359.96)">NJ</text></g>
   <g id="DE-text" class="cls-2"><text class="cls-3" transform="translate(875.72 385.2)">DE</text></g>
   <g id="MD-text" class="cls-2"><text class="cls-3" transform="translate(874.61 409.94)">MD</text></g>
   <g id="HI-text" class="cls-2"><text class="cls-3" transform="translate(260.16 561.34)">HI</text></g>
</svg>