<?xml version="1.0" encoding="UTF-8"?>
<svg id="svgdata" xmlns="http://www.w3.org/2000/svg" width="744.3085804638" height="445.0364597477" viewBox="0 0 744.3085804638 445.0364597477">
  <g id="outlines">
  <path id="Everglade-Senior" class="cls-2" d="m573.7976643819,267.5771440006l9.8072324127-1.7930825528,7.0626636025-1.7199342548,4.592596344-2.1041582535,2.6714205122-2.2139923772,3.677740074-1.4820626904,17.2358608585-2.9458103872.4391131413,1.7565084038,1.2258761324-1.3539694114,2.7262538165,2.3969189605.1830382601,2.0126949618,15.6073898954-3.4581835033,19.3767049378,12.2042072116-2.2505106878,1.4637476967-2.4335489479,3.5862209439-2.0309541171,5.1415436091.2560748813,3.6776842356-1.7930825528,3.3849793669-3.1653669579.786762991-.256186558,2.2322515325-2.8726620892,3.0556445109-1.3539694114,2.8726620892-2.7628838039,1.7381934101-2.6531055185,3.3666643732-.073148298,1.2808211135-2.6897355059,2.1041582535-2.5066972458,4.3730397733-2.4152339542,6.6052354674-.0548333043,3.1287928089-1.0063195617,2.9458662256.3659648434,2.7445688102-1.3722844051,1.5735259821.73181801,7.4103692906,2.2688256815,7.1907568815,3.403350199,7.8860565809,6.3490489094,9.9536406854,8.8192278446,10.1366231071-.8233929784,1.0612087044,1.3539694114,5.3244701924,3.933926632,5.3976743287,6.6966987591,11.1795168178,1.6467859568,3.5862209439.6403547183,3.933926632.9331712638,14.418087912-1.3722844051.6038364077-.73181801,4.7206337846.7684479974,1.2625061198-2.3969189605,3.842407502-1.3357660945-.4757431287-2.6529938418,1.9394908255-4.793837921,1.8297683785-1.7565642422-1.4454885415.2378715644-2.7445688102-4.7755229273-6.7699587338-2.945922064-.8233929784-2.1955657067,1.5370076715-2.5799572206-3.805833353-1.0794678597-3.3300902243-3.8424633403-3.1471078026-1.189246145-2.3602889731-.1097782853-3.7326292166-1.8663425275-.292760707.7684479974,2.0675841045-1.5003776841.8782821211-6.3856788968-8.2337064306-2.3054556689-1.9395466639,3.4398685096-7.7396483082-2.9274953935.9880604064-1.6467859568,2.5432713948-2.5433272332-2.9458103872,1.0978945302-9.8804923874-.8233929784-7.8494265935-2.1224174088-1.5003776841-1.0064312385-2.3969189605-2.9641253809.0183149937-4.0252782469-3.4581835033-2.9824403746-1.1527278344-.5855214141-2.4883822521-2.0310657939-.5672064204-1.9943241297-2.5067530842-6.3125305988-2.6713646738-4.8304679084,1.7748233975.6587813888,2.5799013822-1.7017309379-.164667428-5.726897508,4.299835637-6.5137721758,1.9028608381-.1098899621-1.9028608381-1.8845458444-1.9761208128-8.4898929886-3.7692033656-5.8367874701-1.2441911261-5.0500244791.2195565707-4.1168532153,1.0246345554-8.8740611489,2.9458662256,1.9028608381-2.8543470955-1.3356544177-1.2442469645.2195565707-2.9092362382-3.7508883719-2.7994579529.201241577-2.3237148241,31.1051131822-4.9036162063,7.2457018626-1.3722844051-2.3237706625-4.391354767.3659648434-4.6840596357-2.2323073709-4.9219312.8417079721-3.1287928089-.4207981477-2.1407324025,2.1224174088-2.5982163759-1.8113975464-.7318738484.3659648434-1.8114533848-2.0127508002-2.4334931095-2.3969189605-4.501077214-6.8979403361-21.0783241989-4.7573196104-14.3266246203,18.0227355264-3.3484052179Z"/>
  <path id="Dixie-Senior" class="cls-1" d="m573.7976643819,267.5771440006l-18.0227355264,3.3484052179,4.7573196104,14.3266246203,6.8979403361,21.0783241989,2.3969189605,4.501077214,2.0127508002,2.4334931095-.3659648434,1.8114533848,1.8113975464.7318738484-2.1224174088,2.5982163759.4207981477,2.1407324025-.8417079721,3.1287928089,2.2323073709,4.9219312-.3659648434,4.6840596357,2.3237706625,4.391354767-7.2457018626,1.3722844051-31.1051131822,4.9036162063-.201241577,2.3237148241,3.7508883719,2.7994579529-.2195565707,2.9092362382,1.3356544177,1.2442469645-1.9028608381,2.8543470955-1.9761208128.8599671274-4.0985382216-2.2871406752-.9148562701-4.171742358-1.2075611387-.292760707-1.0064312385,3.3849235285-.1279816022,3.1654227962-3.933926632-.3110198623-1.5552109884.9697454127-3.6594250803.0914632916-1.5918409758-.9331712638-3.531443478,1.2259319708-4.793837921,2.5981605375-1.4271177094,1.4089143925-4.2083165069,2.8909212445-.1464082727,1.7382492485,3.7325733782.6952996994,1.2808211135-2.9275512319,3.4215535159,2.3420298178-.0183149937,2.1956773835-1.7199342548,1.1709869897-3.4763868202-.4391131413.5855214141,1.5369518331-.9148562701,2.5981605375,3.1287369705,1.8114533848,4.7023746294.073148298,1.9394908255,2.3420298178,1.3722844051.2012974154-2.1041024151,3.2203119389-2.7263654933-.2378715644-2.5615305501-2.7263096549-5.7270091848-.9331154254-.2928165454-2.9092362382-2.6347905249,1.2441911261.4025948308,2.4334931095-1.0246345554,2.3969189605-1.9761208128.6038364077-1.7382492485-2.3603448115-3.4947018139.292760707-1.0063195617,2.7628838039-2.2688256815,1.0063195617-2.6531055185-1.3357102561-2.0127508002.0183149937-2.2688256815-4.0436490789-3.5679617886-1.5369518331-1.317339424.4025389924-1.6284709631-3.4398685096-3.9338149552.8599671274-.256186558-2.1590473961-3.732685055,2.4151781158.6221514014,1.5552668268-2.8726620892,1.7931383912-4.720689623-.3476498497-5.5622859184-1.9212316702-3.8972966446-.7318738484-8.1787614495,1.4820626904-1.0429495491.7319296868-1.4272293862-1.6101559695,3.2019969452-6.3857347352-1.3722844051-3.2019969452.9698012511-1.8662866891-.658669712-2.3237148241,1.3722844051-1.9029166765,1.2807094367-4.5559663566-.4939464456-3.6594250803-4.5194480461-6.6784954422-.329334856-3.7874625209-3.476498497-3.5496467949-1.0794678597-17.6567148446-.5672064204-9.185192688-2.1225290856-.6037805694-2.7994021145,1.0429495491-1.6101559695-1.5186926778-1.0063195617-30.4463876318-3.7692033656-18.9741659454-.5123731161-8.636245423-2.1773623898-37.3810137937-2.9274953935-.6769847057-2.3786039668-3.9521857873-1.7748792359-1.6101559695,2.7080504996-5.2146360687-4.391354767-1.0795795365-1.3905993988-1.5369518331-3.5130168076-4.3729839349-3.1105336536-5.4708784651,14.9670351771-.5854655757,18.0775688306-1.5186926778,18.6814052384-2.1590473961,1.3539694114-.2378715644,3.0007553682,3.2386269326,1.5002660073.4207981477-.9148562701,2.5799013822.4940581224,3.4947576523,2.1956773835,5.123172777,4.537651363,4.0253899236,4.8304679084,3.2019969452,1.5003776841,5.580600912,1.1344128407.9331712638,1.3722844051-1.7931383912,3.0190703619.4208539861,2.0492691108.9880604064-1.0795795365,2.2505106878.530576433,1.5552668268-1.7930825528,4.720689623.2195565707,2.7628279655,4.4096697607,3.0190145235,1.7381375717,2.0858990982,1.4455443799-.5488914267,4.8486712253,3.1287928089.2928165454,2.6530496802,1.5186926778,3.1654227962-.9881162448,1.2808211135,3.6594250803,4.5193922077,2.2139923772-.09151913-.2928165454,7.1358677388-2.1407324025-.494002284-.5122614393,2.2688256815,1.64667428-.4025389924,17.2541758522-2.1590473961-.6403547183-3.0739036662,3.1288486473.3110757007,17.3090091565-3.0556445109,15.2963700331-1.9029166765,2.6897355059-.658669712,10.3012905351-1.2990802687,11.7284082445-2.0675841045.1647232664-.3293906944,27.2078165376-5.5440267631.2195565707,4.1534832027-2.3786039668,1.4088585541-1.0795795365,3.5679617886-2.6164755312-.128093279-4.7572079336,4.4461880713-.7136146931-1.6101559695-1.6649892737,1.5186926778-2.2871406752,4.464503065-3.3850352053,1.6650451121-2.9274953935,3.3117752306-3.7875183593.8416521337-2.9641253809,3.2019969452-.5855214141,3.0190145235-2.6897355059.8965412764.3111315391,4.1168532153Zm-28.8626814556,154.2983626638l-11.5185019682,3.6482720237-4.632019493,4.9597685227-2.5414310257-.7788417782-7.7063554296,3.6482720237-.4098113822-9.5099758534-5.6978293148-4.7958940079,4.5909883168-8.0753858257,5.0828620514-.8606539406,19.1020140592-7.5014497385,20.372479382-5.9437661821,7.9112611207-.4918737346,1.8856827762,6.0258285346-3.4433663326,2.0903382772-1.8854325861,7.7884177821-13.0761855246,8.89500859-8.0343546494.9019353069Z"/>
  <path id="Alamo-Senior" class="cls-2" d="m445.0224868733,376.5548742622l-2.4883822521.2744457133-7.7762782956,2.8726620892-2.8909770829-1.1527278344-.658669712-2.7811987976-1.8846575212,2.0858990982-1.4454327031-.3842239987-.6221514014,2.4883822521,1.6284709631.951430419.402483154,3.1837377899-2.6713088354,3.5679059502-4.4279847544,4.4828180587-9.0569877322,4.9768203427-.9698012511-.6952996994-2.7262538165,1.2441911261-.128093279-1.0246345554-3.7692033656.9148562701-1.8480275338-2.1041582535-1.0794678597.5123172777,4.2083165069,4.2632056496-2.9092920766,1.5370076715-2.8177171082-.7501888421-.329334856,3.1287928089-3.3850352053,3.3300902243-3.4032385222,6.0380290471-2.1590473961,6.2759006114-1.7199342548-.4207981477-.365909005,2.2688256815,1.7748233975-.6037805694-.7501888421,4.537651363-1.1893019834.2195565707-.0366299874,2.5432713948,1.5003776841,1.3540810882.5488914267,5.1598027644,1.7748792359,1.7381375717.5122614393,3.27525692,1.4637476967,2.8726620892-4.8120970763,1.9211758318-2.0492691108-2.1956773835-3.7509442103-.7501330037-4.9219312.2927048686-4.2997797986-2.7445688102-3.2019969452-.2195565707-2.4518639416-2.2139923772-3.2934602369-.7136146931-2.2505665262-2.1407324025-1.5003218457-5.1598027644-2.8543470955-3.0739036662.329334856-2.6347905249-1.2990802687-2.8177171082.4025389924-2.4518081032-1.9578058192-2.7263096549-1.6284709631-.2744457133-2.6530496802-2.4334931095-.8417079721-3.1105336536-2.3053998305-2.8177729466-3.2935160753-2.3602889731-1.5918409758-5.1963769134-1.5186368394-1.4272293862-1.9943799681-4.1534273643-.6587255504-3.4032385222-1.9029166765-2.4701230969-3.2568860879-2.1956773835-.7318738484-1.5186368394-3.0006995299-1.3540252498-2.2871406752-3.8240925083-6.6418654548-.9697454127-4.00707493.09151913-3.3849793669-1.4089143925-.786762991,1.7748233975-3.677740074.457428135-2.8543470955,3.5130726459-1.8297125401,5.6903791974-.9331712638.0548891427-2.1956215451,3.3300902243h-2.5250122395l-3.6959992292-2.7811429592-9.2949709734-4.6658004804-1.7381934101-2.3602889731-3.5862767823-2.3420298178-2.3602889731-5.0500244791.036574149-4.427928916-2.3786598052-3.7325733782-.4391131413-3.1471078026-1.5369518331-2.0858990982-5.6903791974-3.2752010816-2.9092920766-4.1534273643-2.4518081032-1.5918409758-2.4883822522-3.5862209439-3.6411100866-2.0492691108-2.3237706625-4.720689623-2.1224732472-1.1160978471-24.8841017135-2.1407882408-.658669712,7.8311674382-12.4603379312-1.2625061198,9.459582563-97.761527618,22.4322936103,2.2139365388,7.6481850165.7501888421,35.1121881122,2.3603448115,18.5716269531.7135588547,13.3385642139.4940581224,1.0429495491-52.1834373811,1.9760649744.0548891427,87.8994060627-1.4820626904,1.3905993988,1.5369518331,4.391354767,1.0795795365-2.7080504996,5.2146360687,1.7748792359,1.6101559695,2.3786039668,3.9521857873,2.9274953935.6769847057,2.1773623898,37.3810137937.5123731161,8.636245423,3.7692033656,18.9741659454,1.0063195617,30.4463876318,1.6101559695,1.5186926778,2.7994021145-1.0429495491,2.1225290856.6037805694.5672064204,9.185192688,1.0794678597,17.6567148446,3.476498497,3.5496467949.329334856,3.7874625209,4.5194480461,6.6784954422.4939464456,3.6594250803-1.2807094367,4.5559663566-1.3722844051,1.9029166765.658669712,2.3237148241-.9698012511,1.8662866891,1.3722844051,3.2019969452-3.2019969452,6.3857347352,1.4272293862,1.6101559695Z"/>
  <path id="Heartland-Senior" class="cls-2" d="m413.7709654183,199.6033343024l-87.8994060627,1.4820626904-1.9760649744-.0548891427.4208539861-17.4005282865-26.2198119696-.9697454127,1.6833601058-34.7096491198,1.6284151248-34.6181858282h.2012974154l.7684479974-16.4490978675,1.7748233975-33.2824755721.9697454127-19.7791880918,77.7445238003.622095563,23.6581139043-1.1344128407-.4207981477-6.6418654548,2.2323073709.0548891427,1.5735259821,1.2258761324,2.1224174088,8.92900613,1.2625061198.9697454127,3.7692033656.0183149937.5123731161.8233929784,4.4095580839.036574149.658669712,1.8662866891,3.732685055-.7684479974-.0732599747-.7685038357,2.8726620892-1.1893019834,2.5982722143.1463524343,3.0739036662,1.1710428281.988004568,1.7199342548,1.6833042674-.3476498497,1.9394908255,3.7326292166.6038364077-1.6833601058,2.8178287849-1.0429495491.6769847057,1.5552668268,3.5130168076.8050779847.1646115896,1.5003776841,1.8297125401,1.0612087044,3.403350199-1.0428937107,1.9028608381-1.9395466639,2.7079388228-1.3539694114,1.2991361071,2.4335489479,1.8846575212-.7868188294,2.4151222774.2745015517,2.6531055185-.7136146931,3.3667202116,1.7931383912,2.9091803998-.7685038357-.1097782853.9880604064-3.5861651055,2.6713646738-5.1598027644,2.3603448115-3.27525692,2.2139365388-4.537651363,5.0317094854-1.8663425275,2.9824403746-3.0006436915,3.4764426586-4.8854128894,4.720689623,1.0612645428,1.3356544177,2.6714205122-.0914632916,7.9043715746-3.805833353,2.8543470955-1.9577499808,1.1709311513,1.116097847-1.3539694114,2.4518081032,4.2449464943,2.4884380905,1.7199342548.073148298,2.3237706625.7868188294,1.6649892737,2.7628279655,12.7165244893,1.9029166765,5.4341926393,1.8480275338,1.4821743672-.786762991,5.3427293477.951430419,1.7016192611,1.9578058192,2.8177171082,1.7016192611.329334856,3.0373295172-.7684479974,2.5432713948,2.8909770829-.073148298-.7502446805,2.6347346865,2.1408440792,1.5003776841-.1464082727,2.1590473961-2.2688256815.7319296868-1.4089143925,4.2632056496-.329334856,2.8543470955,1.4820626904.256186558,1.5918409758-2.0675841045,1.4820626904-3.7143142229,2.3237706625-1.7199342548,1.2990244303-4.6474854867,2.3604006499-1.3539694114.1646115896,2.3054556689-1.3722844051,2.3420298178-2.2688256815,7.7030741592-.329334856,4.1168532153.4940581224,2.8177729466-1.1344128407,1.152671996-.5672064204,4.0437049173.9148562701,3.2385710942-.7685596741,2.3420298178-.7135030163,5.5989159057.9696895743,4.2083723453,2.0675841045,3.5496467949.256186558,5.0682836343.073148298,3.3666643732,2.5066972458,3.5862209439,2.9641253809,6.0014548981,5.8551024638,40.6928448626-1.0063195617,3.3483493795,2.1956773835,3.4215535159.658669712,2.9824403746-1.3539694114,2.7079946612-.1097782853,2.3420298178-1.9211758318,4.0436490789-1.5186926778.5123172777.658669712,2.1041582535-.9148562701,1.0063754001-.2743898749,4.171742358.603724731,1.0795236981-1.4637476967,2.7079388228,1.6833042674,2.8360879402-5.4158776456,2.3969189605-.2928165454,1.8662866891,1.5735259821,2.0858990982-1.5552109884,1.6650451121-5.3610443414-1.9578058192-1.5552109884.3842239987-1.7382492485,3.3117752306.786762991.8599671274-2.2139923772.09151913-3.6594250803-4.5193922077.9881162448-1.2808211135-1.5186926778-3.1654227962-.2928165454-2.6530496802-4.8486712253-3.1287928089-1.4455443799.5488914267-1.7381375717-2.0858990982-4.4096697607-3.0190145235-.2195565707-2.7628279655,1.7930825528-4.720689623-.530576433-1.5552668268,1.0795795365-2.2505106878-2.0492691108-.9880604064-3.0190703619-.4208539861-1.3722844051,1.7931383912-1.1344128407-.9331712638-1.5003776841-5.580600912-4.8304679084-3.2019969452-4.537651363-4.0253899236-2.1956773835-5.123172777-.4940581224-3.4947576523.9148562701-2.5799013822-1.5002660073-.4207981477-3.0007553682-3.2386269326-1.3539694114.2378715644-18.6814052384,2.1590473961-18.0775688306,1.5186926778-14.9670351771.5854655757,3.1105336536,5.4708784651,3.5130168076,4.3729839349Z"/>
  <path id="Akron-Senior" class="cls-1" d="m600.0906246494,137.2101255162l5.324414354,22.8714067516-1.6833042674,1.3905993988,1.3356544177,1.6467301184.5306881098,2.6165313696-.8233929784,4.537651363.201241577,6.5504021632-3.8240366699,6.6967545975-1.4821743672,1.1344128407-1.6649892737-.8050779847-.988004568,2.7811429592-1.5186926778.256186558-.9514862574,3.6411100866.7685596741,1.8846016828-1.0429495491,1.9029166765-2.4884939289-2.1956773835-1.5918409758,4.6658004804,1.1893578218,2.4700672585-1.4089143925,1.2808211135-.0548333043,2.3603448115-3.4032385222,1.1344128407-2.2871406752-1.9578058192-1.6101559695-.1463524343-1.1527278344-2.7811987976-1.7748792359.9514862574-1.1344128407,1.9943799681-5.251266056-.292760707-1.8845458444,1.6467301184-3.403350199-1.7565084038-4.2631498112.1463524343-.4940581224-1.4637476967-3.3117752306-3.0556445109-5.0683394727.9514862574-.8782262827.951430419,1.9028608381,4.501077214-2.3236589857.5123172777-2.1956773835,2.0675841045-3.5679617886-.1463524343.7136146931,3.3666643732-2.0310657939,1.8113975464-.530576433,2.3237706625-2.2139923772,1.2441911261-.5672064204,4.5559663566-1.3722844051,1.3905993988-3.2751452432-1.0978386918-.8233929784-1.8846016828-2.6164755312,2.6531055186.5123731161,1.8479716954-2.945922064,1.1527278344-1.1344128407-1.5552668268-3.1653669579,2.2322515325-.8417079721,1.9761208128-3.7875183593-2.0310099555-1.7016192611.8416521337-1.3539694114-1.0428937107-.9331712638,1.3905435604-3.4032385222.6952996994-1.0429495491,1.7931383912-.603724731-1.0795236981.2743898749-4.171742358.9148562701-1.0063754001-.658669712-2.1041582535,1.5186926778-.5123172777,1.9211758318-4.0436490789.1097782853-2.3420298178,1.3539694114-2.7079946612-.658669712-2.9824403746-2.1956773835-3.4215535159,1.0063195617-3.3483493795-5.8551024638-40.6928448626,1.4272293862.9514862574,3.9156116383-.622095563,3.4763868202-2.5799013822,2.2323073709-2.6896796675,1.116097847-4.1534832027,1.2075611387-2.6347905249.6404663951-3.4947018139-.0914632916-4.8304679084-1.1344128407-5.0317094854-5.3245260308-9.3681192713.530576433-3.970500781-1.5552109884-4.3729839349,2.0309541171-5.1049136217-.0548333043-3.9704449426-.7502446805-1.9944358065,1.8480275338-1.1893019834-.2195565707-2.8726620892,2.9641253809-1.2990802687,1.8297125401-3.5313318012.9148562701,6.2393264625,1.3174511008.0548891427,1.0246345554-3.3849793669-.8965412764-5.287840205.73181801-1.5003776841,3.1288486473-1.4454885415-1.7382492485-3.4764426586,1.5735259821-3.5130726459,2.6164755312-.6952996994,3.3667202116,1.3905993988,2.9824403746-.292760707,1.9211758318,2.1590473961,2.2505106878-.2744457133,4.1717981964,1.5003776841,1.2808211135-.3659648434,2.7810871208,3.2203119389-1.2258761324,2.3237148241,2.1042140919,2.1956773835,1.189246145,2.7811429592.6038364077,6.5138280142-2.1407324025,2.1041582535.073148298,3.4032385222-2.7079388228,1.7382492485-.8233929784,4.2632056496.8965412764,1.3722844051,3.2386269326.8050779847,1.8480275338-2.6164755312,1.7747675591-4.9768203427,3.8423516636-2.5799013822,2.3420856562.8782821211,1.7747675591,2.1590473961,2.7995137913,6.8248478765.9514862574,3.5130168076,2.2871406752,4.00707493.0183149937,6.4771980268-1.8480275338,1.3722844051-.5306881098-2.2322515325-1.2258761324.951430419-.5122614393,5.4891376204-2.1225290856,2.5066972458.0366299874,4.09859406-2.5250122395,3.9338707936.073148298,1.4637476967,5.3793593351,1.3173952624,1.9578058192,1.0429495491.988004568-1.5735259821,3.3300902243,2.1224174088,1.9029725149.457428135,5.4158776456-3.5496467949,3.5679617886-.3110198623,3.0190703619-4.0436490789,4.7388929399-4.3547247797,5.6538608868-3.641165925Zm-75.1279924307-48.4507523261l.128093279-3.0373295172.8050779847.3476498497.5672064204,2.0309541171-1.5003776841.6587255504Zm-59.5022875417-8.3252255606l4.3730397733-2.3602889731,1.7930825528-2.3420298178,5.050024479-1.5186926778,3.0007553682-3.0006995298,1.518581001-.3110757007,1.0247462322-1.9760649745,3.2751452432-3.0556445109,1.5368959947-2.4518081032,2.5250122395-1.8113975464,2.7811987976.82333714-3.7875183593,5.9831957428-.8233929784,1.9394908255.5306881098,3.2019969452,1.8845458444-2.7811987976,4.0985382216-.2195565707,3.4215535159,1.2076169771,3.5679617886,4.263261488,1.6834159442.6037805694,2.8543470955-1.2259319708.8782262827.9148562701,3.0555886725.0732041364,5.6172308994-5.0317094854,3.2019969452-.951430419,4.391354767-.6038364077,2.6896238291-1.8662866891,2.2139923772-.5123172777,1.3539694114,4.7023746294,2.4518639416.2195565707,2.1590473961-1.1893019834,1.1709311513.9331154254,1.2625061198-1.7016192611,3.2935719137-1.1527278344,1.2807094367,5.9831957428,2.0492691108,2.2322515325,2.4518639416.1829265833-.0914632916-1.7381934101,2.2505106878-.4757431287,1.6101559695,1.5186926778-.7684479974,1.5369518331-6.6784954422.201241577-2.9458103872,1.3539694114-3.7692033656-1.3905435604-.6038364077,2.0492691108.7502446805,1.5186368394-1.5553226652-.0914632916-2.6531055185-1.9211758318-4.0802232279-.6952996994-1.9578058192.2561307197-1.4637476967,2.5982163759-3.0190703619,1.116097847-3.4580718265.128093279-1.1893578218,1.1710428281v1.9394908255l-3.4581835033,2.2322515325-.1829265833-2.2871406752-1.7016192611-.2012974154-.2745015517,2.4701230969-2.7262538165.5488914267-1.0795795365,1.2259319708-1.189246145,4.3547247797-2.6164755312,5.7270091848.3476498497.4207981477-2.1408440792-1.5003776841.7502446805-2.6347346865-2.8909770829.073148298.7684479974-2.5432713948-.329334856-3.0373295172-2.8177171082-1.7016192611-1.7016192611-1.9578058192-5.3427293477-.951430419-1.4821743672.786762991-5.4341926393-1.8480275338-12.7165244893-1.9029166765-1.6649892737-2.7628279655-2.3237706625-.7868188294Zm11.4906483569-23.676428898l-.128093279-1.8114533848,6.6418654548-5.086598628-.9514862574,3.0373295172-1.5003776841.786762991-2.5798455438,2.5799013822-1.4820626904.4940581224Z"/>
  <path id="Chesapeake-Senior" class="cls-1" d="m605.4150390034,160.0815322678l3.5679617886,15.5891865785,13.4118241887-3.3484052179,47.151616219-13.265415916,7.2090718752,20.8953417772,8.3801147033-2.4152339542-.5122614393,7.9043715746-.8966529532,3.4032385222-1.5002660073,1.5552668268.0182033169,4.2083723453-1.0063195617,7.1175527451-1.8662308507,1.9761208128-1.3540810882-2.1042140919-.2743898749-5.5257117694,1.7016192611-7.6116108676-2.5799572206,1.5735818205-.6951880226-2.7994579529-1.3722844051-.7868188294,1.1526161576-1.6467301184-2.7445688102-2.1773623898-.3110198623,1.3905993988-2.7811987976.5306322714-1.7564525654-2.7628838039.859911289-.256186558-1.0246345554-4.0070190916.4025948308-1.8297125401-2.5982722143-5.0134503301.5306881098-3.5679059502,2.0126391234-1.2076169771-.5672064204-3.3484052179-1.5003776841.8599671274.4025948308,1.6833601058-2.7628838039,3.1287928089-.457428135,2.2322515325,1.1344128407,4.9768203427-.6403547183,2.6896796675,1.6283592864,3.7143142229,2.4335489479,2.1773623898.329334856,2.1041582535,1.6284709631,1.7199342548-.201241577,1.5552668268-3.7143700613-1.7931383912-4.6291146546-.0548891427-1.9578058192-2.2322515325-2.0309541171,2.1773623898-1.4638593735-1.7748233975,1.2443028029-3.1471078026-1.3722844051,1.1893019834-.3659648434,2.6896796675,1.0246345554,1.6101559695,3.3482935412-1.5552668268,1.3540810882,2.5067530842,4.866986219-.2196124091,1.8480275338,1.7565642422,4.2814648049,1.2258761324-.3841681603,5.2146919071,2.5066972458,3.2568860879-1.3174511008,2.2871406752.3476498497,2.1956773835,2.0127508002.8050779847-1.2625061198,2.5798455438-3.476498497-1.8846016828-.402483154,1.1161536854,2.9091803998,1.2441911261,6.6418654548-1.4637476967,3.3667202116,5.7818983274,3.3666085348,6.2942156051-3.8972966446.4756872903-.2927048686.9880604064-4.2815764817,2.3603448115-.4207981477,1.1160978471-2.9458103872,1.1527278344.457428135,1.1710428281,3.4763868202-1.9029166765.6952996994.5855214141,3.8241483467-2.0310099555,1.7382492485,1.1710428281,2.2505106878-1.3722844051,1.9761208128,3.8057775146-.2928165454,2.1956773835-1.5735259821.6769847057-2.2871406752,5.1598027644-4.4828180587,1.5186368394v3.0922186599l2.6714205122,2.3054556689,1.7199342548.0914632916-1.7016192611,5.580600912-2.6164755312.1647232664-4.2266315006,1.7016192611-2.7628838039,1.8662866891-3.933926632,4.5559663566-2.7628838039,5.3062110371-.6952996994,5.9282507617-3.1653669579-.4391131413-4.7755229273,2.4518081032-19.3767049378-12.2042072116-15.6073898954,3.4581835033-.1830382601-2.0126949618-2.7262538165-2.3969189605-1.2258761324,1.3539694114-.4391131413-1.7565084038-17.2358608585,2.9458103872-3.677740074,1.4820626904-2.6714205122,2.2139923772-4.592596344,2.1041582535-7.0626636025,1.7199342548-9.8072324127,1.7930825528-.3111315391-4.1168532153,2.6897355059-.8965412764.5855214141-3.0190145235,2.9641253809-3.2019969452,3.7875183593-.8416521337,2.9274953935-3.3117752306,3.3850352053-1.6650451121,2.2871406752-4.464503065,1.6649892737-1.5186926778.7136146931,1.6101559695,4.7572079336-4.4461880713,2.6164755312.128093279,1.0795795365-3.5679617886,2.3786039668-1.4088585541-.2195565707-4.1534832027-27.2078165376,5.5440267631-.1647232664.3293906944-11.7284082445,2.0675841045-10.3012905351,1.2990802687-2.6897355059.658669712-15.2963700331,1.9029166765-17.3090091565,3.0556445109-3.1288486473-.3110757007.6403547183,3.0739036662-17.2541758522,2.1590473961-1.64667428.4025389924.5122614393-2.2688256815,2.1407324025.494002284.2928165454-7.1358677388-.786762991-.8599671274,1.7382492485-3.3117752306,1.5552109884-.3842239987,5.3610443414,1.9578058192,1.5552109884-1.6650451121-1.5735259821-2.0858990982.2928165454-1.8662866891,5.4158776456-2.3969189605-1.6833042674-2.8360879402,1.4637476967-2.7079388228,1.0429495491-1.7931383912,3.4032385222-.6952996994.9331712638-1.3905435604,1.3539694114,1.0428937107,1.7016192611-.8416521337,3.7875183593,2.0310099555.8417079721-1.9761208128,3.1653669579-2.2322515325,1.1344128407,1.5552668268,2.945922064-1.1527278344-.5123731161-1.8479716954,2.6164755312-2.6531055186.8233929784,1.8846016828,3.2751452432,1.0978386918,1.3722844051-1.3905993988.5672064204-4.5559663566,2.2139923772-1.2441911261.530576433-2.3237706625,2.0310657939-1.8113975464-.7136146931-3.3666643732,3.5679617886.1463524343,2.1956773835-2.0675841045,2.3236589857-.5123172777-1.9028608381-4.501077214.8782262827-.951430419,5.0683394727-.9514862574,3.3117752306,3.0556445109.4940581224,1.4637476967,4.2631498112-.1463524343,3.403350199,1.7565084038,1.8845458444-1.6467301184,5.251266056.292760707,1.1344128407-1.9943799681,1.7748792359-.9514862574,1.1527278344,2.7811987976,1.6101559695.1463524343,2.2871406752,1.9578058192,3.4032385222-1.1344128407.0548333043-2.3603448115,1.4089143925-1.2808211135-1.1893578218-2.4700672585,1.5918409758-4.6658004804,2.4884939289,2.1956773835,1.0429495491-1.9029166765-.7685596741-1.8846016828.9514862574-3.6411100866,1.5186926778-.256186558.988004568-2.7811429592,1.6649892737.8050779847,1.4821743672-1.1344128407,3.8240366699-6.6967545975-.201241577-6.5504021632.8233929784-4.537651363-.5306881098-2.6165313696-1.3356544177-1.6467301184,1.6833042674-1.3905993988Zm52.4213089455,19.4864832231l1.2258761324-2.2505665262-2.0675841045-1.2076169771-.786762991,1.3173952624,1.6284709631,2.1407882408Z"/>
  <path id="Susquehanna-Senior" class="cls-1" d="m715.2344213987,106.6173854501l-1.5370076715.2561307197-.402483154,2.9275512319.8050779847,3.6227950929-4.2815764817,2.4884380905-1.1527278344.128093279-4.8853012127,3.1836819515-6.4406238778,1.8846016828-1.9943241297,3.2385710942-2.7262538165,1.7565642422-2.8726620892,3.1104778152-1.4820626904-1.6284151248,2.4334372711-2.8543470955-1.317339424-1.0795236981-3.2751452432-12.9360810599,5.2877843666-1.6101559695,15.1317584435-5.123172777.1097782853.2744457133,3.1288486473-1.3722844051,1.7747675591-.6587255504,2.0309541171,3.677740074,1.6651009505.7136146931Zm-30.0987936205,70.9196200854l-8.3801147033,2.4152339542-7.2090718752-20.8953417772-47.151616219,13.265415916-13.4118241887,3.3484052179-3.5679617886-15.5891865785-5.324414354-22.8714067516,2.1041024151-1.5003218457,6.1112890218-5.7818983274.073148298.2744457133,1.0429495491,4.299835637,54.2327064919-15.4793524548,2.0126391234,1.8846016828.9148562701-.3842798371,2.0492691108,1.4638035351.4940581224,2.5615863885,3.0739036662,2.1590473961,1.9211758318-.5306322714.8966529532,1.0246903938,6.7881620507,1.8297125401,4.8487829021,1.0246345554.0366299874,5.3610443414-1.6834159442,1.7748233975-.2927048686,2.9458103872,3.7875183593.1464082727.8782262827,1.8479716954,1.2625061198,9.514527544-1.9028608381,7.9958348662-1.9944358065,2.7628838039-1.0429495491,4.9768203427-1.9943241297-2.3786598052-4.0986498984-.2195565707-5.5989159057-2.2688256815-.988004568-2.4152339542-.1829265833-.3476498497.4391131413-1.1344128407-1.0063195617,1.5186926778,1.0428378723,2.5798455438,2.5982722143,1.9212316702,1.6833042674,3.9887599363,3.9887599363,3.4947576523,1.2991361071-.2195565707,2.2505106878,5.6354900547Zm30.6110550598-70.4988219377l1.9761208128,2.6531055185-2.2321956941,1.2625061198.2560748813-3.9156116383Z"/>
  <path id="New_England-Senior" data-name="New England-Senior" class="cls-2" d="m717.7228036509,109.6912891163l-1.9761208128-2.6531055185-.5122614393-.4207981477-1.6651009505-.7136146931-2.0309541171-3.677740074-1.7747675591.6587255504-3.1288486473,1.3722844051-.1097782853-.2744457133-15.1317584435,5.123172777-5.2877843666,1.6101559695,3.2751452432,12.9360810599,1.317339424,1.0795236981-2.4334372711,2.8543470955,1.4820626904,1.6284151248,5.6903791974-.4207981477.7501330037-1.3722844051,4.5011330524-1.5735818205,2.0858990982-1.3539694114,2.8543470955-3.9887599363.9148562701,1.8297125401,2.2139923772.1280374406-3.6594250803,4.0802790663-8.2886514117,6.9712003108-3.7692033656,2.1041582535-2.6896238291.7136146931-1.7199342548,1.4820626904-1.9394908255-2.3969189605-.0366299874-5.3610443414-4.8487829021-1.0246345554-6.7881620507-1.8297125401-.8966529532-1.0246903938-1.9211758318.5306322714-3.0739036662-2.1590473961-.4940581224-2.5615863885-2.0492691108-1.4638035351-.9148562701.3842798371-2.0126391234-1.8846016828-54.2327064919,15.4793524548-1.0429495491-4.299835637-.073148298-.2744457133,6.3490489094-6.8065328828.6221514014-2.6347905249,2.0126391234-2.2322515325-1.6833042674-2.6164755312-1.1527278344-.292760707-1.9211758318-4.4461880713,6.5869204738-3.8790374893,6.3125305988-1.6467301184,2.6347905249-.2378715644,3.2203119389,1.0612645428,1.5003776841-1.2259319708,5.2329510623-1.4271735478,2.8177171082-2.1407324025,2.4701789353-4.0619640726,2.1224174088-.7318738484-1.2990244303-4.6474854867.3110198623-3.0007553682-3.2019969452-1.0428937107-.0549449811-2.2871406752,3.860778334-4.3181506307.9696895743-3.0190145235,3.8789816509-7.3920542969,4.3730397733-4.5559663566,7.9775198725-2.1407882408,9.1120443901-3.5496467949,11.8748165172-4.0436490789,9.0936177196-3.5679617886.0366299874-4.8853012127,2.7628838039-.5306322714.1829265833-1.2076169771,4.00707493-4.1351123706-1.2441911261-.8782821211.859911289-3.2385710942,1.4455443799-1.9212316702-.7502446805-.8416521337,1.1710428281-2.2322515325-1.6649892737-2.6713646738-.5855214141-4.757263772,1.1160978471-2.1224732472-1.1527278344-4.8487270637,3.2386269326-15.9916697325,2.1590473961-.2745015517,1.3722844051,3.0007553682,1.8480275338.4757431287,2.7079388228-3.2569419263,2.1407324025-.9148562701,1.0246345554-1.8113975464,4.0803349047,1.2990802687,2.6531055185,1.3722844051,7.9042598978,18.2239771034,1.6101559695,4.4827622203,4.263261488-.494002284.256186558,2.1224732472,1.7199342548,1.3539694114-.0914632916,1.9578058192,2.6164755312,1.8113975464,1.8297125401-1.4454327031,4.464503065,4.9036162063-1.2076728155,3.6227950929-1.7564525654-.4025389924-.3294465328,2.2688815199-1.7747675591.2561307197.457428135,1.6101559695-2.1590473961.7136146931-1.8663425275,4.9219312-1.7930825528-2.0675841045-1.2441911261.3110198623,1.6284709631,2.3786598052-2.0858990982,2.3602889731-1.4455443798-1.8113975464-.8050779847,1.5918409758-2.9091803998,1.2259319708-1.0246345554-2.3969189605-1.5186926778,1.2441911261.988004568,1.5918409758-.1829265833,4.263261488.6952996994.8599671274-1.3356544177,2.8543470955-2.3969189605.1463524343-.457428135,2.5799013822-1.6467859568.9880604064-.786762991,2.2871406752-1.9028608381.3476498497-1.1893578218-1.6101559695-1.4820626904,3.9155557999,1.3722844051,1.5369518331-1.6651009505,1.3905993988.457428135,1.5918409758-1.4637476967,2.7445688102-.1097782853,5.0134503301-.2378715644,3.6044800992,1.5186926778,2.7263096549.329334856,2.5615863885-1.0794678597,2.8909212445.8415962953,2.5799013822,2.7262538165-.6403547183,2.5066972458,2.0492691108.4940581224,2.1773623898,1.5003776841.0548891427.8233929784,1.8479716954,3.9156116383.3476498497,3.2934602369-3.0555886725-.0183149937,2.5981605375-4.9585611874,4.2266315006-2.0675841045.8965971148-1.7930825528-1.0795236981-1.8113975464,1.2075611387.3476498497,1.2076169771-1.9761208128,1.5735818205Z"/>
  <path id="Frontier-Senior" class="cls-1" d="m212.6180326932,443.1387059819l-2.1862747388-3.4310056475.1595827198-1.5479484252,1.8990264519-2.8405596287.6862035645-6.8779850903,2.3937316658-.5265995382,2.2979832514-1.5479484252.0159585764-2.2341885152,1.0851557984-1.4681281493,2.1064864227,4.4523545345,2.776728367,4.1969686121,1.1011143747,3.8140358304-.8936589696,1.835184537,1.787320983,5.4736547209-3.1756836447.8937046264-4.0853042344-1.6117949058-3.3512249408-.1117191659-2.6171456472,1.5319746299Zm3.8938043619-37.3581780412l.2712897105,2.9203799046,2.0426490734.4947006482,2.4256488185,5.0746994433-1.5479453814,1.5320233305-4.1172183434-1.9628774981-.5266208447-.9575024064,1.0692002658-2.5692486116-1.5798625342-2.0586228687-.0159585764-1.9469037028,1.9788178118-.5266482388Zm-2.984185294-6.0322018497l-1.8192366139.5426220341-2.489481602-2.0905704593,1.6117796869-.9415286111,2.696938529,2.4894770364Zm-6.8301154488-15.5113831422l-.5744950519,4.2289649033-1.5958211105,1.3723827788-2.441605873-1.6596675911.5585364755-5.1225721286,1.3883641835,1.085146667,2.6650213763.0957453706Zm-11.8888669689-21.2882477702l1.1170752339,1.2288134235-.2393733188,1.9309299076-1.4681555434,1.7075402764-1.9149854087.1755169459-2.4096898617-4.5480999051,1.6596538941-1.867083427,3.2554750046,1.3723827788Zm-63.663690391,78.5857964697l.5367961081-.8754895871.4026019566.8499320467-.5431928065.9074438259-.747692134-.4856712762.3514868758-.3962150093Zm.0958529653-2.0321608739l.2556144083.9330013663-.7796366217.8307614536-.0958529653-.4473300901.6198751788-1.3164327298Zm-.7348987372-7.2403897651l.7796366217.2172732222.2044798254.3578640721-.4984549219.7796366217-.7348987372-.1214202568-.3131261875-.7860235691.5623633996-.4473300901Zm-2.0832954569-.3962052582l1.195012473.8051941621-.2044993275,1.2141830661.7221248425,1.7957170587.0958529653.9393980647-.268388303.6262718772.2620111067.268398054-.3323162827.8115811095.159761443,1.0416477284-.268388303.7349084883.4537170374-.0511248319-.1086463621.6198751788-.9585686578,2.1983092642-.4537170374.3898183109-.8307517025-.4920582235.2875588961-1.2077961187-.3514673737-.0511248319-.2300471168-1.1119431534-.3195228859.1853287344-.3962247603-.5176352661-.3131261875.8627156924.5943078873.0127836457.178932036.4601137358-.7029347473,1.0544216231-.5368156102-.4026019566-.2044798254-1.8532288379.10862686-.8499320467.4281692481-.7348987372-.7348987372-.2747947524.287558896-.5751372942.5623633996.1981026291.7924105164-.2620111067.2172732222-1.0224673843-.5367961081-.4856810273.6262718772-1.5017517132.1405908499-.837158152-.6901803548.3067489912.249237212-.8946699312.6454424702-.178932036.1150235584-1.1119334023.3195228859-.1086366111Zm-2.6520360527,4.1793550574l.3962052582.6454327192.6262718772-.2620013556.2939555944.4025922055-.8243745063.6198751788-.5303994097-.5559667012.0383411861-.8499320467Zm3.3741608952-7.8219237577l-.1342136536-.7412856845.6646130633-.1278169552,1.3164327298,1.2780915437.7221248425.3067489913-.0191705931,1.2653078979.5048516203,1.284478491-.4153758513.5943176384-.6518391686.1022496637-.5943078873-.4665104342-.6709902596.1661581414-.5240222134-.5495797538-.8371484009-.1022496637.517625515-1.3739542601.4984549219-.8115811095-.5112483187-.2875686471.1342136536-.5368058592Zm-1.8915895262,2.1663647765l-.1853092323-.6198751788.0447378845-1.1119334023.3131261875-.7157378952.5240222134-.159761443.1917059307.5176352661.3834313635-.5368058592.6326490734,1.5592732435-.3834313635,1.0224771354-.4664909321-.0766823723-.8179778079.9585686578.1405908499.4473300901-1.0097032407,1.0863758619-.3195228859-.4920679746-.4664909321.7476823829-.0894757691-.5367961081.6134784804-1.62317197.8946601801-.4665104342Zm-2.0960693515.3195228859l-.4345464443.5815339926-.2108765238-.5623633996.2044993275-2.977945886-.2939750966-1.0736019672.5431928065-.4409431427.4856810273-1.5081484116-.1469875483-1.4953647658,1.354773916-.6710000106.0958529653.6198751788.4729071326.7029542494.5751372942.3706477178-.4473398411.8754895871-.9138307732,3.1505007257-1.2844882421,2.4283661321Zm5.438285759-10.7040166783l.7221248425.9010568785.587930691.2172732222-.2556339104.4026019566.0191705931,1.8979667224-.4345464443-.517625515-.4089791529.4409431427.1981026291,1.0799791635-.5304189118,1.4762039238-.8051844111.0575117792-.4601137358.3770346651-1.5209320573.4920679746-.2811816998-.178932036.4281497459-1.1119431534.5431928065-.5240124624.4026019566-.9777392508.2620111067-1.3100457825.3898085598-.5623633996.568760098-1.5720568892-.0255672915-.8179778079.4792843289-1.1247170481.1214202568,1.354773916Zm-5.885606098,3.1824549645l.4026019566.2108862748-.1214202568,1.2013994203-.5623633996.58792094-.7285215409-.1853189834.6901803548-1.0224771354.3195228859-.7924105164Zm1.4889680674-5.3679903341l.8116006116.4792843289.8115811095-.1853189834.4281692481,1.0672052688-.8243745063.4856712762.0063966984.3450901774.8371484009-.5943176384.8179778079.766852976.2108765238.8754993381-.8946601801.9138307732.1981026291.2172732222-.4473398411,1.5976144296-.856318994-.1725353376-.7476726319-1.8787961294-.6071012841,1.2141830661-.7029542494.249227461-.3962052582-.4792843289.1086463621-.9010471275-.3003522928-.8179778079.1405908499-1.2717045963-.2939750966-.7796366217.5240222134-.8371484009.5431928065-.089466018.5431928065-.6710000106.089456267.4665006831Zm-20.2960804521-27.9965937041l-1.9746685969.4728973815-.4664909321.4217627986-1.0480444268-.3003425418.7796366217-.6134882314,1.4761941728-.1086366111,1.2269764629-.4409431427.0063966984.5687503469Zm.4089791529-2.7031608846l-.9585686578.9138356488-1.1822385783.7860284446-.159761443-.7093460723,1.3675673128-.8946650557.9330013663-.0958529654Zm39.9723247298-45.8323635363l-.0319639899.3323016561.6071012841.8691026397.5367961081.2172756599.5879111889.4792843289.4792843289.6901706037.4729071326.1981026291.0255477893.6710000106.2939750966.9649580429.8371484009.8115884228.4792843289-.0639060398.7540693303.3067441157.5495895049-.1405908499.7221053404.440940705-.2108765238.2300568679.5112288166.159761443.5367961081.9713498657.0767018744,1.0096934896.3067294891.6709951351-.089456267.3514771247.4537170374.3962101337.1214202568.7796317462-.1405908499.3578689476.4792843289-.044733009.2108765238.428159497-34.0866991296,47.1488011417.8691123908,1.1502745885.4537170374-.3578640721.7796366217,1.4122954462,1.265317649-.3834313635,1.5848210328.8307614536-1.1822385783,1.2461373049.0767018744.7157281441.5879111889.9841359492-.2747850014.8691026397.9457947631,4.3135589599-.6454424702,2.0193869793.7796366217-.2300568679,1.6679001035-.1981026291.677386958.3322967806.6837836564-.4792843289.5304189118-.9841261982.4664909321.249227461.6134979825-.7860235691.9393980647.2364438152,1.6551262088-.0830790707.4984549219,1.9043536698-.5495895049.7093411968-.1277974531.9202274716.5943078873.5368058592.2492177099,1.6103883243-.2364438152.2939653455.070305176.8307614536.7540693303,1.284478491.2300471168,4.0643314989-.1533647446.9777392508.1661581414,1.1311137465-.0575117792,2.2877850333.0958529653,2.0257739266-.6646130633.5112385677.8179778079.677386958-.7029542494.8691026397.5751567964.7412856845-.4473398411,1.1694549326.8052039132.2875686471.9330013663,1.8276712975.8307517025.6198751788.230066619.7604660287.3962052582.3578640721-.1150235584.6071012841.9202274716.5751372942v.8051941621l-1.0224771354,1.0736019672-.4026019566,1.0735922162-.3195228859,1.9171373155-.5367961081.2875686471-1.4570235797,1.2525340033-1.6231817211.6646033122-.0447378845-.7157281441h-.5048321182l.2428210115-1.2908751894.3131456896-.4601039847-.0766823723-.7285215409.9969098439-.3003425418-.1022496637-.3067489912-1.0735922162.4537267885-.1661581414-.6646130633-.568760098.0830790707-.7157281441-1.802104006,1.0735922162-1.1502843395-1.0224576332.0958529653-.3514868758.6518294176-.3898085598-.8051941621.1725353376-.7029542494.7732399233-.5048516203.2044993275-.7604562776-.8818862855.3003522928.0127933968-1.5209320573-.4856810273.0766823723.2747850014-1.1438876411.9074535769-.4026019566.5559667012.2620111067.2364438152-.8946699312.8179778079-.9330013663-.4728876305-.178932036-.4920582235-1.3483869686-.1150430605-1.4058987478-1.1311039954-1.5209320573,1.1630679853-2.1791484222-.3514868758-.5112385677.5815339926-.8435353483-.3770346651-.4856712762-.0958529654-1.5592732435.1341941515-.7349084883-1.1375006938-.8307614536-.4792843289-2.300558928,1.5081581626-4.0323772601-.747692134.7157281441-.3131261875.8371484009-.2811816998,1.763772571-.2684078051.1661483903-.3067294891,1.4058987478-.5176450171.7604660287-.4345464443-.4537267885.070305176-1.1119334023-.4792843289-.4409431427-.9202274716-.1725450887.7348987372-1.2653078979.1278169552-1.3164327298-.6134979825.089466018-1.0544216231-2.0385575723-.3322967806.2364438152.7221248425.8627156924.2172732222,1.2780915437.2620111067.1853189834-.3131456896.7540790813-.0958529653,1.0288640827-1.2141830661-.0383411861-.3898280619-.5943176384-.4345464443.7285117899-.4026019566-.9521719594.0063966984-.5431928065-.4473398411-.249227461-.607081782-1.7382052795-.338693479-1.444239934.2492177099-.6007045857v-1.0991595076l-.9969098439-1.3675575617-.3642607705-1.0480346758-.856318994-1.4634202781-.4153758513-1.1694549326.5304189118-.6709902596.089456267.3706477178.5751372942-.2875783982.3898280619-1.2013994203.7157281441-.3642607705v-.3578640721l-1.3292261266.7093411968-1.7701497672-.089466018-1.3803412074-1.2333634102-.8435450993-1.4697974744.2939750966-.5431928065-.6710097617-.2747850014-.3834118614-.7860333201-1.1758613821-1.2716948453-.7924105164-.5751470453-2.0129902809-.9713523035-.7924105164-.2556144083-.2811816998-1.2908751894-.7540888324-1.0480346758.0191705931-.6646033122.4473398411-.8179778079-.7221248425-.4409431427-.7348987372.4856712762-.5240222134-1.7573758726.1086463622-.5240124624-1.7765464656-.2236699206-1.2589209506.3834313635.3706379667-.9713523035.6007045857-.2364438152.2620111067.3770346651,1.6103883243.3067392402.1853287344-.5431830554-.7093314457-.1917156818.2428405136-.7285117899-.4345659465-.4601137358.6518391686-1.8021088816-.4665104342.204494452-.8371484009-.3514771247-.070305176-.3578640721-.6006850836.268398054-.7221248425-.8371484009-.4601137358.472892506-.6837836564-.3259147088-.1086463621-.4025970811.9521914615-.7412905601-.2620111067-.1661532658-1.195012473.632653949.268388303.7476823829-.5303994097.7285117899-.2875783982,1.0096934896-.8627156924.6390457718-.2108765238-.6134833559-.4537170374.29396047.287558896.498454922-.6454229681,1.2525340033-.7924300185-.2747947524-.1533647446-.4856712762-.7796366217-.1469826728-.0702856739-.4601137358-.7285215409-.5495797538.3642607705-.3770346651-.5559667012-.0127787702-.6134979825.3450804263.0894757691-.6901657282-.9074535769.3195228859-.0958529653.4217676741-.8307517025-.0702954249-.5112483187-.3450853019-.6134784804.3386983545-.8946601801.0127787702-.2044993275-.4473300901-.8371484009.1917108062-.2811816998-.29396047-1.5784438365.5048467448-.7540693303-.5304091608.0830790707-.5240173379-.92662417.1917156818-.4473398411-1.2014091714.9202274716-.6134833559.8052039132.2108862748.3195228859.3770346651.3834313635-.2108813993,1.2077863677-.0383460617.4920777257-.4984549219-1.4825908712-.0639036021-.3259195843-1.0416428529.1725548398-.3578689476,1.4378529866-.856318994,1.373944509-.3003522929.7285020388-.607091533.2939750966.0319493633.7476726319-.6837787808.4537365395-1.0863758619,1.0096837386.3450853019,2.4667073183.0511199563-.0766823723.7540742058.3195228859.5048467448,1.0799889146.0639036021-.1341941515-1.2589160751.159761443-.7349036127-.6007045857-.428159497-.1853287344-.5751421698-.3003522928.1022447882-.9585686578-.249227461-.8882634817.3706477178-.7924300185-.4345513199-1.3611511122.1278072042-.517625515.4153807268-.7540888324-.2172732222-.6198751788.428159497-.677386958-.0127787702-1.0544216231.7796317462-1.2844882421-.0639036021-.10862686.8051990377-.9585686578.4345513199-.7924105164-.5048467448-.9202274716.856318994-.9457947631-.268398054.1661581414-.5687503469-.9905326476.4026019566-.3898085598-.3323065317-.4153856023.5687503469-1.1183301007-.4984549219-1.4953647658,1.2205797645.8754895871.990518021.3962150093,1.1055513305-.2172829732.6582163649-1.0032967912.4345513199-.9457947631-.0319542388-.4984549219-.4345513199-.4345464443.3578689476-.4537267885-.1469826728-.338693479.6390457718-1.0480346758.4473300901-1.373944509.0255624159-.3898183109-.3898183109-.6262621261-.1278072042-.3195228859-.4153807268-.5559764522-.0127787702-.2811816998.4601137358-.7285117899-.3386983545-.6454327192.4409431427-.0255575404-.722119967-1.4634202781.6582163649-.6007045857-.7668578515-.517625515.6198751788-.2556144083-.562358524-.5304091608-.0511248319-.766852976.7668578515-1.6423523141.7157281441-.8691026397-.6134833559-1.1438876411-.0830741951-.3962150093.1917108062.0511248319-.8179778079-1.7893203603.4409431427.1469777972-.5112385677-.4537267885-.2875686471-.7348987372.543187931-.6134882314-.1533696201-.338693479-.5751421698-.9969098439.2556192838.4026019566.856318994-2.1152399446.6965624266-2.3389098652-1.6295686684-1.8148876518.6390457718.1533647446-.4089889039.8882732328-.6901706037-.2364438152-.5304042852-.7540790813-.2364486908-.4025922055.2300568679-1.2461373049-.3259147088-.9202274716.2172780977.3450804263-.5112385677-.7029444984.2556192838-.0702954249-.7988072148-1.5720568892-.1917156818-.5431928065-.7093411968.7093411968-.472892506.3514771247-.8371484009-.7221150915.1661483903-.5048516203.4984597975-2.3516837599.4920630991.1341941515-.6710000106-.6837739053.4345513199-.4153856023-.7412905601.8754993381-.9330062418-.0958627164-.5815339926-.4601137358.159761443-.1405908499.7221248425-.7988072148.4153758513-.7540693303-.223665045.428159497-1.0480346758-.3195228859-.5304091608-.3578640721.1661532658-.0511248319.8563238695-1.3803412074-.2875735226.2811816998.7668578515-.3067392402.2875686471-.1469875483-.7093411968-1.1630582342-.1214202568-.9713523035-1.3483869686-.9202274716-.2875686471-.3706477178.2108862748-.9393883136-.4409431427-.2747947524-.677386958.7796366217-.9585686578.7029542494.3131310631,1.4250693409-.5048467448.4345464443.5240173379,1.6103980753.5751421698.7476823829.9202274716-.4217725497.9585686578.7157378952-.1661532658.5431830554-.562358524.6837836564.3067392402.4473300901.5815339926,1.8851830767-.3323065317,1.8085007044-.1469777972,1.8915797751.2172732222,1.4889778185.8882732328.2300568679.7221248425.7157281441.2556144083-.3067392402.5112385677-.7029542494.1405908499-.1022496638.6390457718.6518294176-.4217725497.5815339926.5879258155-.2108862748.5112336922.2044895764.5048467448.4473398411-.3898183109-.159761443-1.0033016668.2172732222-.2875686471,1.5784438365-.6837787808,1.1886255257-.0702954249,1.3292163756.1533696201,1.6359556157.651824542,1.6103883243.0830790707.0575215303.7029493739.428159497.2108862748.4089889039-.6454375947.6007045857-.3770346651,1.6551262088-.3642558949,1.4825811201.2300519924,1.5528862961-.1661483903.4728973815-.5240173379,4.1026726851-2.8820977961,1.7445922268-.0702954249.6710000106-.8243696307-2.9523980966-.990518021-.4537170374-.7668578515.3259098333-.58792094-.1214202568-.5559715767.4089889039-.6006997102-.5240124624-.115028434-.9841359492.5240173379-.696557551,1.284478491-.8179778079-.0319493633-.1853189834-.5304091608.9713425524-2.2047059626.3706477178-1.2333585347-.2172732222-.2556192838-.7540693303.3642558949-.2939653455-.134199027.2172732222-.7796366217-.268398054-.4792843289.6646130633-.9010568785-1.9363079086-.4217676741-1.5720568892-.543187931-.4473300901.2300568679-1.265317649-.4026019566.1661581414-.8691026397.9074438259-.1022447882,1.2908751894-1.3164327298,1.2589209506-1.5273238802,1.0799791635.0575166547.8691026397-1.5081484116.3898183109-.9905228966.7860333201-1.1694500571.0702954249-.8371532765-1.0033065423.6070964086-.6390457718-.4345513199-1.284478491-.4792843289-1.0927725603-.9457898876-.4026019566-.6646081878-.0766823723-.7732447989.7604660287-.6901706037-.0766823723-.651824542.6134784804-1.5784438365-.1981026291-.7796366217.7540790813-1.6423474386.9010471275.0639036021,1.1183301007-.677386958-.4792843289-.1981026291.6198751788-.5304091608.6646130633-.223665045.1661483903-.8179778079-.5431928065.3259098333-.1853189834-.7093363212.8371484009-.7157330197-.178932036-.5240173379.4473300901-.6646081878.7604660287-.5240173379-.6326588245-.191713244.6710000106-.5815315549.5240222134.4089889039.5240124624-1.0033016668.5623633996.722119967.9777392508-.6965599888.7860235691-.29396047,3.0354674162-.115028434.8307614536-.1661508281.0191705931.281179262.8115908605-.7540742058,1.872399431-.575139732.9074535769.0063893851.8307517025.6326563867.1917156818.8179778079-.268398054,1.5592708057.5304091608.4920655368,1.4506268813.1214202568,1.9171373155-.1981050669.4473398411.29396047-.2620111067.3578665098.7348987372.9585686578.92662417.6198751788,1.942704607-.3195228859.3322967806-.2684004918.9777392508-1.3675575617.7093314457-.6326563867.3642607705-1.1950149108.5304189118-.7476823829.2556144083.722119967,1.0033065423.089466018.5815144905-.4025970811.4856810273-1.4889778185-1.2077863677.102247226-.2364633174-.5943127628-.7988072148-.1214178191-.5048321182-.440940705-.408998655.102247226-.9010568785-.2620086689-.9010568785.383426488-.5367961081-.07668481.8052039132-.8115884228-.0702856739-.5176279528-.9010568785.2556192838.2300471168-.4025995188.0191705931-1.0608158837-1.0224771354-1.4059011856-1.2780915437-.6134833559-.3514673737-.3323040939-.2108765238-1.0799864768-.6262718772-1.8724043065.0575117792-.6326563867.408998655-.543187931.8307517025-.3450853019.2620111067-.9777392508.7540693303-.3323040939.5751372942.1214178191.7924300185-.6709975729-.3514868758-.5623609618-.0511150808-.619872741-.3706574689-1.0224746976.159761443-.7604635909.0191705931-1.0096922708.5367961081-.4217701119,1.425079092.6646069689,2.121636643.6198751788,1.354773916.4984549219-.0639084776.8243696307.2684078051.6198751788.677386958-.2620086689-.1341941515-.3962101337.4856615251-.3578640721,1.6934673949.7860260068,1.604011128,1.0672052688.6007045857.7540742058.0958529653.5687503469-1.0288543316.3770371029-.5559667012.5048467448-.5495895049.134199027-.4984549219.7668554138.4792843289.440940705.3450901774.7285142276.6901608526.651824542-.1022496637.4025995188.3003522928.5367985459.5751567964.2428380759.1341941515.7668554138,1.5401026504-.3003522929.3450706753.3450853019-.0255477893.428159497.7476726319-.3578640721-.2492177099-.9585686578-.7796366217-.5176279528.9010568785-.5559691389.5048321182-1.2141879416-.1533647446-.8051965999.7029542494-.7732472366.5367961081.3195228859-.3898085598,1.1950173485-.7349182393.37064528-.3003522928.6582163649-.1214202568,1.0735970917.7349182393-.313131063.287558896-1.3228245527,1.7062607917-.7732447989.0766823723-.4281619348-.8307517025-.4728949438-.4409431427-.7860260068.178932036-.29396047-.5240222134-.1853238589-.4345464443-1.9682597096.6454229681-.4856761517,1.1758418799-1.4698047877.3131456896-.7412929978.0766823723-.8946638368.5240222134-2.0321657495.159761443-.8627120358-.230066619-.6198739599.3962052582-1.3675575617.0319639899-1.0991595076.1533647446-.153370839.6326490734.4217701119,1.0097032407-.255618065,1.6998640933-1.0224734787.8499222956,1.6167862415,1.5976144296,1.5976144296.6198751788.2811804809,1.3356033229.204494452,1.7446019779-.140589631,1.3611706144-.6965599888,1.2908654383-.4345513199,1.3292261266-.006390604.8499222956-.204494452,1.604011128-.006390604-.2108960259.306741678.3514868758.6582175838,1.195012473.4856749329.9841359492.134199027,2.7478890181-.012781208.4537170374.4089901228-.2172732222.236446253.5815339926.3323040939.3259195843.5112361299.9777392508.7476836018,1.4953647658.3067428968,2.281398086-.3386946979.626252375.083075414-.2172732222.2811804809.5367961081,1.8021088816-.3322967806.4601125169-.9777392508.012781208-.2172732222-.1853238589-.747692134.6198751788.8435450993.4665031209.4345464443-.29396047.6518196665-.012781208-.1214007547.281179262,1.0607988194-.4920630991-.178932036,1.2844809288-.6837641542.3898183109.2172732222.5367985459-.1150235584.530406723.8818667833-.1278072042.6134979825.5815315549.5240027113.1853214211.6837836564,1.0352559056.2428405136.6262645639-1.3228294282.7860260068.5559667012,1.0735970917-.2172732222.3195228859.3450901774,1.2397479198.2364438152-.204494452.9010568785.2747898769.5559667012.5623609618-.2364438152.249227461.3131261875.3323040939.7029542494-.012781208.6390457718.4792843289.2684078051.5176279528.2108765238.869100202.338693479.159761443-.1214202568.8499320467.4153758513-.0063918229.2172927243.4601137358-.0383411861.5431903687Zm-62.7159614093,47.5705688158l-.1981026291.1917156818-.4920679746-1.0288689582,1.6679098545-.6837787808.5943176384.3642558949,1.354773916-.7796366217-.517625515,1.3228245527.6262621261-.0383411861.1278072042,1.0991595076-.677386958.7476823829-1.0032967912-.7221248425-.6965673021-.0319444877-.7860235691-.4409431427Zm-4.3966380306.1022399127l1.2077961187.0063966984-.4537170374-.6837787808.4920679746-.5431928065.8051941621.1022496638.1086366111.5815291171-.4537267885.5815339926.5304091608-.1725450887.7476823829-.7732447989.0830790707.7476872585.5495797538-.4409431427.0830790707.6518294176.4473300901.4153758513.6007045857.0383411861.1278072042,1.0096934896-1.2397503575,1.3675575617.8243745063.5623633996-1.2908751894.4665006831-.5559667012-1.1694549326-.2108862748.8946699312-.6965673021.2556144083-.2428307626-.6518294176-.856318994.9138405243-.9330111174-.3834313635-.5815339926.1725450887-.0958529653-.766852976-1.3483869686.5431830554-.4473300901-.2300568679-.7796366217.0766921233.8371484009-1.175851631-1.0480346758.0511248319.2811816998-.3514673737-.159761443-.7924202675.856318994-.9713523035-.0958529654-.8179778079,1.2972621367-.8307565781,1.533705952.1853238589.5048418693.5815291171-.428159497.5495748783Zm-5.3935478745,3.0802053008l-1.3611608633.4728973815-.0063966984-.2939653455,1.3675575617-.178932036Zm-5.4957877872.6454327192l.3131359386.4153856023-1.0416477284.8371484009-.4792843289-.7348987372.2108862748-.4281692481.9969098439-.089466018Zm-12.3463689924-7.2787260757l-1.1247170481.7860235691-1.4825908712.0063918229,1.5720568892-.8051990377.0958529653.3770395407.9393980647-.3642558949Zm-.9841261982-1.8979667224l.3962052582.4601137358-.5240124624.4665006831-.9649653562.0575166547.0383509372-.7668578515-.5815339926.0702954249.7540693303-.9585686578.3962150093-.1214153813.4856712762.7924153919Zm-5.4191054149-2.7734611851l-.3706477178.4281643725-.5048516203-.0639084776.268398054-.6198703032.6071012841.2556144083Zm42.7202039968-35.6779241741l-.7348987372.0830766329.3770346651-.4409431427.3578640721.3578665098Zm-46.2157851488,36.3489241847l.2556144083.7285117899-.4409431427.2875686471-.3259098333-.4665006831.5112385677-.5495797538Zm-6.4351956029-6.5310485683l-.4345464443.6646081878-.5431928065-.2172780977.4920679746-.6454327192.4856712762.1981026291Zm-1.0799889146.0575166547l-1.1438876411-.3962101337.2556144083-.4920679746.7476823829-.0383411861.1405908499.9266192945Zm30.6550264552-25.9963821934l.5623633996.3962052582-.3003522928.383426488.4089889039.4153807268-.0319542388.7093411968-1.4186823936,1.1822337028-.6518196665.1086414866-.6965673021-.4026019566-.6006948346.249227461-.0319542388-1.3228245527-.3003522928-.3962052582.159761443-1.4442448095-.2044993275-.3131310631.0958627164-.8371532765.5815242416-.6709975729.3387032301.1405908499.3962052582,1.0096910519.8179778079.0319542388.3450804263.3962101337.4984549219-.0702954249.0319542388.4345513199Zm-32.5913343638,24.8269272608l-.0702954249.766852976-1.5784438365-.1725402132-.1533647446.1533696201,1.5017517132.6134833559-.3706477178.3259147088-.7988072148-.089466018-.8307517025-.5176303906-.517625515.3003522928-1.0672150199-.4345513199-.517625515-.7029493739-.7924105164-.1086366111-1.0224771354-.5751421698.1214202568-.8307565781,1.1630582342.5304042852.1086366111.3642558949.92662417.3578689476.3770346651-.5687503469.7988072148-.0191754686.159761443.7988072148.3706477178-.204494452-.3259195843-.7285117899.1214202568-.6390457718.8115908605-.178932036,1.0991595076.7924153919-.5304091608.7860284446,1.016080437-.0191705931Zm-8.8699486824-3.4252857271l1.6870804476.3514722492.4601137358-.2620062312.7476823829.0511248319.6518196665.4856712762-.0255575404.5368009836-.58792094.651824542-1.5209320573-.6582163649-1.4889778185.159761443-.7093411968-.2556192838.7860333201-1.060813446Zm-3.0993758938-1.7701595183l-.428159497.5176303906-.4920679746-.7412954356.2875686471-.338693479.6326588245.562358524Zm22.0598627742-17.4779008847l-.7093411968-.0255624159.4537170374-.4153758513.2556241594.4409382672Zm-24.7246824726,15.5096436128l-.3642607705.5559667012-.6709902596-.3003522928.4601039847-.4665006831.5751470453.2108862748Zm58.2937560872-41.8191568693l.089466018,2.2622226174,1.2525242522.6070939708.1853287344.498454922-.1661581414.6454351569-.6134784804.5176279528.1341941515,1.1055488927-.178932036.4856761517.5048516203,1.2461373049.1661483903.8435402238-1.0288640827.1342014648-.1469777972-.6710000106-.4920679746-.5048443071-.5367961081-.0830766329-.9713523035.223665045.5112385677-.8946626179.2364438152-.8243696307-.1981026291-.5048467448.4601137358-.5687503469.1214202568-1.5656626286-.249227461-.5495797538-1.0672052688-.440940705.0191705931-.8115884228.5431928065-.6518257609,1.4250693409-.4984561408Zm-62.9396215788,37.6525757066l-.5815339926.4792843289-.4409333917-.5048467448.58792094-.249227461.4345464443.2747898769Zm-3.2591275857-2.7926269026l-.0191803441.5687503469.6454424702,1.1375006938-.1469777972.1725402132-.996919595-1.195012473.5176352661-.6837787808Zm-.4089889039-2.6520409282l.517625515-.3770395407.4345464443.3067441157-.2108862748.990518021-.6198751788.1022496638-.1661483903-.3962101337-.4920679746.4984597975-.3642510194-.5623633996-1.2333634102-.8818814099-.178932036-.8435402238.5112385677-.0639036021.3259098333.811585985,1.4762039238.4153807268Zm-5.6044341493-5.2912982107l.3578640721.5240173379-.6837836564.4409382672-.2556144083-.7988072148-1.2269667118-.4025970811.9202274716-1.0416428529.2044895764.3706428423.8371484009-.4601088603.2428405136.4537219129-.6007045857.383426488.2044993275.5304091608Zm-.4792843289-2.5306206714l-.1150333095.5240173379-1.0480298002.338693479-.4856761517-.3259147088.562358524-.3770346651,1.0863807374-.159761443Zm-1.5145402344-3.0546404471l.204494452.575139732-.4537219129.9074462636-1.0160853125-.0511248319,1.2653127735-1.4314611638Zm-3.406115134-33.185647736l-.5304091608-.4601131264-.6262621261.2364474719-1.4761941728-5.3360324386,1.1566712869.4920652321.4601137358-.1917137011,1.016080437,5.2593465621ZM44.0958281753,120.6695643571l-1.1709869897-2.4884380905.6952996994-5.7270091848,1.3356544177-3.7143142229-.7684479974-3.4581276649,2.0126949618-2.3969189605,2.2139365388-4.2449464943,3.2203119389-4.2449464943,2.0492691108-3.9887599363,5.5989159057-13.8691964853.4025389924-1.9944358065,3.0555886725-5.8916207744,3.0739595046-8.5264671376.8416521337-4.9768203427,1.4454885415-2.6714205122,5.3061551987-1.0795236981-1.8663425275-1.2625061198-1.9943799681.4757431287-1.7199342548-2.1407882408,1.1527278344-2.1590473961,1.8480275338-.7318738484-1.1893019834-4.2083165069,1.3356544177-9.5694166867-.5488914267-1.4820626904.8416521337-6.8065328828-1.3539694114-3.1836819515.7135588547-5.2330069007,2.2688815199-2.9092362382,1.7016192611,2.2688256815,3.8057775146,3.5496467949,3.0739595046.8599671274,2.8177171082,1.7748233975,3.1288486473.0548891427.951430419,1.8846016828,2.6164755312.6952996994.7136146931,4.2266315006,1.4088585541.1097782853-1.2258761324,5.050024479-.5123172777,4.757263772,1.2258761324-.1464082727.036574149-4.1900015133,1.4089143925-3.6960550676,2.9641253809-3.3483493795-1.0063195617-1.9943799681.695243861-2.7994579529-.1829265833-3.3484052179,1.2076169771-2.0492691108.036574149-2.7994579529-1.6101559695-.8782821211-1.0246345554-2.4151781158.9697454127-1.7016750995,62.7042286485,16.2112821415,10.9417010918,2.3237148241,50.8659862803,9.0387844153,23.1275933097,2.9824403746,61.3868333861,5.2146919071-.9697454127,19.7791880918-1.7748233975,33.2824755721-.7684479974,16.4490978675h-.2012974154l-1.6284151248,34.6181858282-1.6833601058,34.7096491198,26.2198119696.9697454127-.4208539861,17.4005282865-1.0429495491,52.1834373811-13.3385642139-.4940581224-18.5716269531-.7135588547-35.1121881122-2.3603448115-7.6481850165-.7501888421-22.4322936103-2.2139365388-9.459582563,97.761527618-30.0439044779-3.5313318012-16.5223020039-8.764338702-35.5878754025-19.5230015337,1.9394908255-3.6045359376,2.9458103872-.164667428,1.0063754001-1.3722844051-.292760707-3.3300902243-1.9578058192-.4391689797.036574149-6.5503463248,3.2752010816-1.9394908255.786762991-2.4701230969.0732041364-4.135168209,2.1773623898-2.7079388228,2.4334931095-.7318738484,2.0493249492-1.9761208128-2.4335489479-2.9092362382-1.2258761324-4.8487270637-1.8663425275-3.2203119389.329334856-2.1773623898-14.1619571923-19.7242989491-7.8494824319-10.9599602471-10.6855145338-14.9853501708-13.1922117796-18.6813494-13.5398616293-19.3766490994,5.086598628-21.5174373402,6.9528853171-29.4766980575-12.8628769236-3.3300343859-16.5039870102-4.8304679084-10.5208471058-2.9641253809-12.0395397836-3.5313318012ZM93.4249184609,22.7982026153l-1.3540252498-1.8113975464.9514862574-1.2258761324,1.6650451121-.3110757007-1.2625061198,3.3483493795Zm.3110198623-7.3371093158l-1.1709869897,2.1590473961-2.3237706625-1.4088585541.8233929784-2.0493249492,1.8662866891-1.8479716954.8050779847,3.1471078026Z"/>
  <path id="Sierra-Senior" class="cls-2" d="m136.0755133043,309.0201777053l-19.3766490994-1.9029166765-15.7904281555-1.5735818205-1.3173952624-2.5981605375.5488914267-3.5862209439-.329334856-4.427928916-1.4820626904-3.4215535159-3.6594250803-5.0682836343-4.9219312-5.0500244791-1.2808211134.786762991-2.0309541171-1.1344128407.6404105567-1.6101559695-1.7931383912-4.00707493h-3.4581276649l-5.3062110371-3.8606666572-.4207981477-2.2505665262-3.3666643732-3.4398685096-4.4462439097-.9697454127-3.4215535159-1.9943799681-4.7389487783-.6952996994-1.9211758318-2.8360321018,1.5918409758-4.629170493-.6769847057-.9514862574,1.2807652751-3.2202561005-3.0373295172-3.4215535159.6404105567-3.4947576523-1.2990802687-.5306322714-1.5552668268-3.5496467949-1.4088585541-1.0612087044-.2378715644-2.0493249492-3.5313318012-8.3434847159-1.9394908255-2.7079388228.82333714-5.6172308994.9148562701.7501888421,1.7565642422-3.0007553682-1.1710428281-3.4947576523-2.4334931095-.2561307197-2.3786598052-3.5496467949-.5488914267-2.4334931095.7318738484-1.9761208128-.8416521337-3.1104778152,1.1527278344-4.464503065,2.4334931095.6769847057.5855214141-6.4955130205-1.2442469645.3476498497-.988004568,3.0007553682-2.7628838039-.0732041364-2.4701230969-3.2019969452.5489472651-4.1168532153-1.1710428281-3.7326292166-2.1041582535-2.7079388228-.8050779847-2.6347905249-2.6347905249-5.4891376204,1.0063754001-1.0978386918-.2012974154-6.1844373198,1.6467301184-2.9092362382.2012974154-5.0500244791-1.9394908255-5.5989159057-2.4335489479-3.5679059502.2744457133-3.2386269326,5.2878960434-6.4039938905,1.3173952624-2.3053998305-.036574149-2.1224732472,2.6164755312-4.720689623.329334856-4.9401903553-1.0063195617-1.5186926778,1.6101001311-3.5130168076,12.0395397836,3.5313318012,10.5208471058,2.9641253809,16.5039870102,4.8304679084,12.8628769236,3.3300343859-6.9528853171,29.4766980575-5.086598628,21.5174373402,13.5398616293,19.3766490994,13.1922117796,18.6813494,10.6855145338,14.9853501708,7.8494824319,10.9599602471,14.1619571923,19.7242989491-.329334856,2.1773623898,1.8663425275,3.2203119389,1.2258761324,4.8487270637,2.4335489479,2.9092362382-2.0493249492,1.9761208128-2.4334931095.7318738484-2.1773623898,2.7079388228-.0732041364,4.135168209-.786762991,2.4701230969-3.2752010816,1.9394908255-.036574149,6.5503463248,1.9578058192.4391689797.292760707,3.3300902243-1.0063754001,1.3722844051-2.9458103872.164667428Z"/>
  <path id="Frontier-Junior" class="cls-2" d="m168.2208414701,159.0568977124c0,5.9847564697,4.8515930176,10.8363494873,10.8363342285,10.8363494873s10.8363647461-4.8515930176,10.8363647461-10.8363494873-4.8516235352-10.8363494873-10.8363647461-10.8363494873-10.8363342285,4.8515930176-10.8363342285,10.8363494873"/>
  <path id="Sierra-Junior" class="cls-2" d="m67.421195147,225.6812205185c0,5.9847564697,4.8515930176,10.8363494873,10.8363342285,10.8363494873s10.8363647461-4.8515930176,10.8363647461-10.8363494873-4.8516235352-10.8363494873-10.8363647461-10.8363494873-10.8363342285,4.8515930176-10.8363342285,10.8363494873"/>
  <path id="Heartland-Junior" class="cls-2" d="m396.3110654699,120.6695643571c0,5.9847564697,4.8515930176,10.8363494873,10.8363342285,10.8363494873s10.8363647461-4.8515930176,10.8363647461-10.8363494873-4.8516235352-10.8363494873-10.8363647461-10.8363494873-10.8363342285,4.8515930176-10.8363342285,10.8363494873"/>
  <path id="Alamo-Junior" class="cls-2" d="m332.3395998856,307.3668338011c0,5.9847564697,4.8515930176,10.8363494873,10.8363342285,10.8363494873s10.8363647461-4.8515930176,10.8363647461-10.8363494873-4.8516235352-10.8363494873-10.8363647461-10.8363494873-10.8363342285,4.8515930176-10.8363342285,10.8363494873"/>
  <path id="Dixie-Junior" class="cls-2" d="m488.1809723135,294.8717767714c0,5.9847564697,4.8515930176,10.8363494873,10.8363342285,10.8363494873s10.8363647461-4.8515930176,10.8363647461-10.8363494873-4.8516235352-10.8363494873-10.8363647461-10.8363494873-10.8363342285,4.8515930176-10.8363342285,10.8363494873"/>
  <path id="Everglade-Junior" class="cls-2" d="m594.1532163909,311.2937062836c0,5.9847564697,4.8515930176,10.8363494873,10.8363342285,10.8363494873s10.8363647461-4.8515930176,10.8363647461-10.8363494873-4.8516235352-10.8363494873-10.8363647461-10.8363494873-10.8363342285,4.8515930176-10.8363342285,10.8363494873"/>
  <path id="Chesapeake-Junior" class="cls-2" d="m617.7245157922,214.8448710312c0,5.9847564697,4.8515930176,10.8363494873,10.8363342285,10.8363494873s10.8363647461-4.8515930176,10.8363647461-10.8363494873-4.8516235352-10.8363494873-10.8363647461-10.8363494873-10.8363342285,4.8515930176-10.8363342285,10.8363494873"/>
  <path id="Susquehanna-Junior" class="cls-2" d="m646.7987010462,142.3422633317c0,5.9847564697,4.8515930176,10.8363494873,10.8363342285,10.8363494873s10.8363647461-4.8515930176,10.8363647461-10.8363494873-4.8516235352-10.8363494873-10.8363647461-10.8363494873-10.8363342285,4.8515930176-10.8363342285,10.8363494873"/>
  <path id="New_England-Junior" data-name="New England-Junior" class="cls-2" d="m675.269079542,81.4039209614c0,5.9847564697,4.8515930176,10.8363494873,10.8363342285,10.8363494873s10.8363647461-4.8515930176,10.8363647461-10.8363494873-4.8516235352-10.8363494873-10.8363647461-10.8363494873-10.8363342285,4.8515930176-10.8363342285,10.8363494873"/>
  <path id="Akron-Junior" class="cls-2" d="m548.1772063008,169.8932471998c0,5.9847564697,4.8515930176,10.8363494873,10.8363342285,10.8363494873s10.8363647461-4.8515930176,10.8363647461-10.8363494873-4.8516235352-10.8363494873-10.8363647461-10.8363494873-10.8363342285,4.8515930176-10.8363342285,10.8363494873"/>
  </g>
</svg>